AnnotationMono_ExtraBlack.ufo
<glyph name="exclam" format="2">
  <advance width="500.0"/>
  <unicode hex="0021"/>
  <outline>
    <contour>
      <point x="251" y="608" type="curve" smooth="yes"/>
      <point x="334" y="608"/>
      <point x="331.5" y="573.6666666666666"/>
      <point x="329.6666666666667" y="546.6666666666666" type="curve" smooth="yes"/>
      <point x="327" y="494.6666666666667"/>
      <point x="318.3333333333333" y="418"/>
      <point x="314.5" y="382" type="curve" smooth="yes"/>
      <point x="306.8333333333333" y="314"/>
      <point x="302.1666666666667" y="268"/>
      <point x="301.1666666666667" y="252" type="curve" smooth="yes"/>
      <point x="297.3333333333333" y="196.66666666666666"/>
      <point x="295.3333333333333" y="177.5"/>
      <point x="250" y="177.5" type="curve" smooth="yes"/>
      <point x="203.66666666666666" y="177.5"/>
      <point x="201.66666666666666" y="198.33333333333334"/>
      <point x="196.83333333333334" y="253" type="curve" smooth="yes"/>
      <point x="195" y="261"/>
      <point x="190.16666666666666" y="339"/>
      <point x="183.5" y="382" type="curve" smooth="yes"/>
      <point x="182.5" y="402"/>
      <point x="173" y="489.6666666666667"/>
      <point x="167.33333333333334" y="546.6666666666666" type="curve" smooth="yes"/>
      <point x="166.33333333333334" y="567.8333333333334"/>
      <point x="162" y="608"/>
    </contour>
    <component base="period"/>
  </outline>
</glyph>
<glyph name="numbersign" format="2">
  <advance width="500.0"/>
  <unicode hex="0023"/>
  <outline>
    <contour>
      <point x="252.33333333333334" y="605" type="curve" smooth="yes"/>
      <point x="312" y="605"/>
      <point x="309" y="579"/>
      <point x="302" y="557" type="curve" smooth="yes"/>
      <point x="298" y="540"/>
      <point x="257" y="385"/>
      <point x="228" y="276" type="curve" smooth="yes"/>
      <point x="214" y="222"/>
      <point x="183" y="110"/>
      <point x="173" y="76" type="curve" smooth="yes"/>
      <point x="156" y="22"/>
      <point x="157" y="-7"/>
      <point x="87.33333333333333" y="-7" type="curve" smooth="yes"/>
      <point x="60.33333333333333" y="-7"/>
      <point x="48" y="29"/>
      <point x="63" y="70" type="curve" smooth="yes"/>
      <point x="77" y="111"/>
      <point x="106" y="229"/>
      <point x="137" y="346" type="curve" smooth="yes"/>
      <point x="185" y="525"/>
      <point x="185" y="532"/>
      <point x="197" y="563" type="curve" smooth="yes"/>
      <point x="209" y="596"/>
      <point x="236.33333333333334" y="605"/>
    </contour>
    <contour>
      <point x="404.6666666666667" y="605" type="curve" smooth="yes"/>
      <point x="426.6666666666667" y="605"/>
      <point x="450" y="588"/>
      <point x="446" y="563" type="curve" smooth="yes"/>
      <point x="441" y="532"/>
      <point x="436" y="525"/>
      <point x="388" y="346" type="curve" smooth="yes"/>
      <point x="357" y="229"/>
      <point x="327" y="110"/>
      <point x="316" y="70" type="curve" smooth="yes"/>
      <point x="304" y="25"/>
      <point x="278.6666666666667" y="-7"/>
      <point x="240.66666666666666" y="-7" type="curve" smooth="yes"/>
      <point x="184" y="-7"/>
      <point x="193" y="28"/>
      <point x="208" y="74" type="curve" smooth="yes"/>
      <point x="234" y="157"/>
      <point x="247" y="222"/>
      <point x="261" y="276" type="curve" smooth="yes"/>
      <point x="289" y="386"/>
      <point x="332" y="538"/>
      <point x="335" y="555" type="curve" smooth="yes"/>
      <point x="340" y="577"/>
      <point x="349" y="605"/>
    </contour>
    <contour>
      <point x="52" y="401" type="curve" smooth="yes"/>
      <point x="52" y="447"/>
      <point x="65" y="452.3333333333333"/>
      <point x="94" y="452.3333333333333" type="curve" smooth="yes"/>
      <point x="146" y="452.3333333333333"/>
      <point x="252.33333333333334" y="450.3333333333333"/>
      <point x="264.3333333333333" y="450.3333333333333" type="curve" smooth="yes"/>
      <point x="297.3333333333333" y="450.3333333333333"/>
      <point x="409" y="453.3333333333333"/>
      <point x="441" y="451.3333333333333" type="curve" smooth="yes"/>
      <point x="464" y="450.3333333333333"/>
      <point x="478" y="447"/>
      <point x="478" y="400" type="curve" smooth="yes"/>
      <point x="478" y="379"/>
      <point x="461" y="358.6666666666667"/>
      <point x="426" y="357.6666666666667" type="curve" smooth="yes"/>
      <point x="379" y="356.6666666666667"/>
      <point x="346" y="353.6666666666667"/>
      <point x="268" y="356.6666666666667" type="curve" smooth="yes"/>
      <point x="237" y="357.6666666666667"/>
      <point x="108" y="355.6666666666667"/>
      <point x="90" y="358.6666666666667" type="curve" smooth="yes"/>
      <point x="62" y="362.6666666666667"/>
      <point x="52" y="385"/>
    </contour>
    <contour>
      <point x="32" y="201" type="curve" smooth="yes"/>
      <point x="32" y="217"/>
      <point x="45" y="242.33333333333334"/>
      <point x="74" y="242.33333333333334" type="curve" smooth="yes"/>
      <point x="126" y="242.33333333333334"/>
      <point x="215.66666666666666" y="240.33333333333334"/>
      <point x="227.66666666666666" y="240.33333333333334" type="curve" smooth="yes"/>
      <point x="260.6666666666667" y="240.33333333333334"/>
      <point x="379" y="243.33333333333334"/>
      <point x="411" y="241.33333333333334" type="curve" smooth="yes"/>
      <point x="434" y="240.33333333333334"/>
      <point x="448" y="219"/>
      <point x="448" y="200" type="curve" smooth="yes"/>
      <point x="448" y="152"/>
      <point x="431" y="148.66666666666666"/>
      <point x="396" y="147.66666666666666" type="curve" smooth="yes"/>
      <point x="349" y="146.66666666666666"/>
      <point x="256.6666666666667" y="147.66666666666666"/>
      <point x="219.66666666666666" y="146.66666666666666" type="curve" smooth="yes"/>
      <point x="188.66666666666666" y="146.66666666666666"/>
      <point x="88" y="145.66666666666666"/>
      <point x="70" y="148.66666666666666" type="curve" smooth="yes"/>
      <point x="42" y="152.66666666666666"/>
      <point x="32" y="159"/>
    </contour>
  </outline>
</glyph>
<glyph name="dollar" format="2">
  <advance width="500.0"/>
  <unicode hex="0024"/>
  <outline>
    <contour>
      <point x="262.0" y="615.0" type="curve" smooth="yes"/>
      <point x="338.0" y="615.0"/>
      <point x="376.0" y="604.0"/>
      <point x="412.0" y="584.0" type="curve" smooth="yes"/>
      <point x="440.0" y="568.0"/>
      <point x="483.1666666666667" y="545.8333333333334"/>
      <point x="453.8333333333333" y="498.0" type="curve" smooth="yes"/>
      <point x="420.0" y="447.33333333333337"/>
      <point x="395.0" y="470.0"/>
      <point x="378.0" y="479.0" type="curve" smooth="yes"/>
      <point x="360.0" y="490.0"/>
      <point x="342.0" y="501.0"/>
      <point x="261.0" y="501.0" type="curve" smooth="yes"/>
      <point x="207.33333333333334" y="501.0"/>
      <point x="180.66666666666666" y="497.6666666666667"/>
      <point x="180.66666666666666" y="437.0" type="curve" smooth="yes"/>
      <point x="180.66666666666666" y="345.0"/>
      <point x="184.0" y="360.5"/>
      <point x="265.0" y="360.5" type="curve" smooth="yes"/>
      <point x="350.3333333333333" y="360.5"/>
      <point x="389" y="341"/>
      <point x="428.3333333333333" y="302.5" type="curve" smooth="yes"/>
      <point x="455" y="276"/>
      <point x="460.0" y="241.0"/>
      <point x="460.0" y="189.0" type="curve" smooth="yes"/>
      <point x="460.0" y="129.0"/>
      <point x="445.0" y="84.0"/>
      <point x="415.0" y="51.0" type="curve" smooth="yes"/>
      <point x="381.0" y="13.0"/>
      <point x="322.0" y="-9.0"/>
      <point x="245.0" y="-9.0" type="curve" smooth="yes"/>
      <point x="178.0" y="-9.0"/>
      <point x="113.0" y="27.0"/>
      <point x="79.0" y="64.0" type="curve" smooth="yes"/>
      <point x="60.0" y="85.0"/>
      <point x="20.16666666666667" y="104.0"/>
      <point x="59.833333333333336" y="154.66666666666666" type="curve" smooth="yes"/>
      <point x="95.83333333333333" y="200.0"/>
      <point x="128.33333333333334" y="180.83333333333331"/>
      <point x="143.33333333333334" y="168.83333333333331" type="curve" smooth="yes"/>
      <point x="187.33333333333334" y="128.83333333333331"/>
      <point x="220.83333333333334" y="118.16666666666666"/>
      <point x="248.83333333333334" y="118.16666666666666" type="curve" smooth="yes"/>
      <point x="306.8333333333333" y="118.16666666666666"/>
      <point x="318.5" y="106.0"/>
      <point x="342.3333333333333" y="127.16666666666666" type="curve" smooth="yes"/>
      <point x="349.5" y="130.83333333333334"/>
      <point x="357.8333333333333" y="152.5"/>
      <point x="357.8333333333333" y="182.5" type="curve" smooth="yes"/>
      <point x="357.8333333333333" y="206.5"/>
      <point x="352.5" y="220.5"/>
      <point x="348.3333333333333" y="226.5" type="curve" smooth="yes"/>
      <point x="342.1666666666667" y="235.33333333333334"/>
      <point x="321.0" y="244.5"/>
      <point x="274.0" y="244.5" type="curve" smooth="yes"/>
      <point x="119.66666666666667" y="243.5"/>
      <point x="65.66666666666667" y="298.6666666666667"/>
      <point x="65.66666666666667" y="439.0" type="curve" smooth="yes"/>
      <point x="65.66666666666667" y="580.3333333333334"/>
      <point x="156.66666666666666" y="615.0"/>
    </contour>
    <contour>
      <point x="280.0" y="682.0" type="curve" smooth="yes"/>
      <point x="286" y="682"/>
      <point x="311" y="674"/>
      <point x="311" y="641" type="curve" smooth="yes"/>
      <point x="312" y="523"/>
      <point x="314" y="511"/>
      <point x="311" y="301" type="curve" smooth="yes"/>
      <point x="309" y="96"/>
      <point x="311" y="115"/>
      <point x="312" y="-45" type="curve" smooth="yes"/>
      <point x="312" y="-83"/>
      <point x="304" y="-108"/>
      <point x="275.0" y="-108.0" type="curve" smooth="yes"/>
      <point x="225" y="-108"/>
      <point x="223" y="-86"/>
      <point x="223.66666666666666" y="-44.0" type="curve" smooth="yes"/>
      <point x="224" y="-38"/>
      <point x="221.66666666666666" y="70.0"/>
      <point x="224.66666666666666" y="281.0" type="curve" smooth="yes"/>
      <point x="227.66666666666666" y="534.0"/>
      <point x="225" y="561"/>
      <point x="224.66666666666666" y="636.0" type="curve" smooth="yes"/>
      <point x="225" y="667"/>
      <point x="231" y="683"/>
    </contour>
  </outline>
</glyph>
<glyph name="percent" format="2">
  <advance width="500.0"/>
  <unicode hex="0025"/>
  <outline>
    <contour>
      <point x="440" y="613" type="curve" smooth="yes"/>
      <point x="490" y="606.3333333333334"/>
      <point x="463" y="474"/>
      <point x="457" y="443" type="curve" smooth="yes"/>
      <point x="441" y="361"/>
      <point x="390" y="305"/>
      <point x="330" y="282" type="curve" smooth="yes"/>
      <point x="165" y="219"/>
      <point x="157" y="131"/>
      <point x="152" y="37" type="curve" smooth="yes"/>
      <point x="149" y="-6"/>
      <point x="136" y="-14"/>
      <point x="84" y="-13" type="curve" smooth="yes"/>
      <point x="48" y="-16"/>
      <point x="43" y="30"/>
      <point x="48" y="74" type="curve" smooth="yes"/>
      <point x="57" y="165"/>
      <point x="75" y="252"/>
      <point x="178" y="308" type="curve" smooth="yes"/>
      <point x="308" y="379"/>
      <point x="359" y="422.6666666666667"/>
      <point x="367.5" y="539.6666666666666" type="curve" smooth="yes"/>
      <point x="377.3333333333333" y="601.6666666666666"/>
      <point x="367.1666666666667" y="615.1666666666666"/>
    </contour>
    <contour>
      <point x="234" y="495.3333333333333" type="curve" smooth="yes"/>
      <point x="235" y="449.3333333333333"/>
      <point x="227" y="394.6666666666667"/>
      <point x="208" y="371.6666666666667" type="curve" smooth="yes"/>
      <point x="190" y="347.6666666666667"/>
      <point x="165" y="335.6666666666667"/>
      <point x="136" y="335.6666666666667" type="curve" smooth="yes"/>
      <point x="108" y="336.6666666666667"/>
      <point x="87" y="343.6666666666667"/>
      <point x="73" y="356.6666666666667" type="curve" smooth="yes"/>
      <point x="54" y="375.6666666666667"/>
      <point x="42" y="431.3333333333333"/>
      <point x="42" y="494.3333333333333" type="curve" smooth="yes"/>
      <point x="42" y="530.3333333333334"/>
      <point x="49" y="555.3333333333334"/>
      <point x="68" y="584.3333333333334" type="curve" smooth="yes"/>
      <point x="83" y="607.3333333333334"/>
      <point x="106" y="623.3333333333334"/>
      <point x="139" y="622.3333333333334" type="curve" smooth="yes"/>
      <point x="167" y="621.3333333333334"/>
      <point x="191" y="612.3333333333334"/>
      <point x="205" y="594.3333333333334" type="curve" smooth="yes"/>
      <point x="222" y="566.3333333333334"/>
      <point x="234" y="540.3333333333334"/>
    </contour>
    <contour>
      <point x="162.83333333333334" y="484.1666666666667" type="curve" smooth="yes"/>
      <point x="162.83333333333334" y="500.1666666666667"/>
      <point x="161" y="505"/>
      <point x="156" y="512" type="curve" smooth="yes"/>
      <point x="153" y="515"/>
      <point x="148.5" y="521.3333333333334"/>
      <point x="138" y="521.3333333333334" type="curve" smooth="yes"/>
      <point x="132.5" y="521.3333333333334"/>
      <point x="128" y="518"/>
      <point x="124" y="513" type="curve" smooth="yes"/>
      <point x="119" y="507"/>
      <point x="116" y="499"/>
      <point x="116" y="482" type="curve" smooth="yes"/>
      <point x="116" y="464"/>
      <point x="117" y="458"/>
      <point x="120" y="453" type="curve" smooth="yes"/>
      <point x="124" y="446"/>
      <point x="129.16666666666666" y="441.6666666666667"/>
      <point x="137.83333333333334" y="441.6666666666667" type="curve" smooth="yes"/>
      <point x="147.66666666666666" y="441.6666666666667"/>
      <point x="157" y="447"/>
      <point x="159" y="452" type="curve" smooth="yes"/>
      <point x="163" y="460"/>
      <point x="162.83333333333334" y="460.5"/>
    </contour>
    <contour>
      <point x="455" y="107.66666666666667" type="curve" smooth="yes"/>
      <point x="456" y="61.66666666666667"/>
      <point x="448" y="33.66666666666667"/>
      <point x="429" y="10.666666666666668" type="curve" smooth="yes"/>
      <point x="411" y="-13.333333333333332"/>
      <point x="386" y="-25.333333333333332"/>
      <point x="357" y="-25.333333333333332" type="curve" smooth="yes"/>
      <point x="329" y="-24.333333333333332"/>
      <point x="308" y="-17.333333333333332"/>
      <point x="294" y="-4.333333333333332" type="curve" smooth="yes"/>
      <point x="275" y="14.666666666666668"/>
      <point x="263" y="43.66666666666667"/>
      <point x="263" y="106.66666666666667" type="curve" smooth="yes"/>
      <point x="263" y="142.66666666666666"/>
      <point x="270" y="194.33333333333334"/>
      <point x="289" y="223.33333333333334" type="curve" smooth="yes"/>
      <point x="304" y="246.33333333333334"/>
      <point x="327" y="262.3333333333333"/>
      <point x="360" y="261.3333333333333" type="curve" smooth="yes"/>
      <point x="388" y="260.3333333333333"/>
      <point x="412" y="251.33333333333334"/>
      <point x="426" y="233.33333333333334" type="curve" smooth="yes"/>
      <point x="443" y="205.33333333333334"/>
      <point x="455" y="152.66666666666666"/>
    </contour>
    <contour>
      <point x="384" y="124" type="curve" smooth="yes"/>
      <point x="384" y="140"/>
      <point x="382" y="145"/>
      <point x="377" y="152" type="curve" smooth="yes"/>
      <point x="374" y="155"/>
      <point x="369" y="161"/>
      <point x="359" y="161" type="curve" smooth="yes"/>
      <point x="353" y="161"/>
      <point x="349" y="158"/>
      <point x="345" y="153" type="curve" smooth="yes"/>
      <point x="340" y="147"/>
      <point x="337" y="139"/>
      <point x="337" y="122" type="curve" smooth="yes"/>
      <point x="337" y="104"/>
      <point x="338" y="98"/>
      <point x="341" y="93" type="curve" smooth="yes"/>
      <point x="345" y="86"/>
      <point x="350" y="81"/>
      <point x="359" y="81" type="curve" smooth="yes"/>
      <point x="369" y="81"/>
      <point x="378" y="87"/>
      <point x="380" y="92" type="curve" smooth="yes"/>
      <point x="384" y="100"/>
      <point x="384" y="100"/>
    </contour>
  </outline>
</glyph>
<glyph name="ampersand" format="2">
  <advance width="500.0"/>
  <unicode hex="0026"/>
  <outline>
    <contour>
      <point x="58.66666666666667" y="532.5" type="curve" smooth="yes"/>
      <point x="78" y="588"/>
      <point x="124" y="612"/>
      <point x="178.0" y="612.0" type="curve" smooth="yes"/>
      <point x="301" y="612"/>
      <point x="369.3333333333333" y="566.0"/>
      <point x="369.3333333333333" y="496.0" type="curve" smooth="yes"/>
      <point x="369.3333333333333" y="426.0"/>
      <point x="276" y="305"/>
      <point x="220.0" y="261.0" type="curve" smooth="yes"/>
      <point x="156" y="211"/>
      <point x="147" y="131"/>
      <point x="168" y="117" type="curve" smooth="yes"/>
      <point x="200" y="96"/>
      <point x="264" y="136"/>
      <point x="287" y="165" type="curve" smooth="yes"/>
      <point x="319" y="207"/>
      <point x="315" y="203"/>
      <point x="330" y="257" type="curve" smooth="yes"/>
      <point x="337" y="284"/>
      <point x="340" y="309"/>
      <point x="363" y="324" type="curve" smooth="yes"/>
      <point x="379" y="335"/>
      <point x="407" y="326"/>
      <point x="419" y="313" type="curve" smooth="yes"/>
      <point x="431" y="300"/>
      <point x="435" y="272"/>
      <point x="427.0" y="235.0" type="curve" smooth="yes"/>
      <point x="413" y="171"/>
      <point x="399" y="109"/>
      <point x="336" y="54" type="curve" smooth="yes"/>
      <point x="285" y="10"/>
      <point x="202.0" y="-12.166666666666666"/>
      <point x="153.0" y="-14.0" type="curve" smooth="yes"/>
      <point x="65.16666666666667" y="-17.666666666666668"/>
      <point x="40" y="32"/>
      <point x="40" y="101" type="curve" smooth="yes"/>
      <point x="40" y="154"/>
      <point x="58.0" y="243.66666666666666"/>
      <point x="96.0" y="302.6666666666667" type="curve" smooth="yes"/>
      <point x="133.0" y="361.6666666666667"/>
      <point x="236.66666666666669" y="409.5"/>
      <point x="236.66666666666669" y="458.5" type="curve" smooth="yes"/>
      <point x="236.66666666666669" y="471.83333333333337"/>
      <point x="237" y="501"/>
      <point x="213.16666666666666" y="508.5" type="curve" smooth="yes"/>
      <point x="180" y="518"/>
      <point x="138" y="500"/>
      <point x="171.0" y="442.0" type="curve" smooth="yes"/>
      <point x="201" y="389"/>
      <point x="264.0" y="281.0"/>
      <point x="321.0" y="214.0" type="curve" smooth="yes"/>
      <point x="350.0" y="180.0"/>
      <point x="431.0" y="88.0"/>
      <point x="460.0" y="52.0" type="curve" smooth="yes"/>
      <point x="467.0" y="43.0"/>
      <point x="490.0" y="27.0"/>
      <point x="482.0" y="11.0" type="curve" smooth="yes"/>
      <point x="474.0" y="-5.0"/>
      <point x="394.0" y="-13.0"/>
      <point x="363.0" y="6.0" type="curve" smooth="yes"/>
      <point x="333.0" y="25.0"/>
      <point x="208.0" y="185.0"/>
      <point x="195.0" y="201.0" type="curve" smooth="yes"/>
      <point x="148.0" y="261.0"/>
      <point x="85.0" y="375.0"/>
      <point x="72.0" y="403.0" type="curve" smooth="yes"/>
      <point x="49.0" y="453.0"/>
      <point x="45" y="494"/>
    </contour>
  </outline>
</glyph>
<glyph name="quotesingle" format="2">
  <advance width="500.0"/>
  <unicode hex="0027"/>
  <outline>
    <contour>
      <point x="245" y="403" type="curve" smooth="yes"/>
      <point x="213.66666666666666" y="403"/>
      <point x="194.66666666666666" y="414"/>
      <point x="196.66666666666666" y="444" type="curve" smooth="yes"/>
      <point x="198.66666666666666" y="478"/>
      <point x="195.66666666666666" y="498"/>
      <point x="195.66666666666666" y="563" type="curve" smooth="yes"/>
      <point x="195.66666666666666" y="577"/>
      <point x="206.66666666666666" y="605"/>
      <point x="251" y="605" type="curve" smooth="yes"/>
      <point x="288.3333333333333" y="605"/>
      <point x="304.3333333333333" y="588"/>
      <point x="304.3333333333333" y="563" type="curve" smooth="yes"/>
      <point x="304.3333333333333" y="506"/>
      <point x="303.3333333333333" y="473"/>
      <point x="297.3333333333333" y="441" type="curve" smooth="yes"/>
      <point x="293.3333333333333" y="417"/>
      <point x="281.3333333333333" y="403.8333333333333"/>
    </contour>
  </outline>
</glyph>
<glyph name="parenleft" format="2">
  <advance width="500.0"/>
  <unicode hex="0028"/>
  <outline>
    <contour>
      <point x="66" y="291" type="curve" smooth="yes"/>
      <point x="66" y="634"/>
      <point x="294.3333333333333" y="673.0"/>
      <point x="375.0" y="674.0" type="curve" smooth="yes"/>
      <point x="412.0" y="675.0"/>
      <point x="434.1666666666667" y="666.0"/>
      <point x="433.0" y="604.3333333333334" type="curve" smooth="yes"/>
      <point x="432.8333333333333" y="568.0"/>
      <point x="411.0" y="565.0"/>
      <point x="379.0" y="564.0" type="curve" smooth="yes"/>
      <point x="352.0" y="563.0"/>
      <point x="186" y="557"/>
      <point x="186" y="294" type="curve" smooth="yes"/>
      <point x="186" y="30"/>
      <point x="324.0" y="14.0"/>
      <point x="404.0" y="14.0" type="curve" smooth="yes"/>
      <point x="426.0" y="14.0"/>
      <point x="432.3333333333333" y="-4.0"/>
      <point x="432.0" y="-38.333333333333336" type="curve" smooth="yes"/>
      <point x="430.8333333333333" y="-89.0"/>
      <point x="408.0" y="-99.5"/>
      <point x="360.0" y="-95.0" type="curve" smooth="yes"/>
      <point x="269.3333333333333" y="-84.0"/>
      <point x="66" y="-53"/>
    </contour>
  </outline>
</glyph>
<glyph name="asterisk" format="2">
  <advance width="500.0"/>
  <unicode hex="002A"/>
  <outline>
    <contour>
      <point x="251" y="486.3333333333333" type="curve" smooth="yes"/>
      <point x="267" y="486.3333333333333"/>
      <point x="298.3333333333333" y="491.6666666666667"/>
      <point x="298.3333333333333" y="462.6666666666667" type="curve" smooth="yes"/>
      <point x="298.3333333333333" y="439.6666666666667"/>
      <point x="301.3333333333333" y="384.3333333333333"/>
      <point x="284.3333333333333" y="347.3333333333333" type="curve"/>
      <point x="307.3333333333333" y="385.3333333333333"/>
      <point x="354" y="414.3333333333333"/>
      <point x="365" y="419.3333333333333" type="curve" smooth="yes"/>
      <point x="392" y="430.3333333333333"/>
      <point x="406" y="407"/>
      <point x="414" y="393" type="curve" smooth="yes"/>
      <point x="422" y="379"/>
      <point x="433.3333333333333" y="344.6666666666667"/>
      <point x="409.3333333333333" y="328.6666666666667" type="curve" smooth="yes"/>
      <point x="389.3333333333333" y="315.6666666666667"/>
      <point x="341.3333333333333" y="307"/>
      <point x="301.3333333333333" y="300" type="curve"/>
      <point x="339.3333333333333" y="297"/>
      <point x="379.3333333333333" y="289.3333333333333"/>
      <point x="400.3333333333333" y="276.3333333333333" type="curve" smooth="yes"/>
      <point x="430.3333333333333" y="259.3333333333333"/>
      <point x="422" y="223"/>
      <point x="413" y="206" type="curve" smooth="yes"/>
      <point x="404" y="190"/>
      <point x="387" y="169.66666666666666"/>
      <point x="366" y="180.66666666666666" type="curve" smooth="yes"/>
      <point x="350" y="189.66666666666666"/>
      <point x="307.3333333333333" y="216.66666666666666"/>
      <point x="284.3333333333333" y="253.66666666666666" type="curve"/>
      <point x="299.3333333333333" y="213.66666666666666"/>
      <point x="299.3333333333333" y="155.33333333333334"/>
      <point x="297.3333333333333" y="137.33333333333334" type="curve" smooth="yes"/>
      <point x="294.3333333333333" y="113.33333333333334"/>
      <point x="269" y="113.66666666666667"/>
      <point x="250" y="113.66666666666667" type="curve" smooth="yes"/>
      <point x="233" y="113.66666666666667"/>
      <point x="205.66666666666666" y="115.33333333333334"/>
      <point x="203.66666666666666" y="140.33333333333334" type="curve" smooth="yes"/>
      <point x="201.66666666666666" y="160.33333333333334"/>
      <point x="200.66666666666666" y="214.66666666666666"/>
      <point x="215.66666666666666" y="253.66666666666666" type="curve"/>
      <point x="192.66666666666666" y="216.66666666666666"/>
      <point x="150" y="189.66666666666666"/>
      <point x="134" y="180.66666666666666" type="curve" smooth="yes"/>
      <point x="113" y="169.66666666666666"/>
      <point x="96" y="190"/>
      <point x="87" y="206" type="curve" smooth="yes"/>
      <point x="78" y="223"/>
      <point x="69.66666666666667" y="259.3333333333333"/>
      <point x="99.66666666666667" y="276.3333333333333" type="curve" smooth="yes"/>
      <point x="120.66666666666667" y="289.3333333333333"/>
      <point x="160.66666666666666" y="297"/>
      <point x="198.66666666666666" y="300" type="curve"/>
      <point x="158.66666666666666" y="307"/>
      <point x="110.66666666666667" y="315.6666666666667"/>
      <point x="90.66666666666667" y="328.6666666666667" type="curve" smooth="yes"/>
      <point x="66.66666666666667" y="344.6666666666667"/>
      <point x="78" y="379"/>
      <point x="86" y="393" type="curve" smooth="yes"/>
      <point x="94" y="407"/>
      <point x="108" y="430.3333333333333"/>
      <point x="135" y="419.3333333333333" type="curve" smooth="yes"/>
      <point x="146" y="414.3333333333333"/>
      <point x="190.66666666666666" y="385.3333333333333"/>
      <point x="215.66666666666666" y="347.3333333333333" type="curve"/>
      <point x="197.66666666666666" y="391.3333333333333"/>
      <point x="201.66666666666666" y="455.6666666666667"/>
      <point x="203.66666666666666" y="466.6666666666667" type="curve" smooth="yes"/>
      <point x="207.66666666666666" y="494.6666666666667"/>
      <point x="236" y="486.3333333333333"/>
    </contour>
  </outline>
</glyph>
<glyph name="plus" format="2">
  <advance width="500.0"/>
  <unicode hex="002B"/>
  <outline>
    <contour>
      <point x="52" y="301" type="curve" smooth="yes"/>
      <point x="52" y="317"/>
      <point x="65" y="361.5"/>
      <point x="94" y="361.5" type="curve" smooth="yes"/>
      <point x="146" y="361.5"/>
      <point x="206.5" y="359.5"/>
      <point x="218.5" y="359.5" type="curve" smooth="yes"/>
      <point x="251.5" y="359.5"/>
      <point x="379" y="362.5"/>
      <point x="411" y="360.5" type="curve" smooth="yes"/>
      <point x="434" y="359.5"/>
      <point x="448" y="319"/>
      <point x="448" y="300" type="curve" smooth="yes"/>
      <point x="448" y="280"/>
      <point x="431" y="240.5"/>
      <point x="396" y="239.5" type="curve" smooth="yes"/>
      <point x="349" y="238.5"/>
      <point x="247.5" y="239.5"/>
      <point x="210.5" y="238.5" type="curve" smooth="yes"/>
      <point x="179.5" y="238.5"/>
      <point x="108" y="237.5"/>
      <point x="90" y="240.5" type="curve" smooth="yes"/>
      <point x="62" y="244.5"/>
      <point x="52" y="286"/>
    </contour>
    <contour>
      <point x="251" y="498" type="curve" smooth="yes"/>
      <point x="267" y="498"/>
      <point x="309.5" y="485"/>
      <point x="310.5" y="456" type="curve" smooth="yes"/>
      <point x="313.5" y="411"/>
      <point x="309.5" y="316"/>
      <point x="310.5" y="304" type="curve" smooth="yes"/>
      <point x="311.5" y="290"/>
      <point x="311.5" y="171"/>
      <point x="309.5" y="139" type="curve" smooth="yes"/>
      <point x="308.5" y="116"/>
      <point x="269" y="102"/>
      <point x="250" y="102" type="curve" smooth="yes"/>
      <point x="230" y="102"/>
      <point x="190.5" y="119"/>
      <point x="189.5" y="154" type="curve" smooth="yes"/>
      <point x="188.5" y="201"/>
      <point x="189.5" y="275"/>
      <point x="188.5" y="312" type="curve" smooth="yes"/>
      <point x="188.5" y="343"/>
      <point x="187.5" y="442"/>
      <point x="190.5" y="460" type="curve" smooth="yes"/>
      <point x="194.5" y="488"/>
      <point x="236" y="498"/>
    </contour>
  </outline>
</glyph>
<glyph name="comma" format="2">
  <advance width="500.0"/>
  <unicode hex="002C"/>
  <anchor x="250.0" y="63.33333333333333" name="center"/>
  <outline>
    <contour>
      <point x="327.3333333333333" y="64.33333333333333" type="curve" smooth="yes"/>
      <point x="333.3333333333333" y="0.666666666666667"/>
      <point x="325.5" y="-38.833333333333336"/>
      <point x="307.3333333333333" y="-75.66666666666667" type="curve" smooth="yes"/>
      <point x="282" y="-128.5"/>
      <point x="244.16666666666666" y="-157"/>
      <point x="149.66666666666666" y="-163.66666666666666" type="curve" smooth="yes"/>
      <point x="126.66666666666667" y="-164.66666666666666"/>
      <point x="113" y="-151.83333333333334"/>
      <point x="109.33333333333333" y="-138.83333333333334" type="curve" smooth="yes"/>
      <point x="100.16666666666667" y="-109.83333333333333"/>
      <point x="98" y="-91.83333333333333"/>
      <point x="118" y="-83.33333333333333" type="curve" smooth="yes"/>
      <point x="155.16666666666669" y="-68.33333333333334"/>
      <point x="215.66666666666666" y="-99.16666666666666"/>
      <point x="215.66666666666666" y="-9" type="curve"/>
      <point x="184.66666666666666" y="-9"/>
      <point x="169.66666666666666" y="17"/>
      <point x="169.66666666666666" y="67.33333333333333" type="curve" smooth="yes"/>
      <point x="169.66666666666666" y="125.66666666666666"/>
      <point x="194.66666666666666" y="141.66666666666666"/>
      <point x="247" y="141.66666666666666" type="curve" smooth="yes"/>
      <point x="305.3333333333333" y="141.66666666666666"/>
      <point x="321.3333333333333" y="122.33333333333333"/>
    </contour>
  </outline>
</glyph>
<glyph name="hyphen" format="2">
  <advance width="500.0"/>
  <unicode hex="002D"/>
  <outline>
    <contour>
      <point x="52" y="300" type="curve" smooth="yes"/>
      <point x="52" y="346"/>
      <point x="65" y="360.5"/>
      <point x="94" y="360.5" type="curve" smooth="yes"/>
      <point x="146" y="360.5"/>
      <point x="234" y="358.5"/>
      <point x="246" y="358.5" type="curve" smooth="yes"/>
      <point x="279" y="358.5"/>
      <point x="379" y="361.5"/>
      <point x="411" y="359.5" type="curve" smooth="yes"/>
      <point x="434" y="358.5"/>
      <point x="448" y="348"/>
      <point x="448" y="299" type="curve" smooth="yes"/>
      <point x="448" y="248"/>
      <point x="431" y="238.5"/>
      <point x="396" y="237.5" type="curve" smooth="yes"/>
      <point x="349" y="236.5"/>
      <point x="275" y="237.5"/>
      <point x="238" y="236.5" type="curve" smooth="yes"/>
      <point x="207" y="236.5"/>
      <point x="108" y="235.5"/>
      <point x="90" y="238.5" type="curve" smooth="yes"/>
      <point x="62" y="242.5"/>
      <point x="52" y="254"/>
    </contour>
  </outline>
</glyph>
<glyph name="period" format="2">
  <advance width="500.0"/>
  <unicode hex="002E"/>
  <anchor x="250.0" y="63.33333333333333" name="center"/>
  <outline>
    <contour>
      <point x="328.3333333333333" y="63.33333333333333" type="curve" smooth="yes"/>
      <point x="328.3333333333333" y="-6"/>
      <point x="308.3333333333333" y="-15"/>
      <point x="250" y="-15" type="curve" smooth="yes"/>
      <point x="190.66666666666666" y="-15"/>
      <point x="171.66666666666666" y="-2"/>
      <point x="171.66666666666666" y="63.33333333333333" type="curve" smooth="yes"/>
      <point x="171.66666666666666" y="126.66666666666666"/>
      <point x="190.66666666666666" y="141.66666666666666"/>
      <point x="250" y="141.66666666666666" type="curve" smooth="yes"/>
      <point x="307.3333333333333" y="141.66666666666666"/>
      <point x="328.3333333333333" y="127.66666666666666"/>
    </contour>
  </outline>
</glyph>
<glyph name="slash" format="2">
  <advance width="500.0"/>
  <unicode hex="002F"/>
  <outline>
    <contour>
      <point x="440" y="648" type="curve" smooth="yes"/>
      <point x="475.3333333333333" y="628.5"/>
      <point x="476.3333333333333" y="614.3333333333334"/>
      <point x="470.5" y="600" type="curve" smooth="yes"/>
      <point x="419.1666666666667" y="493.1666666666667"/>
      <point x="411.5" y="484"/>
      <point x="311.5" y="299" type="curve" smooth="yes"/>
      <point x="213.5" y="119"/>
      <point x="224.5" y="135"/>
      <point x="150.5" y="-7" type="curve" smooth="yes"/>
      <point x="132.5" y="-41"/>
      <point x="117.83333333333333" y="-72.16666666666667"/>
      <point x="66" y="-48" type="curve" smooth="yes"/>
      <point x="21.5" y="-27.5"/>
      <point x="21.5" y="-3"/>
      <point x="37.5" y="25" type="curve" smooth="yes"/>
      <point x="40.5" y="30"/>
      <point x="89.5" y="126"/>
      <point x="190.5" y="312" type="curve" smooth="yes"/>
      <point x="311.5" y="534"/>
      <point x="324.1666666666667" y="556.3333333333334"/>
      <point x="356.5" y="626" type="curve" smooth="yes"/>
      <point x="383.8333333333333" y="680.6666666666666"/>
      <point x="405.6666666666667" y="664.8333333333334"/>
    </contour>
  </outline>
</glyph>
<glyph name="zero" format="2">
  <advance width="500.0"/>
  <unicode hex="0030"/>
  <anchor x="250.0" y="0.0" name="bottom"/>
  <anchor x="250.0" y="600.0" name="top"/>
  <outline>
    <contour>
      <point x="250.0" y="615.0" type="curve" smooth="yes"/>
      <point x="340.0" y="615.0"/>
      <point x="383.1666666666667" y="583.0"/>
      <point x="415.1666666666667" y="511.0" type="curve" smooth="yes"/>
      <point x="437.1666666666667" y="464.0"/>
      <point x="453.1666666666667" y="400.0"/>
      <point x="453.1666666666667" y="301.0" type="curve" smooth="yes"/>
      <point x="453.1666666666667" y="207.0"/>
      <point x="446.1666666666667" y="138.0"/>
      <point x="423.1666666666667" y="90.0" type="curve" smooth="yes"/>
      <point x="387.1666666666667" y="14.0"/>
      <point x="334.0" y="-16.0"/>
      <point x="251.0" y="-16.0" type="curve" smooth="yes"/>
      <point x="174.0" y="-16.0"/>
      <point x="139.83333333333334" y="9.0"/>
      <point x="99.83333333333333" y="58.0" type="curve" smooth="yes"/>
      <point x="59.833333333333336" y="107.0"/>
      <point x="46.833333333333336" y="190.0"/>
      <point x="46.833333333333336" y="301.0" type="curve" smooth="yes"/>
      <point x="46.833333333333336" y="418.0"/>
      <point x="66.83333333333333" y="495.0"/>
      <point x="107.83333333333333" y="544.0" type="curve" smooth="yes"/>
      <point x="144.83333333333334" y="589.0"/>
      <point x="177.0" y="615.0"/>
    </contour>
    <contour>
      <point x="250" y="493" type="curve" smooth="yes"/>
      <point x="225" y="493"/>
      <point x="197" y="470"/>
      <point x="179" y="441" type="curve" smooth="yes"/>
      <point x="164" y="415"/>
      <point x="156" y="362"/>
      <point x="156" y="303" type="curve" smooth="yes"/>
      <point x="156" y="247"/>
      <point x="160" y="191"/>
      <point x="176" y="166" type="curve" smooth="yes"/>
      <point x="189" y="146"/>
      <point x="215" y="114"/>
      <point x="251" y="114" type="curve" smooth="yes"/>
      <point x="289" y="114"/>
      <point x="311" y="138"/>
      <point x="328" y="175" type="curve" smooth="yes"/>
      <point x="340" y="206"/>
      <point x="344" y="251"/>
      <point x="344" y="303" type="curve" smooth="yes"/>
      <point x="344" y="360"/>
      <point x="337" y="406"/>
      <point x="326" y="431" type="curve" smooth="yes"/>
      <point x="311" y="463"/>
      <point x="283" y="493"/>
    </contour>
    <contour>
      <point x="151" y="211" type="line"/>
      <point x="306" y="477" type="line"/>
      <point x="348" y="391" type="line"/>
      <point x="196" y="131" type="line"/>
    </contour>
  </outline>
</glyph>
<glyph name="one" format="2">
  <advance width="500.0"/>
  <unicode hex="0031"/>
  <anchor x="276" y="0" name="bottom"/>
  <anchor x="276" y="600" name="top"/>
  <outline>
    <contour>
      <point x="203" y="414" type="curve"/>
      <point x="190" y="404"/>
      <point x="187" y="402"/>
      <point x="168" y="386.83333333333337" type="curve" smooth="yes"/>
      <point x="143" y="367.83333333333337"/>
      <point x="140" y="362.83333333333337"/>
      <point x="127" y="354.83333333333337" type="curve" smooth="yes"/>
      <point x="100" y="336.83333333333337"/>
      <point x="82.33333333333333" y="373.8333333333333"/>
      <point x="76.83333333333333" y="376" type="curve" smooth="yes"/>
      <point x="34" y="417.1666666666667"/>
      <point x="44" y="431.5"/>
      <point x="88" y="468" type="curve" smooth="yes"/>
      <point x="128" y="501"/>
      <point x="131" y="504"/>
      <point x="140" y="512" type="curve" smooth="yes"/>
      <point x="165" y="534"/>
      <point x="217" y="576"/>
      <point x="236" y="598" type="curve" smooth="yes"/>
      <point x="252" y="615"/>
      <point x="303" y="612"/>
      <point x="313.5" y="597" type="curve" smooth="yes"/>
      <point x="322" y="585"/>
      <point x="319.5" y="554.9803501972127"/>
      <point x="319.5" y="538" type="curve" smooth="yes"/>
      <point x="318.5" y="469"/>
      <point x="319.5" y="496"/>
      <point x="319.5" y="325" type="curve" smooth="yes"/>
      <point x="319.5" y="245"/>
      <point x="320.5" y="210.83333333333331"/>
      <point x="321" y="111" type="curve"/>
      <point x="202" y="112" type="line"/>
      <point x="201.5" y="137.83333333333331"/>
      <point x="201.5" y="265"/>
      <point x="202.5" y="304" type="curve" smooth="yes"/>
      <point x="203.5779763613496" y="267.34880371411333"/>
      <point x="203" y="377.3329545474111"/>
    </contour>
    <contour>
      <point x="61" y="46.33333333333333" type="curve" smooth="yes"/>
      <point x="61" y="103"/>
      <point x="79" y="124.16666666666666"/>
      <point x="107" y="127.16666666666666" type="curve" smooth="yes"/>
      <point x="129" y="129.16666666666666"/>
      <point x="175.5" y="127.16666666666666"/>
      <point x="215.5" y="129.16666666666666" type="curve" smooth="yes"/>
      <point x="252.5" y="131.16666666666666"/>
      <point x="352" y="129.16666666666666"/>
      <point x="400" y="128.16666666666666" type="curve" smooth="yes"/>
      <point x="432" y="127.16666666666666"/>
      <point x="449" y="101"/>
      <point x="449" y="49.33333333333333" type="curve" smooth="yes"/>
      <point x="449" y="30.333333333333332"/>
      <point x="437" y="1"/>
      <point x="410" y="0" type="curve" smooth="yes"/>
      <point x="356" y="-2"/>
      <point x="294" y="1"/>
      <point x="240" y="0" type="curve" smooth="yes"/>
      <point x="217" y="0"/>
      <point x="153" y="-2"/>
      <point x="101" y="0" type="curve" smooth="yes"/>
      <point x="69" y="1"/>
      <point x="61" y="27.333333333333332"/>
    </contour>
  </outline>
</glyph>
<glyph name="two" format="2">
  <advance width="500.0"/>
  <unicode hex="0032"/>
  <anchor x="250.0" y="0.0" name="bottom"/>
  <anchor x="250.0" y="600.0" name="top"/>
  <outline>
    <contour>
      <point x="52" y="46.33333333333333" type="curve" smooth="yes"/>
      <point x="52" y="174"/>
      <point x="180.66666666666666" y="259"/>
      <point x="227.66666666666666" y="305" type="curve" smooth="yes"/>
      <point x="294.6666666666667" y="371"/>
      <point x="333.5" y="393.8333333333333"/>
      <point x="317" y="458" type="curve" smooth="yes"/>
      <point x="310" y="482.6666666666667"/>
      <point x="301.3333333333333" y="485.83333333333337"/>
      <point x="245" y="485.83333333333337" type="curve" smooth="yes"/>
      <point x="205" y="485.83333333333337"/>
      <point x="145" y="453.6666666666667"/>
      <point x="119" y="427.6666666666667" type="curve" smooth="yes"/>
      <point x="103" y="411.6666666666667"/>
      <point x="78" y="425"/>
      <point x="67" y="436" type="curve" smooth="yes"/>
      <point x="19.333333333333336" y="483.6666666666667"/>
      <point x="40.66666666666667" y="507.6666666666667"/>
      <point x="70" y="537" type="curve" smooth="yes"/>
      <point x="101" y="568"/>
      <point x="164" y="611"/>
      <point x="242" y="611" type="curve" smooth="yes"/>
      <point x="331" y="611"/>
      <point x="443.3333333333333" y="568"/>
      <point x="449.3333333333333" y="458" type="curve" smooth="yes"/>
      <point x="455.3333333333333" y="329.3333333333333"/>
      <point x="382" y="274.6666666666667"/>
      <point x="335" y="228.66666666666666" type="curve" smooth="yes"/>
      <point x="267" y="164"/>
      <point x="238" y="155"/>
      <point x="224" y="129" type="curve"/>
      <point x="227.3331834890603" y="129"/>
      <point x="230.67059658477933" y="128.98169981026552"/>
      <point x="234" y="129.16666666666666" type="curve" smooth="yes"/>
      <point x="271" y="131.16666666666666"/>
      <point x="353" y="129.16666666666666"/>
      <point x="401" y="128.16666666666666" type="curve" smooth="yes"/>
      <point x="433" y="127.16666666666666"/>
      <point x="450" y="101"/>
      <point x="450" y="49.33333333333333" type="curve" smooth="yes"/>
      <point x="450" y="12"/>
      <point x="438" y="1"/>
      <point x="411" y="0" type="curve" smooth="yes"/>
      <point x="357" y="-2"/>
      <point x="285" y="1"/>
      <point x="231" y="0" type="curve" smooth="yes"/>
      <point x="208" y="0"/>
      <point x="144" y="-2"/>
      <point x="92" y="0" type="curve" smooth="yes"/>
      <point x="65.004164972191" y="0.8436198446190311"/>
      <point x="52" y="21"/>
    </contour>
  </outline>
</glyph>
<glyph name="three" format="2">
  <advance width="500.0"/>
  <unicode hex="0033"/>
  <anchor x="250.0" y="0.0" name="bottom"/>
  <anchor x="250.0" y="600.0" name="top"/>
  <outline>
    <contour>
      <point x="302" y="262" type="curve"/>
      <point x="395" y="317" type="line"/>
      <point x="421" y="303"/>
      <point x="470" y="232"/>
      <point x="459" y="149" type="curve" smooth="yes"/>
      <point x="440" y="7"/>
      <point x="322" y="-12"/>
      <point x="241" y="-10" type="curve" smooth="yes"/>
      <point x="140" y="-8"/>
      <point x="104" y="16"/>
      <point x="56" y="59" type="curve" smooth="yes"/>
      <point x="42" y="71"/>
      <point x="0" y="99"/>
      <point x="35" y="141" type="curve" smooth="yes"/>
      <point x="66" y="188"/>
      <point x="85" y="182"/>
      <point x="103" y="163" type="curve" smooth="yes"/>
      <point x="131" y="135"/>
      <point x="184" y="100"/>
      <point x="249.33333333333334" y="107.33333333333333" type="curve" smooth="yes"/>
      <point x="312" y="114"/>
      <point x="326" y="127.83333333333333"/>
      <point x="342.5" y="169.33333333333334" type="curve" smooth="yes"/>
      <point x="363.3333333333333" y="229.5"/>
      <point x="306.1666666666667" y="254"/>
    </contour>
    <contour>
      <point x="287.3333333333333" y="241.66666666666666" type="curve" smooth="yes"/>
      <point x="266.3333333333333" y="235.66666666666666"/>
      <point x="226.66666666666666" y="232.33333333333334"/>
      <point x="207" y="294.5" type="curve" smooth="yes"/>
      <point x="195.5" y="331.8333333333333"/>
      <point x="230" y="350.8333333333333"/>
      <point x="244" y="355.6666666666667" type="curve" smooth="yes"/>
      <point x="321.3333333333333" y="381.3333333333333"/>
      <point x="348" y="408"/>
      <point x="338.1666666666667" y="456.3333333333333" type="curve" smooth="yes"/>
      <point x="332" y="488"/>
      <point x="285" y="493"/>
      <point x="247" y="493" type="curve" smooth="yes"/>
      <point x="207" y="493"/>
      <point x="146" y="462.83333333333337"/>
      <point x="120" y="436.83333333333337" type="curve" smooth="yes"/>
      <point x="104" y="420.83333333333337"/>
      <point x="97.33333333333333" y="415.83333333333337"/>
      <point x="68" y="445.1666666666667" type="curve" smooth="yes"/>
      <point x="20.333333333333336" y="492.8333333333333"/>
      <point x="60" y="526"/>
      <point x="71" y="537" type="curve" smooth="yes"/>
      <point x="102" y="568"/>
      <point x="165" y="611"/>
      <point x="243" y="611" type="curve" smooth="yes"/>
      <point x="332" y="611"/>
      <point x="444.3333333333333" y="570"/>
      <point x="450.3333333333333" y="460" type="curve" smooth="yes"/>
      <point x="459.3333333333333" y="355"/>
      <point x="415.3333333333333" y="273.6666666666667"/>
    </contour>
  </outline>
</glyph>
<glyph name="four" format="2">
  <advance width="500.0"/>
  <unicode hex="0034"/>
  <anchor x="271.0" y="0.0" name="bottom"/>
  <anchor x="271.0" y="600.0" name="top"/>
  <outline>
    <contour>
      <point x="365" y="610" type="line"/>
      <point x="371" y="610"/>
      <point x="400.1666666666667" y="602"/>
      <point x="400.1666666666667" y="569" type="curve" smooth="yes"/>
      <point x="399.1666666666667" y="469"/>
      <point x="400.1666666666667" y="496"/>
      <point x="400.1666666666667" y="325" type="curve" smooth="yes"/>
      <point x="400.1666666666667" y="245"/>
      <point x="401.1666666666667" y="134"/>
      <point x="401.1666666666667" y="54" type="curve" smooth="yes"/>
      <point x="401.1666666666667" y="16"/>
      <point x="408.3333333333333" y="-9"/>
      <point x="352.6666666666667" y="-9" type="curve" smooth="yes"/>
      <point x="274" y="-9"/>
      <point x="288.3333333333333" y="23"/>
      <point x="289.3333333333333" y="55" type="curve" smooth="yes"/>
      <point x="289.3333333333333" y="61"/>
      <point x="289.3333333333333" y="263.3333333333333"/>
      <point x="290.3333333333333" y="302.3333333333333" type="curve" smooth="yes"/>
      <point x="290.3333333333333" y="279.3333333333333"/>
      <point x="290.3333333333333" y="530"/>
      <point x="290.3333333333333" y="564" type="curve"/>
    </contour>
    <contour>
      <point x="36" y="248" type="curve" smooth="yes"/>
      <point x="36" y="268"/>
      <point x="54" y="298.3333333333333"/>
      <point x="82" y="301.3333333333333" type="curve" smooth="yes"/>
      <point x="104" y="303.3333333333333"/>
      <point x="178" y="301.3333333333333"/>
      <point x="218" y="303.3333333333333" type="curve" smooth="yes"/>
      <point x="255" y="305.3333333333333"/>
      <point x="367" y="303.3333333333333"/>
      <point x="415" y="302.3333333333333" type="curve" smooth="yes"/>
      <point x="447" y="301.3333333333333"/>
      <point x="464" y="284.3333333333333"/>
      <point x="464" y="251" type="curve" smooth="yes"/>
      <point x="464" y="213.66666666666666"/>
      <point x="452" y="184.33333333333334"/>
      <point x="425" y="183.33333333333334" type="curve" smooth="yes"/>
      <point x="371" y="181.33333333333334"/>
      <point x="269" y="184.33333333333334"/>
      <point x="215" y="183.33333333333334" type="curve" smooth="yes"/>
      <point x="192" y="183.33333333333334"/>
      <point x="128" y="181.33333333333334"/>
      <point x="76" y="183.33333333333334" type="curve" smooth="yes"/>
      <point x="44" y="184.33333333333334"/>
      <point x="36" y="229"/>
    </contour>
    <contour>
      <point x="152.83333333333331" y="247" type="curve"/>
      <point x="36" y="248" type="line"/>
      <point x="36" y="304"/>
      <point x="87" y="342"/>
      <point x="181" y="454" type="curve" smooth="yes"/>
      <point x="247" y="533"/>
      <point x="317" y="610"/>
      <point x="365" y="610" type="curve"/>
      <point x="366" y="485.6666666666667" type="line"/>
      <point x="308.6666666666667" y="444.6666666666667"/>
      <point x="283" y="411"/>
      <point x="252.16666666666666" y="375" type="curve" smooth="yes"/>
      <point x="215.33333333333331" y="333"/>
      <point x="170.33333333333331" y="295.1666666666667"/>
    </contour>
  </outline>
</glyph>
<glyph name="five" format="2">
  <advance width="500.0"/>
  <unicode hex="0035"/>
  <anchor x="250.0" y="0.0" name="bottom"/>
  <anchor x="250.0" y="600.0" name="top"/>
  <outline>
    <contour>
      <point x="54.66666666666667" y="574" type="curve" smooth="yes"/>
      <point x="54.66666666666667" y="593"/>
      <point x="81" y="601"/>
      <point x="113" y="602" type="curve" smooth="yes"/>
      <point x="165" y="604"/>
      <point x="219" y="602"/>
      <point x="242" y="602" type="curve" smooth="yes"/>
      <point x="296" y="601"/>
      <point x="334" y="604"/>
      <point x="388" y="602" type="curve" smooth="yes"/>
      <point x="415" y="601"/>
      <point x="427" y="599.1666666666666"/>
      <point x="427" y="543.5" type="curve" smooth="yes"/>
      <point x="427" y="510.1666666666667"/>
      <point x="410" y="493.1666666666667"/>
      <point x="378" y="492.1666666666667" type="curve" smooth="yes"/>
      <point x="330" y="491.1666666666667"/>
      <point x="282" y="489.1666666666667"/>
      <point x="245" y="491.1666666666667" type="curve" smooth="yes"/>
      <point x="205" y="493.1666666666667"/>
      <point x="168.5" y="491.1666666666667"/>
      <point x="146.5" y="493.1666666666667" type="curve" smooth="yes"/>
      <point x="118.5" y="496.1666666666667"/>
      <point x="54.66666666666667" y="554"/>
    </contour>
    <contour>
      <point x="336.5" y="189" type="curve" smooth="yes"/>
      <point x="336.5" y="251.34956957683713"/>
      <point x="315.90989400381017" y="296"/>
      <point x="247" y="296" type="curve" smooth="yes"/>
      <point x="203" y="296"/>
      <point x="153" y="260"/>
      <point x="108" y="259" type="curve"/>
      <point x="109" y="366" type="line"/>
      <point x="144.5" y="392"/>
      <point x="207" y="413.3333333333333"/>
      <point x="246" y="413.3333333333333" type="curve" smooth="yes"/>
      <point x="393.11843221365905" y="413.3333333333333"/>
      <point x="457" y="320.1565469734466"/>
      <point x="457" y="184" type="curve" smooth="yes"/>
      <point x="457" y="38"/>
      <point x="332" y="-8"/>
      <point x="222" y="-8" type="curve" smooth="yes"/>
      <point x="150" y="-8"/>
      <point x="112" y="11"/>
      <point x="48" y="63" type="curve" smooth="yes"/>
      <point x="17" y="89"/>
      <point x="12" y="115"/>
      <point x="40" y="150" type="curve" smooth="yes"/>
      <point x="71" y="187"/>
      <point x="87" y="172"/>
      <point x="108" y="157" type="curve" smooth="yes"/>
      <point x="140" y="134"/>
      <point x="194" y="117"/>
      <point x="230" y="117" type="curve" smooth="yes"/>
      <point x="317" y="117"/>
      <point x="336.5" y="176.33333333333331"/>
    </contour>
    <contour>
      <point x="54.66666666666667" y="574" type="curve"/>
      <point x="161.5" y="505.1666666666667" type="line"/>
      <point x="164.5" y="490.1666666666667"/>
      <point x="162.5" y="485.1666666666667"/>
      <point x="165.5" y="454.1666666666667" type="curve" smooth="yes"/>
      <point x="167.5" y="417.1666666666667"/>
      <point x="162.5" y="413"/>
      <point x="165.5" y="366" type="curve" smooth="yes"/>
      <point x="166.5" y="333"/>
      <point x="124" y="260"/>
      <point x="108" y="259" type="curve" smooth="yes"/>
      <point x="89" y="258"/>
      <point x="53.66666666666667" y="272"/>
      <point x="55.66666666666667" y="296" type="curve" smooth="yes"/>
      <point x="58.66666666666667" y="325"/>
      <point x="55.66666666666667" y="456"/>
      <point x="55.66666666666667" y="490" type="curve" smooth="yes"/>
      <point x="55.66666666666667" y="502"/>
      <point x="56.66666666666667" y="522"/>
    </contour>
  </outline>
</glyph>
<glyph name="six" format="2">
  <advance width="500.0"/>
  <unicode hex="0036"/>
  <anchor x="250.0" y="0.0" name="bottom"/>
  <anchor x="270.0" y="600.0" name="top"/>
  <outline>
    <contour>
      <point x="169" y="240" type="curve" smooth="yes"/>
      <point x="139" y="380"/>
      <point x="180" y="428"/>
      <point x="223" y="461" type="curve" smooth="yes"/>
      <point x="270" y="496"/>
      <point x="310" y="491"/>
      <point x="373" y="480" type="curve" smooth="yes"/>
      <point x="402" y="474"/>
      <point x="426" y="481"/>
      <point x="439" y="536" type="curve" smooth="yes"/>
      <point x="449" y="580"/>
      <point x="411" y="604"/>
      <point x="368" y="612" type="curve" smooth="yes"/>
      <point x="295" y="623"/>
      <point x="250" y="613"/>
      <point x="194" y="589" type="curve" smooth="yes"/>
      <point x="89" y="544"/>
      <point x="19.5" y="451.1666666666667"/>
      <point x="35.0" y="275.6666666666667" type="curve" smooth="yes"/>
      <point x="43.66666666666667" y="172.83333333333331"/>
      <point x="52.16666666666667" y="95.83333333333333"/>
      <point x="95.5" y="47.83333333333333" type="curve" smooth="yes"/>
      <point x="168.5" y="-28.83333333333333"/>
      <point x="218.0" y="-13.0"/>
      <point x="251.0" y="-13.0" type="curve" smooth="yes"/>
      <point x="394.6666666666667" y="-13.0"/>
      <point x="465.3333333333333" y="105.0"/>
      <point x="465.3333333333333" y="204.0" type="curve" smooth="yes"/>
      <point x="465.3333333333333" y="277.0"/>
      <point x="465" y="362"/>
      <point x="329" y="394" type="curve" smooth="yes"/>
      <point x="238" y="415"/>
      <point x="159" y="357"/>
      <point x="127.66666666666666" y="278.0" type="curve"/>
      <point x="176" y="158" type="line"/>
      <point x="177" y="259"/>
      <point x="257" y="279"/>
      <point x="283" y="275" type="curve" smooth="yes"/>
      <point x="327" y="267"/>
      <point x="345" y="259"/>
      <point x="345" y="201" type="curve" smooth="yes"/>
      <point x="346" y="139"/>
      <point x="279" y="116"/>
      <point x="245" y="115" type="curve" smooth="yes"/>
      <point x="172" y="114"/>
      <point x="183" y="176"/>
    </contour>
  </outline>
</glyph>
<glyph name="seven" format="2">
  <advance width="500.0"/>
  <unicode hex="0037"/>
  <anchor x="243.0" y="0.0" name="bottom"/>
  <anchor x="243.0" y="600.0" name="top"/>
  <outline>
    <contour>
      <point x="312.6666666666667" y="514" type="curve"/>
      <point x="450" y="566" type="line"/>
      <point x="445" y="498"/>
      <point x="392.3333333333333" y="375"/>
      <point x="342.3333333333333" y="285" type="curve" smooth="yes"/>
      <point x="293.3333333333333" y="197"/>
      <point x="275.6666666666667" y="120"/>
      <point x="267.6666666666667" y="37" type="curve" smooth="yes"/>
      <point x="263.6666666666667" y="12"/>
      <point x="243" y="-14"/>
      <point x="193" y="-14.166666666666666" type="curve" smooth="yes"/>
      <point x="121" y="-14"/>
      <point x="124.33333333333334" y="18"/>
      <point x="126.33333333333334" y="34" type="curve" smooth="yes"/>
      <point x="141.33333333333334" y="179"/>
      <point x="206.33333333333334" y="270"/>
      <point x="252.33333333333334" y="356" type="curve" smooth="yes"/>
      <point x="291.3333333333333" y="429"/>
      <point x="291.6666666666667" y="440"/>
    </contour>
    <contour>
      <point x="450" y="566" type="curve" smooth="yes"/>
      <point x="448" y="546"/>
      <point x="392.3333333333333" y="481"/>
      <point x="364.3333333333333" y="480" type="curve" smooth="yes"/>
      <point x="342.3333333333333" y="479"/>
      <point x="271" y="474"/>
      <point x="231.33333333333334" y="474" type="curve" smooth="yes"/>
      <point x="208" y="474"/>
      <point x="200" y="474"/>
      <point x="156" y="480" type="curve" smooth="yes"/>
      <point x="124" y="484"/>
      <point x="53" y="553"/>
      <point x="52" y="568" type="curve" smooth="yes"/>
      <point x="50" y="592"/>
      <point x="64" y="602"/>
      <point x="91" y="599" type="curve" smooth="yes"/>
      <point x="143" y="594"/>
      <point x="217" y="591"/>
      <point x="271" y="594" type="curve" smooth="yes"/>
      <point x="321" y="597"/>
      <point x="360" y="602"/>
      <point x="412" y="597" type="curve" smooth="yes"/>
      <point x="447" y="594"/>
      <point x="451" y="585"/>
    </contour>
    <contour>
      <point x="113.66666666666666" y="409" type="curve" smooth="yes"/>
      <point x="64" y="409"/>
      <point x="48" y="420"/>
      <point x="50" y="450" type="curve" smooth="yes"/>
      <point x="52" y="484"/>
      <point x="57" y="513"/>
      <point x="52" y="568" type="curve"/>
      <point x="167" y="497" type="line"/>
      <point x="166" y="478"/>
      <point x="166" y="462"/>
      <point x="162" y="436" type="curve" smooth="yes"/>
      <point x="158" y="412"/>
      <point x="131.66666666666666" y="409.8333333333333"/>
    </contour>
  </outline>
</glyph>
<glyph name="eight" format="2">
  <advance width="500.0"/>
  <unicode hex="0038"/>
  <anchor x="250.0" y="0.0" name="bottom"/>
  <anchor x="250.0" y="600.0" name="top"/>
  <outline>
    <contour>
      <point x="254.0" y="612.0" type="curve" smooth="yes"/>
      <point x="287.0" y="612.0"/>
      <point x="342.0" y="607.0"/>
      <point x="384.0" y="576.0" type="curve" smooth="yes"/>
      <point x="411.0" y="556.0"/>
      <point x="429.0" y="525.0"/>
      <point x="429.0" y="449.3333333333333" type="curve" smooth="yes"/>
      <point x="429.0" y="417.0"/>
      <point x="412.0" y="328.5"/>
      <point x="308.0" y="291.5" type="curve"/>
      <point x="264" y="393" type="line"/>
      <point x="321" y="393"/>
      <point x="319" y="443"/>
      <point x="319" y="448" type="curve" smooth="yes"/>
      <point x="319" y="476"/>
      <point x="301" y="503"/>
      <point x="260" y="503" type="curve" smooth="yes"/>
      <point x="205" y="503"/>
      <point x="196" y="475"/>
      <point x="196" y="451" type="curve" smooth="yes"/>
      <point x="196" y="426"/>
      <point x="202" y="393"/>
      <point x="264" y="393" type="curve" smooth="yes"/>
      <point x="321" y="393"/>
      <point x="369" y="355"/>
      <point x="407.0" y="326.0" type="curve" smooth="yes"/>
      <point x="453" y="291"/>
      <point x="460.0" y="241.0"/>
      <point x="460.0" y="189.0" type="curve" smooth="yes"/>
      <point x="460.0" y="129.0"/>
      <point x="445.0" y="84.0"/>
      <point x="415.0" y="51.0" type="curve" smooth="yes"/>
      <point x="381.0" y="13.0"/>
      <point x="322.0" y="-9.0"/>
      <point x="245.0" y="-9.0" type="curve" smooth="yes"/>
      <point x="162.0" y="-9.0"/>
      <point x="45.0" y="47.0"/>
      <point x="45.0" y="174.0" type="curve" smooth="yes"/>
      <point x="45.0" y="240.0"/>
      <point x="95.0" y="363.3333333333333"/>
      <point x="193.0" y="369.3333333333333" type="curve"/>
      <point x="252" y="264" type="line"/>
      <point x="190" y="264"/>
      <point x="160" y="232"/>
      <point x="160" y="193" type="curve" smooth="yes"/>
      <point x="160" y="170"/>
      <point x="166" y="154"/>
      <point x="177" y="145" type="curve" smooth="yes"/>
      <point x="192" y="131"/>
      <point x="217" y="120"/>
      <point x="248" y="120" type="curve" smooth="yes"/>
      <point x="301" y="120"/>
      <point x="316" y="126"/>
      <point x="329" y="139" type="curve" smooth="yes"/>
      <point x="344" y="154"/>
      <point x="348" y="174"/>
      <point x="348" y="201" type="curve" smooth="yes"/>
      <point x="348" y="244"/>
      <point x="293" y="264"/>
      <point x="252" y="264" type="curve" smooth="yes"/>
      <point x="183" y="264"/>
      <point x="84" y="349"/>
      <point x="84.0" y="454.0" type="curve" smooth="yes"/>
      <point x="84.0" y="563.0"/>
      <point x="167.0" y="612.0"/>
    </contour>
  </outline>
</glyph>
<glyph name="nine" format="2">
  <advance width="500.0"/>
  <unicode hex="0039"/>
  <anchor x="250.0" y="0.0" name="bottom"/>
  <anchor x="262.0" y="600.0" name="top"/>
  <outline>
    <contour>
      <point x="326.8333333333333" y="324.0" type="curve" smooth="yes"/>
      <point x="328.6666666666667" y="254.0"/>
      <point x="323.3333333333333" y="210.0"/>
      <point x="185.33333333333334" y="64.0" type="curve" smooth="yes"/>
      <point x="164.33333333333334" y="42.0"/>
      <point x="185.33333333333334" y="10.5"/>
      <point x="214.0" y="-4.0" type="curve" smooth="yes"/>
      <point x="261.0" y="-28.833333333333332"/>
      <point x="282.6666666666667" y="-11.0"/>
      <point x="313.6666666666667" y="20.0" type="curve" smooth="yes"/>
      <point x="413.6666666666667" y="123.0"/>
      <point x="441.0" y="219.0"/>
      <point x="441.0" y="329.0" type="curve" smooth="yes"/>
      <point x="441.0" y="432.0"/>
      <point x="434.3333333333333" y="497.0"/>
      <point x="399.3333333333333" y="555.0" type="curve" smooth="yes"/>
      <point x="386.3333333333333" y="577.0"/>
      <point x="379.0" y="598.5"/>
      <point x="290.0" y="609.0" type="curve" smooth="yes"/>
      <point x="184.0" y="621.3333333333334"/>
      <point x="91.66666666666667" y="607.3333333333334"/>
      <point x="43.66666666666667" y="426.0" type="curve" smooth="yes"/>
      <point x="24.333333333333336" y="355.8333333333333"/>
      <point x="65.0" y="224.0"/>
      <point x="206.0" y="215.0" type="curve" smooth="yes"/>
      <point x="241.0" y="213.0"/>
      <point x="374.0" y="213.0"/>
      <point x="401.0" y="346.0" type="curve"/>
      <point x="328" y="405" type="line"/>
      <point x="327" y="314"/>
      <point x="257.8333333333333" y="324.0"/>
      <point x="218.83333333333334" y="324.0" type="curve" smooth="yes"/>
      <point x="156.33333333333331" y="322.1666666666667"/>
      <point x="135" y="380"/>
      <point x="153" y="422" type="curve" smooth="yes"/>
      <point x="178" y="479"/>
      <point x="193" y="509"/>
      <point x="268.0" y="507.6666666666667" type="curve" smooth="yes"/>
      <point x="346" y="506"/>
      <point x="323.1666666666667" y="402.6666666666667"/>
    </contour>
  </outline>
</glyph>
<glyph name="less" format="2">
  <advance width="500.0"/>
  <unicode hex="003C"/>
  <outline>
    <contour>
      <point x="161" y="300" type="curve"/>
      <point x="190" y="294"/>
      <point x="208" y="280"/>
      <point x="223" y="268" type="curve" smooth="yes"/>
      <point x="261" y="242"/>
      <point x="302" y="212"/>
      <point x="315" y="202" type="curve" smooth="yes"/>
      <point x="342" y="180"/>
      <point x="436" y="114"/>
      <point x="465" y="91" type="curve" smooth="yes"/>
      <point x="492" y="70"/>
      <point x="475" y="54"/>
      <point x="448" y="19" type="curve" smooth="yes"/>
      <point x="437" y="4"/>
      <point x="417" y="-15.333333333333332"/>
      <point x="399" y="-2.333333333333332" type="curve" smooth="yes"/>
      <point x="373" y="14.666666666666668"/>
      <point x="252" y="105.66666666666667"/>
      <point x="226" y="126.66666666666667" type="curve" smooth="yes"/>
      <point x="218" y="132.66666666666666"/>
      <point x="102" y="212.66666666666666"/>
      <point x="61" y="242.66666666666666" type="curve" smooth="yes"/>
      <point x="43.806130727132164" y="255.43819173177084"/>
      <point x="39" y="288"/>
      <point x="39" y="300" type="curve" smooth="yes"/>
      <point x="39" y="312"/>
      <point x="43.806130727132164" y="344.5618082682292"/>
      <point x="61" y="357.3333333333333" type="curve" smooth="yes"/>
      <point x="102" y="387.3333333333333"/>
      <point x="218" y="467.3333333333333"/>
      <point x="226" y="473.3333333333333" type="curve" smooth="yes"/>
      <point x="252" y="494.3333333333333"/>
      <point x="373" y="585.3333333333334"/>
      <point x="399" y="602.3333333333334" type="curve" smooth="yes"/>
      <point x="417" y="615.3333333333334"/>
      <point x="438" y="594"/>
      <point x="448" y="581" type="curve" smooth="yes"/>
      <point x="469" y="554"/>
      <point x="497" y="534"/>
      <point x="463" y="507" type="curve" smooth="yes"/>
      <point x="431" y="481"/>
      <point x="342" y="421"/>
      <point x="315" y="399" type="curve" smooth="yes"/>
      <point x="302" y="389"/>
      <point x="261" y="360"/>
      <point x="224" y="333" type="curve" smooth="yes"/>
      <point x="208" y="322"/>
      <point x="190" y="306"/>
    </contour>
  </outline>
</glyph>
<glyph name="equal" format="2">
  <advance width="500.0"/>
  <unicode hex="003D"/>
  <outline>
    <contour>
      <point x="32" y="400" type="curve" smooth="yes"/>
      <point x="32" y="456"/>
      <point x="45" y="461.5"/>
      <point x="74" y="461.5" type="curve" smooth="yes"/>
      <point x="126" y="461.5"/>
      <point x="234" y="459.5"/>
      <point x="246" y="459.5" type="curve" smooth="yes"/>
      <point x="279" y="459.5"/>
      <point x="399" y="462.5"/>
      <point x="431" y="460.5" type="curve" smooth="yes"/>
      <point x="454" y="459.5"/>
      <point x="468" y="459"/>
      <point x="468" y="400" type="curve" smooth="yes"/>
      <point x="468" y="339"/>
      <point x="451" y="339.5"/>
      <point x="416" y="338.5" type="curve" smooth="yes"/>
      <point x="369" y="337.5"/>
      <point x="275" y="338.5"/>
      <point x="238" y="337.5" type="curve" smooth="yes"/>
      <point x="207" y="337.5"/>
      <point x="88" y="336.5"/>
      <point x="70" y="339.5" type="curve" smooth="yes"/>
      <point x="42" y="343.5"/>
      <point x="32" y="344"/>
    </contour>
    <contour>
      <point x="32" y="200" type="curve" smooth="yes"/>
      <point x="32" y="256"/>
      <point x="45" y="262.5"/>
      <point x="74" y="262.5" type="curve" smooth="yes"/>
      <point x="126" y="262.5"/>
      <point x="234" y="260.5"/>
      <point x="246" y="260.5" type="curve" smooth="yes"/>
      <point x="279" y="260.5"/>
      <point x="399" y="263.5"/>
      <point x="431" y="261.5" type="curve" smooth="yes"/>
      <point x="454" y="260.5"/>
      <point x="468" y="259"/>
      <point x="468" y="200" type="curve" smooth="yes"/>
      <point x="468" y="139"/>
      <point x="451" y="140.5"/>
      <point x="416" y="139.5" type="curve" smooth="yes"/>
      <point x="369" y="138.5"/>
      <point x="275" y="139.5"/>
      <point x="238" y="138.5" type="curve" smooth="yes"/>
      <point x="207" y="138.5"/>
      <point x="88" y="137.5"/>
      <point x="70" y="140.5" type="curve" smooth="yes"/>
      <point x="42" y="144.5"/>
      <point x="32" y="144"/>
    </contour>
  </outline>
</glyph>
<glyph name="question" format="2">
  <advance width="500.0"/>
  <unicode hex="003F"/>
  <outline>
    <contour>
      <point x="187.66666666666666" y="349.3333333333333" type="curve" smooth="yes"/>
      <point x="205.66666666666666" y="361.3333333333333"/>
      <point x="258" y="361.3333333333333"/>
      <point x="274" y="364.3333333333333" type="curve" smooth="yes"/>
      <point x="315" y="371.3333333333333"/>
      <point x="340" y="381"/>
      <point x="347" y="443" type="curve" smooth="yes"/>
      <point x="352" y="490"/>
      <point x="322" y="502"/>
      <point x="262" y="505" type="curve" smooth="yes"/>
      <point x="192" y="509"/>
      <point x="167.5" y="493.8333333333333"/>
      <point x="153.5" y="485.8333333333333" type="curve" smooth="yes"/>
      <point x="139.5" y="477.8333333333333"/>
      <point x="131.5" y="463.8333333333333"/>
      <point x="112.5" y="458.8333333333333" type="curve" smooth="yes"/>
      <point x="100.5" y="455.8333333333333"/>
      <point x="75" y="469"/>
      <point x="59.66666666666667" y="491.6666666666667" type="curve" smooth="yes"/>
      <point x="38" y="523"/>
      <point x="72" y="553"/>
      <point x="105" y="577" type="curve" smooth="yes"/>
      <point x="128" y="595"/>
      <point x="182" y="615.1666666666666"/>
      <point x="267" y="612" type="curve" smooth="yes"/>
      <point x="410.3333333333333" y="605"/>
      <point x="462.3333333333333" y="540.3333333333334"/>
      <point x="458.3333333333333" y="438" type="curve" smooth="yes"/>
      <point x="457" y="360"/>
      <point x="405.3333333333333" y="294.5"/>
      <point x="371.3333333333333" y="277.5" type="curve" smooth="yes"/>
      <point x="339.3333333333333" y="261.5"/>
      <point x="326.6666666666667" y="262.6666666666667"/>
      <point x="302.6666666666667" y="259.6666666666667" type="curve"/>
      <point x="304.6666666666667" y="239.66666666666666"/>
      <point x="304.6666666666667" y="246"/>
      <point x="304.6666666666667" y="231" type="curve" smooth="yes"/>
      <point x="302.6666666666667" y="183"/>
      <point x="288.3333333333333" y="182.33333333333334"/>
      <point x="243" y="181.33333333333334" type="curve" smooth="yes"/>
      <point x="191.66666666666666" y="181.16666666666666"/>
      <point x="191.66666666666666" y="205"/>
      <point x="187.66666666666666" y="229" type="curve" smooth="yes"/>
      <point x="184.66666666666666" y="246"/>
      <point x="177.66666666666666" y="299.3333333333333"/>
      <point x="177.66666666666666" y="299.3333333333333" type="curve" smooth="yes"/>
      <point x="174.66666666666666" y="333.3333333333333"/>
      <point x="178.66666666666666" y="342.3333333333333"/>
    </contour>
    <component base="period"/>
  </outline>
</glyph>
<glyph name="at" format="2">
  <advance width="500.0"/>
  <unicode hex="0040"/>
  <outline>
    <contour>
      <point x="323.8333333333333" y="123" type="curve" smooth="yes"/>
      <point x="262" y="179"/>
      <point x="277" y="294"/>
      <point x="277" y="368" type="curve"/>
      <point x="235" y="368"/>
      <point x="230" y="328"/>
      <point x="230" y="287" type="curve" smooth="yes"/>
      <point x="230" y="231"/>
      <point x="233" y="212"/>
      <point x="255" y="212" type="curve" smooth="yes"/>
      <point x="276" y="212"/>
      <point x="275" y="229"/>
      <point x="277" y="268" type="curve"/>
      <point x="356" y="199" type="line"/>
      <point x="331" y="118"/>
      <point x="263" y="108"/>
      <point x="230" y="111" type="curve" smooth="yes"/>
      <point x="196" y="114"/>
      <point x="151" y="144"/>
      <point x="151" y="281" type="curve" smooth="yes"/>
      <point x="151" y="362"/>
      <point x="177" y="440"/>
      <point x="222" y="460" type="curve" smooth="yes"/>
      <point x="262" y="478"/>
      <point x="303" y="471"/>
      <point x="320" y="460" type="curve" smooth="yes"/>
      <point x="337" y="449"/>
      <point x="346" y="435"/>
      <point x="348" y="409" type="curve" smooth="yes"/>
      <point x="351" y="369"/>
      <point x="346" y="342"/>
      <point x="349" y="294" type="curve" smooth="yes"/>
      <point x="353" y="223"/>
      <point x="351" y="212"/>
      <point x="364" y="212" type="curve" smooth="yes"/>
      <point x="381" y="212"/>
      <point x="374" y="222"/>
      <point x="371" y="278" type="curve" smooth="yes"/>
      <point x="365" y="399"/>
      <point x="393" y="514"/>
      <point x="273" y="515" type="curve" smooth="yes"/>
      <point x="158" y="516"/>
      <point x="122" y="401"/>
      <point x="117" y="302" type="curve" smooth="yes"/>
      <point x="113" y="216"/>
      <point x="123" y="160"/>
      <point x="147" y="122" type="curve" smooth="yes"/>
      <point x="195" y="46"/>
      <point x="304" y="95"/>
      <point x="308" y="95" type="curve" smooth="yes"/>
      <point x="325" y="98"/>
      <point x="345.0" y="94.0"/>
      <point x="345.0" y="39.33333333333333" type="curve" smooth="yes"/>
      <point x="345.8333333333333" y="-15.333333333333332"/>
      <point x="327.0" y="-9.0"/>
      <point x="316.0" y="-11.0" type="curve" smooth="yes"/>
      <point x="259.0" y="-19.0"/>
      <point x="135.0" y="-23.0"/>
      <point x="77.0" y="64.0" type="curve" smooth="yes"/>
      <point x="42.0" y="117.0"/>
      <point x="40.0" y="180.0"/>
      <point x="40.0" y="291.0" type="curve" smooth="yes"/>
      <point x="39.0" y="453.0"/>
      <point x="76.0" y="518.0"/>
      <point x="120.0" y="564.0" type="curve" smooth="yes"/>
      <point x="160.0" y="606.0"/>
      <point x="206.0" y="619.0"/>
      <point x="279.0" y="616.0" type="curve" smooth="yes"/>
      <point x="369.0" y="612.0"/>
      <point x="406.0" y="569.0"/>
      <point x="434.0" y="496.0" type="curve" smooth="yes"/>
      <point x="452.0" y="447.0"/>
      <point x="454.6666666666667" y="369.0"/>
      <point x="453.0" y="271.0" type="curve" smooth="yes"/>
      <point x="451.5" y="199.66666666666666"/>
      <point x="469.0" y="107.5"/>
      <point x="408.0" y="97.5" type="curve" smooth="yes"/>
      <point x="387.1666666666667" y="96.83333333333334"/>
      <point x="349" y="100"/>
    </contour>
  </outline>
</glyph>
<glyph name="A" format="2">
  <advance width="500.0"/>
  <unicode hex="0041"/>
  <anchor x="274.0" y="600.0" name="top"/>
  <anchor x="110" y="-8" name="cedilla"/>
  <anchor x="392" y="-8" name="ogonek"/>
  <anchor x="250.0" y="0.0" name="bottom"/>
  <outline>
    <contour>
      <point x="110" y="-8" type="curve" smooth="yes"/>
      <point x="58" y="-8"/>
      <point x="48" y="6"/>
      <point x="48.666666666666664" y="49" type="curve" smooth="yes"/>
      <point x="50" y="302"/>
      <point x="88.83333333333333" y="436"/>
      <point x="136.83333333333334" y="515" type="curve" smooth="yes"/>
      <point x="175.83333333333334" y="582"/>
      <point x="223" y="609"/>
      <point x="268.6666666666667" y="609" type="curve" smooth="yes"/>
      <point x="321" y="608"/>
      <point x="363.3333333333333" y="588"/>
      <point x="388.3333333333333" y="542" type="curve" smooth="yes"/>
      <point x="422.3333333333333" y="480"/>
      <point x="432.6666666666667" y="386"/>
      <point x="448.6666666666667" y="204" type="curve" smooth="yes"/>
      <point x="456.6666666666667" y="132"/>
      <point x="458.6666666666667" y="70"/>
      <point x="458.6666666666667" y="42" type="curve" smooth="yes"/>
      <point x="458.6666666666667" y="15"/>
      <point x="448" y="-8"/>
      <point x="392" y="-8" type="curve" smooth="yes"/>
      <point x="328" y="-8"/>
      <point x="321.1666666666667" y="18"/>
      <point x="322.1666666666667" y="43" type="curve" smooth="yes"/>
      <point x="322.33333333333337" y="96"/>
      <point x="332.6666666666667" y="198"/>
      <point x="318.6666666666667" y="331" type="curve" smooth="yes"/>
      <point x="311.5" y="413"/>
      <point x="315" y="464"/>
      <point x="269" y="465" type="curve" smooth="yes"/>
      <point x="220" y="465"/>
      <point x="204.5" y="413"/>
      <point x="194.66666666666666" y="331" type="curve" smooth="yes"/>
      <point x="185.83333333333331" y="250"/>
      <point x="182" y="166"/>
      <point x="184.16666666666666" y="33" type="curve" smooth="yes"/>
      <point x="183.33333333333331" y="13"/>
      <point x="173" y="-8"/>
    </contour>
    <contour>
      <point x="392.6666666666667" y="328.5" type="curve"/>
      <point x="393.6666666666667" y="216" type="line"/>
      <point x="300.6666666666667" y="216"/>
      <point x="170.66666666666666" y="204.5"/>
      <point x="109.66666666666667" y="216" type="curve"/>
      <point x="118.66666666666667" y="329.5" type="line"/>
      <point x="204.66666666666666" y="319"/>
      <point x="310.6666666666667" y="328.5"/>
    </contour>
  </outline>
</glyph>
<glyph name="B" format="2">
  <advance width="500.0"/>
  <unicode hex="0042"/>
  <anchor x="225.16666666666666" y="600.0" name="top"/>
  <anchor x="208" y="-12" name="cedilla"/>
  <anchor x="208" y="-12" name="ogonek"/>
  <anchor x="240" y="0" name="bottom"/>
  <outline>
    <contour>
      <point x="87.66666666666667" y="54" type="curve" smooth="yes"/>
      <point x="51" y="136"/>
      <point x="71" y="426"/>
      <point x="78" y="483" type="curve" smooth="yes"/>
      <point x="94" y="608"/>
      <point x="117" y="609"/>
      <point x="228.66666666666666" y="608" type="curve" smooth="yes"/>
      <point x="378" y="607"/>
      <point x="445.6666666666667" y="532"/>
      <point x="445.6666666666667" y="468" type="curve" smooth="yes"/>
      <point x="445.6666666666667" y="399"/>
      <point x="391.6666666666667" y="358"/>
      <point x="341.6666666666667" y="332" type="curve" smooth="yes"/>
      <point x="313.6666666666667" y="319"/>
      <point x="324" y="275"/>
      <point x="177" y="249" type="curve" smooth="yes"/>
      <point x="172" y="248"/>
      <point x="179" y="250"/>
      <point x="139" y="241" type="curve"/>
      <point x="156" y="388" type="line"/>
      <point x="316" y="368"/>
      <point x="323" y="433"/>
      <point x="323" y="455.3333333333333" type="curve" smooth="yes"/>
      <point x="323" y="480"/>
      <point x="291" y="488"/>
      <point x="268" y="490" type="curve" smooth="yes"/>
      <point x="206" y="495"/>
      <point x="209" y="478"/>
      <point x="204" y="428" type="curve" smooth="yes"/>
      <point x="195" y="332"/>
      <point x="182" y="196"/>
      <point x="198" y="155" type="curve" smooth="yes"/>
      <point x="206" y="134"/>
      <point x="220" y="128"/>
      <point x="259" y="128" type="curve" smooth="yes"/>
      <point x="285" y="128"/>
      <point x="338" y="142"/>
      <point x="337.6666666666667" y="185" type="curve" smooth="yes"/>
      <point x="337" y="238"/>
      <point x="324" y="275"/>
      <point x="177" y="249" type="curve"/>
      <point x="289" y="376" type="line"/>
      <point x="419" y="353"/>
      <point x="471" y="258"/>
      <point x="470.6666666666667" y="181" type="curve" smooth="yes"/>
      <point x="470.6666666666667" y="22"/>
      <point x="315" y="-15"/>
      <point x="208" y="-12" type="curve" smooth="yes"/>
      <point x="147" y="-10"/>
      <point x="111.35740373396315" y="0.21562395532689038"/>
    </contour>
  </outline>
</glyph>
<glyph name="C" format="2">
  <advance width="500.0"/>
  <unicode hex="0043"/>
  <anchor x="266.0" y="600.0" name="top"/>
  <anchor x="266" y="-11" name="cedilla"/>
  <anchor x="266" y="-11" name="ogonek"/>
  <anchor x="250" y="0" name="bottom"/>
  <outline>
    <contour>
      <point x="401.1666666666667" y="371.5" type="curve" smooth="yes"/>
      <point x="355" y="372"/>
      <point x="333.6666666666667" y="382"/>
      <point x="331.6666666666667" y="396" type="curve" smooth="yes"/>
      <point x="329.33333333333337" y="430.1666666666667"/>
      <point x="303.6666666666667" y="488"/>
      <point x="268.5" y="488" type="curve" smooth="yes"/>
      <point x="227.16666666666666" y="488"/>
      <point x="179.5" y="420.5"/>
      <point x="179.5" y="292.5" type="curve" smooth="yes"/>
      <point x="179.5" y="170.66666666666666"/>
      <point x="242.66666666666666" y="134.33333333333331"/>
      <point x="263" y="134.33333333333331" type="curve" smooth="yes"/>
      <point x="303.6666666666667" y="134.33333333333331"/>
      <point x="325.83333333333337" y="176"/>
      <point x="328.33333333333337" y="200.66666666666666" type="curve" smooth="yes"/>
      <point x="330.6666666666667" y="218.66666666666666"/>
      <point x="353.3333333333333" y="226.16666666666666"/>
      <point x="417.1666666666667" y="226.16666666666666" type="curve" smooth="yes"/>
      <point x="481" y="226.16666666666666"/>
      <point x="468" y="159"/>
      <point x="459" y="125" type="curve" smooth="yes"/>
      <point x="446" y="77"/>
      <point x="385" y="-11"/>
      <point x="266" y="-11" type="curve" smooth="yes"/>
      <point x="129" y="-11"/>
      <point x="47" y="78"/>
      <point x="47" y="282" type="curve" smooth="yes"/>
      <point x="47" y="436"/>
      <point x="82" y="611"/>
      <point x="265" y="611" type="curve" smooth="yes"/>
      <point x="448" y="611"/>
      <point x="464" y="478"/>
      <point x="464" y="459" type="curve" smooth="yes"/>
      <point x="464" y="437"/>
      <point x="469" y="372"/>
    </contour>
  </outline>
</glyph>
<glyph name="D" format="2">
  <advance width="500.0"/>
  <unicode hex="0044"/>
  <anchor x="187.33333333333334" y="600.0" name="top"/>
  <anchor x="164" y="-8" name="cedilla"/>
  <anchor x="164" y="-8" name="ogonek"/>
  <anchor x="180" y="0" name="bottom"/>
  <outline>
    <contour>
      <point x="81" y="2" type="curve" smooth="yes"/>
      <point x="58" y="10"/>
      <point x="50" y="31"/>
      <point x="52" y="71" type="curve" smooth="yes"/>
      <point x="53" y="111"/>
      <point x="56" y="226"/>
      <point x="53" y="342" type="curve" smooth="yes"/>
      <point x="53" y="394"/>
      <point x="51" y="484"/>
      <point x="49" y="530" type="curve" smooth="yes"/>
      <point x="45" y="575"/>
      <point x="57" y="588"/>
      <point x="70" y="594" type="curve" smooth="yes"/>
      <point x="85" y="601"/>
      <point x="119" y="609"/>
      <point x="179" y="609" type="curve" smooth="yes"/>
      <point x="372" y="609"/>
      <point x="458" y="447"/>
      <point x="458" y="313" type="curve" smooth="yes"/>
      <point x="459" y="133"/>
      <point x="345" y="-9"/>
      <point x="164" y="-8" type="curve" smooth="yes"/>
      <point x="136" y="-8"/>
      <point x="108" y="-7"/>
    </contour>
    <contour>
      <point x="188" y="139" type="curve" smooth="yes"/>
      <point x="188" y="134"/>
      <point x="204" y="133"/>
      <point x="209" y="133" type="curve" smooth="yes"/>
      <point x="279" y="131"/>
      <point x="327" y="234"/>
      <point x="327" y="311" type="curve" smooth="yes"/>
      <point x="327" y="387"/>
      <point x="284" y="476"/>
      <point x="216" y="475" type="curve" smooth="yes"/>
      <point x="206" y="475"/>
      <point x="196" y="474"/>
      <point x="186" y="471" type="curve" smooth="yes"/>
      <point x="184" y="470"/>
      <point x="180" y="469"/>
      <point x="180" y="467" type="curve" smooth="yes"/>
      <point x="185" y="436"/>
      <point x="186" y="409"/>
      <point x="188" y="285" type="curve" smooth="yes"/>
      <point x="189" y="211"/>
      <point x="189" y="160"/>
    </contour>
  </outline>
</glyph>
<glyph name="E" format="2">
  <advance width="500.0"/>
  <unicode hex="0045"/>
  <anchor x="250.0" y="600.0" name="top"/>
  <anchor x="250" y="3" name="cedilla"/>
  <anchor x="398" y="2" name="ogonek"/>
  <anchor x="250.0" y="0.0" name="bottom"/>
  <outline>
    <contour>
      <point x="77" y="600" type="curve" smooth="yes"/>
      <point x="101" y="606"/>
      <point x="199" y="599"/>
      <point x="281" y="598" type="curve" smooth="yes"/>
      <point x="407" y="597"/>
      <point x="413" y="600"/>
      <point x="435" y="597" type="curve" smooth="yes"/>
      <point x="459" y="593"/>
      <point x="463" y="542.3333333333334"/>
      <point x="465" y="535.3333333333334" type="curve" smooth="yes"/>
      <point x="470" y="515.3333333333334"/>
      <point x="452" y="463.6666666666667"/>
      <point x="424" y="462.6666666666667" type="curve" smooth="yes"/>
      <point x="315" y="456"/>
      <point x="279" y="462"/>
      <point x="175" y="462" type="curve"/>
      <point x="178" y="346"/>
      <point x="177" y="247"/>
      <point x="174" y="137" type="curve"/>
      <point x="261.8346652679221" y="137"/>
      <point x="349.14766718341184" y="144.64450597574614"/>
      <point x="437" y="139.5" type="curve" smooth="yes"/>
      <point x="465" y="138.5"/>
      <point x="483" y="89.66666666666666"/>
      <point x="478" y="64.66666666666666" type="curve" smooth="yes"/>
      <point x="476" y="57.666666666666664"/>
      <point x="472" y="6"/>
      <point x="448" y="3" type="curve" smooth="yes"/>
      <point x="427" y="-1"/>
      <point x="414" y="3"/>
      <point x="288" y="3" type="curve" smooth="yes"/>
      <point x="220" y="3"/>
      <point x="151" y="-2"/>
      <point x="83" y="-2" type="curve" smooth="yes"/>
      <point x="57" y="-2"/>
      <point x="50" y="33"/>
      <point x="50" y="71" type="curve" smooth="yes"/>
      <point x="50" y="113"/>
      <point x="51" y="228"/>
      <point x="51" y="345" type="curve" smooth="yes"/>
      <point x="51" y="524"/>
      <point x="49" y="527"/>
      <point x="52" y="558" type="curve" smooth="yes"/>
      <point x="54.16167973003596" y="574.2125979752697"/>
      <point x="59" y="595"/>
    </contour>
    <contour>
      <point x="334" y="339" type="curve" smooth="yes"/>
      <point x="336" y="315"/>
      <point x="322" y="264.3333333333333"/>
      <point x="297" y="263.3333333333333" type="curve" smooth="yes"/>
      <point x="231" y="256.3333333333333"/>
      <point x="207" y="265"/>
      <point x="137" y="264" type="curve"/>
      <point x="137" y="392" type="line"/>
      <point x="142" y="398"/>
      <point x="194" y="391"/>
      <point x="242" y="391" type="curve" smooth="yes"/>
      <point x="320" y="391"/>
      <point x="292" y="389.5"/>
      <point x="304" y="388.5" type="curve" smooth="yes"/>
      <point x="328" y="384.5"/>
      <point x="333" y="345"/>
    </contour>
  </outline>
</glyph>
<glyph name="F" format="2">
  <advance width="500.0"/>
  <unicode hex="0046"/>
  <anchor x="254" y="600" name="top"/>
  <anchor x="125" y="-8" name="cedilla"/>
  <anchor x="125" y="-8" name="ogonek"/>
  <anchor x="254" y="0" name="bottom"/>
  <outline>
    <contour>
      <point x="83" y="599" type="curve" smooth="yes"/>
      <point x="111" y="604"/>
      <point x="205" y="598"/>
      <point x="288" y="599" type="curve" smooth="yes"/>
      <point x="414" y="601"/>
      <point x="416" y="601"/>
      <point x="438" y="597" type="curve" smooth="yes"/>
      <point x="462" y="594"/>
      <point x="468" y="577"/>
      <point x="468" y="535" type="curve" smooth="yes"/>
      <point x="468" y="474"/>
      <point x="455" y="464"/>
      <point x="427" y="463" type="curve" smooth="yes"/>
      <point x="318" y="456"/>
      <point x="288" y="459"/>
      <point x="183" y="459" type="curve"/>
      <point x="182" y="315"/>
      <point x="175.32637607950025" y="210.09360472938437"/>
      <point x="183" y="66" type="curve" smooth="yes"/>
      <point x="185" y="27"/>
      <point x="175" y="-8"/>
      <point x="125" y="-8" type="curve" smooth="yes"/>
      <point x="62" y="-8"/>
      <point x="55" y="27"/>
      <point x="55" y="65" type="curve" smooth="yes"/>
      <point x="55" y="107"/>
      <point x="56" y="228"/>
      <point x="56" y="346" type="curve" smooth="yes"/>
      <point x="56" y="524"/>
      <point x="54" y="526"/>
      <point x="57" y="557" type="curve" smooth="yes"/>
      <point x="58.95281451721526" y="573.5989233963297"/>
      <point x="64" y="596"/>
    </contour>
    <contour>
      <point x="392" y="303" type="curve" smooth="yes"/>
      <point x="392" y="246"/>
      <point x="375" y="234"/>
      <point x="346" y="233" type="curve" smooth="yes"/>
      <point x="281" y="227"/>
      <point x="231" y="230"/>
      <point x="161" y="229" type="curve"/>
      <point x="160" y="366" type="line"/>
      <point x="165" y="366"/>
      <point x="166" y="366"/>
      <point x="205" y="367" type="curve" smooth="yes"/>
      <point x="303" y="370"/>
      <point x="345" y="369"/>
      <point x="357" y="368" type="curve" smooth="yes"/>
      <point x="384" y="364"/>
      <point x="392" y="355"/>
    </contour>
  </outline>
</glyph>
<glyph name="G" format="2">
  <advance width="500.0"/>
  <unicode hex="0047"/>
  <anchor x="284.0" y="600.0" name="top"/>
  <anchor x="273" y="-6" name="cedilla"/>
  <anchor x="273" y="-6" name="ogonek"/>
  <anchor x="273.0" y="0.0" name="bottom"/>
  <outline>
    <contour>
      <point x="434.1666666666667" y="426.6666666666667" type="curve" smooth="yes"/>
      <point x="408.6666666666667" y="418"/>
      <point x="383.6666666666667" y="407"/>
      <point x="371.6666666666667" y="432" type="curve" smooth="yes"/>
      <point x="344.6666666666667" y="471"/>
      <point x="344.6666666666667" y="471.83333333333337"/>
      <point x="282.6666666666667" y="471.83333333333337" type="curve" smooth="yes"/>
      <point x="203" y="471.83333333333337"/>
      <point x="179.16666666666666" y="397.6666666666667"/>
      <point x="179.16666666666666" y="325" type="curve" smooth="yes"/>
      <point x="179.16666666666666" y="124"/>
      <point x="208.66666666666666" y="128.33333333333331"/>
      <point x="255" y="128.33333333333331" type="curve" smooth="yes"/>
      <point x="295.33333333333337" y="128.33333333333331"/>
      <point x="325.33333333333337" y="134.5"/>
      <point x="325.33333333333337" y="210.16666666666669" type="curve"/>
      <point x="300" y="213.16666666666669"/>
      <point x="287.8333333333333" y="211.16666666666669"/>
      <point x="282" y="211.16666666666669" type="curve" smooth="yes"/>
      <point x="248.5" y="210.5"/>
      <point x="243.83333333333334" y="257.1666666666667"/>
      <point x="243" y="273.3333333333333" type="curve" smooth="yes"/>
      <point x="243.83333333333334" y="327.8333333333333"/>
      <point x="257" y="344.3333333333333"/>
      <point x="282" y="346.3333333333333" type="curve" smooth="yes"/>
      <point x="308" y="348.3333333333333"/>
      <point x="362" y="343.3333333333333"/>
      <point x="424" y="344.3333333333333" type="curve" smooth="yes"/>
      <point x="452" y="344.3333333333333"/>
      <point x="457" y="316"/>
      <point x="457" y="274" type="curve" smooth="yes"/>
      <point x="457" y="100"/>
      <point x="424" y="-6"/>
      <point x="273" y="-6" type="curve" smooth="yes"/>
      <point x="119" y="-6"/>
      <point x="43" y="73"/>
      <point x="43" y="316" type="curve" smooth="yes"/>
      <point x="43" y="504"/>
      <point x="173" y="608"/>
      <point x="286" y="608" type="curve" smooth="yes"/>
      <point x="416" y="608"/>
      <point x="447.5" y="524.8333333333334"/>
      <point x="454.5" y="508.8333333333333" type="curve" smooth="yes"/>
      <point x="463.5" y="482.8333333333333"/>
      <point x="468.5" y="434.5"/>
    </contour>
  </outline>
</glyph>
<glyph name="H" format="2">
  <advance width="500.0"/>
  <unicode hex="0048"/>
  <anchor x="250.0" y="600.0" name="top"/>
  <anchor x="112" y="-7" name="cedilla"/>
  <anchor x="388" y="-7" name="ogonek"/>
  <anchor x="250.0" y="0.0" name="bottom"/>
  <outline>
    <contour>
      <point x="161" y="236" type="curve"/>
      <point x="160" y="354" type="line"/>
      <point x="235" y="353"/>
      <point x="279" y="357"/>
      <point x="355" y="351" type="curve"/>
      <point x="349" y="236" type="line"/>
      <point x="276" y="243"/>
      <point x="237" y="236"/>
    </contour>
    <contour>
      <point x="111.66666666666666" y="605" type="curve" smooth="yes"/>
      <point x="172" y="605"/>
      <point x="179.33333333333331" y="580"/>
      <point x="178.33333333333331" y="558" type="curve" smooth="yes"/>
      <point x="178.33333333333331" y="541"/>
      <point x="181.16666666666666" y="426.3333333333333"/>
      <point x="179.33333333333331" y="276" type="curve" smooth="yes"/>
      <point x="179.33333333333331" y="222"/>
      <point x="177" y="160"/>
      <point x="177" y="66" type="curve" smooth="yes"/>
      <point x="177" y="19"/>
      <point x="180" y="-7"/>
      <point x="112" y="-7" type="curve" smooth="yes"/>
      <point x="68" y="-7"/>
      <point x="44" y="19"/>
      <point x="48" y="60" type="curve" smooth="yes"/>
      <point x="51" y="101"/>
      <point x="45.333333333333336" y="229"/>
      <point x="49" y="346" type="curve" smooth="yes"/>
      <point x="56.333333333333336" y="504.8333333333333"/>
      <point x="47" y="532"/>
      <point x="50" y="563" type="curve" smooth="yes"/>
      <point x="54" y="596"/>
      <point x="75" y="605"/>
    </contour>
    <contour>
      <point x="388.3333333333333" y="605" type="curve" smooth="yes"/>
      <point x="428" y="605"/>
      <point x="446" y="596"/>
      <point x="450" y="563" type="curve" smooth="yes"/>
      <point x="453" y="532"/>
      <point x="456.5" y="525"/>
      <point x="451" y="346" type="curve" smooth="yes"/>
      <point x="447.3333333333333" y="214.33333333333334"/>
      <point x="449" y="101"/>
      <point x="452" y="60" type="curve" smooth="yes"/>
      <point x="456" y="19"/>
      <point x="442" y="-7"/>
      <point x="388" y="-7" type="curve" smooth="yes"/>
      <point x="323" y="-7"/>
      <point x="322" y="19"/>
      <point x="323" y="66" type="curve" smooth="yes"/>
      <point x="323" y="72"/>
      <point x="318.83333333333337" y="222"/>
      <point x="320.6666666666667" y="276" type="curve" smooth="yes"/>
      <point x="326.1666666666667" y="402.5"/>
      <point x="321.6666666666667" y="541"/>
      <point x="321.6666666666667" y="558" type="curve" smooth="yes"/>
      <point x="320.6666666666667" y="580"/>
      <point x="325" y="605"/>
    </contour>
  </outline>
</glyph>
<glyph name="I" format="2">
  <advance width="500.0"/>
  <unicode hex="0049"/>
  <anchor x="250.0" y="600.0" name="top"/>
  <anchor x="250.0" y="0.0" name="cedilla"/>
  <anchor x="250.0" y="0.0" name="ogonek"/>
  <anchor x="250.0" y="0.0" name="bottom"/>
  <outline>
    <contour>
      <point x="315" y="496" type="line"/>
      <point x="312" y="456"/>
      <point x="314.8333333333333" y="483"/>
      <point x="314.8333333333333" y="312" type="curve" smooth="yes"/>
      <point x="314.8333333333333" y="232"/>
      <point x="315.8333333333333" y="152"/>
      <point x="316" y="112" type="curve"/>
      <point x="182" y="113" type="line"/>
      <point x="182.16666666666669" y="79"/>
      <point x="182.16666666666669" y="252"/>
      <point x="183.16666666666669" y="291" type="curve" smooth="yes"/>
      <point x="183.16666666666669" y="268"/>
      <point x="183.16666666666669" y="517"/>
      <point x="183" y="491" type="curve"/>
    </contour>
    <contour>
      <point x="76" y="541.6666666666666" type="curve" smooth="yes"/>
      <point x="76" y="569.3333333333334"/>
      <point x="86" y="597.1666666666666"/>
      <point x="116" y="600" type="curve" smooth="yes"/>
      <point x="168" y="601"/>
      <point x="212" y="600"/>
      <point x="235" y="600" type="curve" smooth="yes"/>
      <point x="289" y="597.1666666666666"/>
      <point x="331" y="603.8333333333334"/>
      <point x="385" y="600" type="curve" smooth="yes"/>
      <point x="409" y="597.1666666666666"/>
      <point x="424" y="575.1666666666666"/>
      <point x="424" y="537.8333333333334" type="curve" smooth="yes"/>
      <point x="424" y="507.1666666666667"/>
      <point x="407" y="473.6666666666667"/>
      <point x="375" y="473.6666666666667" type="curve" smooth="yes"/>
      <point x="327" y="473.6666666666667"/>
      <point x="275" y="477.5"/>
      <point x="238" y="473.6666666666667" type="curve" smooth="yes"/>
      <point x="198" y="469.83333333333337"/>
      <point x="134" y="470.83333333333337"/>
      <point x="116" y="477.5" type="curve" smooth="yes"/>
      <point x="83" y="481.3333333333333"/>
      <point x="76" y="507.1666666666667"/>
    </contour>
    <contour>
      <point x="76" y="57.33333333333333" type="curve" smooth="yes"/>
      <point x="76" y="97.5"/>
      <point x="94" y="120.5"/>
      <point x="122" y="127.16666666666666" type="curve" smooth="yes"/>
      <point x="144" y="131"/>
      <point x="198" y="127.16666666666666"/>
      <point x="238" y="131" type="curve" smooth="yes"/>
      <point x="275" y="136.66666666666666"/>
      <point x="327" y="131"/>
      <point x="375" y="130" type="curve" smooth="yes"/>
      <point x="407" y="127.16666666666666"/>
      <point x="424" y="91.83333333333333"/>
      <point x="424" y="64" type="curve" smooth="yes"/>
      <point x="424" y="24.833333333333332"/>
      <point x="412" y="2.833333333333333"/>
      <point x="385" y="1.8333333333333333" type="curve" smooth="yes"/>
      <point x="331" y="-3.833333333333333"/>
      <point x="289" y="2.833333333333333"/>
      <point x="235" y="1.8333333333333333" type="curve" smooth="yes"/>
      <point x="212" y="1.8333333333333333"/>
      <point x="168" y="-3.833333333333333"/>
      <point x="116" y="1.8333333333333333" type="curve" smooth="yes"/>
      <point x="84" y="2.833333333333333"/>
      <point x="76" y="20"/>
    </contour>
  </outline>
</glyph>
<glyph name="J" format="2">
  <advance width="500.0"/>
  <unicode hex="004A"/>
  <anchor x="317.0" y="600.0" name="top"/>
  <anchor x="243" y="-11" name="cedilla"/>
  <anchor x="243" y="-11" name="ogonek"/>
  <anchor x="245.0" y="0.0" name="bottom"/>
  <outline>
    <contour>
      <point x="195" y="543.6666666666666" type="curve" smooth="yes"/>
      <point x="196" y="571.3333333333334"/>
      <point x="206" y="598.1666666666666"/>
      <point x="236" y="598.1666666666666" type="curve" smooth="yes"/>
      <point x="245" y="598.1666666666666"/>
      <point x="286" y="599"/>
      <point x="299" y="598" type="curve" smooth="yes"/>
      <point x="320" y="597"/>
      <point x="350" y="602"/>
      <point x="375" y="599" type="curve" smooth="yes"/>
      <point x="443" y="594"/>
      <point x="452.6666666666667" y="575.1666666666666"/>
      <point x="449" y="533.1666666666666" type="curve" smooth="yes"/>
      <point x="443.1666666666667" y="426.6666666666667"/>
      <point x="443" y="351"/>
      <point x="446.1666666666667" y="254" type="curve" smooth="yes"/>
      <point x="450" y="119"/>
      <point x="398" y="-11"/>
      <point x="243" y="-11" type="curve" smooth="yes"/>
      <point x="161" y="-11"/>
      <point x="93.16666666666667" y="14.833333333333334"/>
      <point x="62" y="93" type="curve" smooth="yes"/>
      <point x="30.333333333333332" y="164.83333333333331"/>
      <point x="27.5" y="213.66666666666666"/>
      <point x="76.33333333333333" y="231.83333333333331" type="curve" smooth="yes"/>
      <point x="121.33333333333333" y="248.16666666666666"/>
      <point x="127" y="234"/>
      <point x="159" y="168" type="curve" smooth="yes"/>
      <point x="184" y="116"/>
      <point x="204" y="114"/>
      <point x="243" y="114" type="curve" smooth="yes"/>
      <point x="289" y="114"/>
      <point x="310" y="131"/>
      <point x="317" y="188" type="curve" smooth="yes"/>
      <point x="324" y="245"/>
      <point x="324.5" y="314"/>
      <point x="321.6666666666667" y="350" type="curve" smooth="yes"/>
      <point x="321.5" y="349.3333333333333"/>
      <point x="317.83333333333337" y="431"/>
      <point x="324.5" y="468.1666666666667" type="curve"/>
      <point x="295" y="467.1666666666667"/>
      <point x="287" y="467.1666666666667"/>
      <point x="235" y="472" type="curve" smooth="yes"/>
      <point x="202" y="475.83333333333337"/>
      <point x="195" y="504.5"/>
    </contour>
  </outline>
</glyph>
<glyph name="K" format="2">
  <advance width="500.0"/>
  <unicode hex="004B"/>
  <anchor x="247" y="600" name="top"/>
  <anchor x="112" y="-9" name="cedilla"/>
  <anchor x="420" y="-2" name="ogonek"/>
  <anchor x="230" y="0" name="bottom"/>
  <outline>
    <contour>
      <point x="113" y="605" type="curve" smooth="yes"/>
      <point x="162" y="611"/>
      <point x="178" y="584"/>
      <point x="177" y="564" type="curve" smooth="yes"/>
      <point x="165" y="400"/>
      <point x="175" y="243"/>
      <point x="174" y="67" type="curve" smooth="yes"/>
      <point x="174" y="26"/>
      <point x="178" y="-9"/>
      <point x="112" y="-9" type="curve" smooth="yes"/>
      <point x="57" y="-9"/>
      <point x="45" y="26"/>
      <point x="49" y="64" type="curve" smooth="yes"/>
      <point x="54" y="127"/>
      <point x="51" y="234"/>
      <point x="48" y="341" type="curve" smooth="yes"/>
      <point x="46" y="426"/>
      <point x="44" y="512"/>
      <point x="56" y="563" type="curve" smooth="yes"/>
      <point x="63" y="593"/>
      <point x="85" y="601"/>
    </contour>
    <contour>
      <point x="435" y="593" type="curve" smooth="yes"/>
      <point x="472" y="561"/>
      <point x="477" y="529"/>
      <point x="458" y="510" type="curve" smooth="yes"/>
      <point x="352" y="398"/>
      <point x="340" y="391"/>
      <point x="295" y="350" type="curve" smooth="yes"/>
      <point x="272" y="330"/>
      <point x="249" y="312"/>
      <point x="140" y="216" type="curve"/>
      <point x="120" y="360" type="line"/>
      <point x="141" y="374"/>
      <point x="143" y="373"/>
      <point x="228" y="454" type="curve" smooth="yes"/>
      <point x="307" y="529"/>
      <point x="326" y="546"/>
      <point x="356" y="574" type="curve" smooth="yes"/>
      <point x="374" y="590"/>
      <point x="400" y="623"/>
    </contour>
    <contour>
      <point x="474" y="46" type="curve" smooth="yes"/>
      <point x="474" y="36"/>
      <point x="463" y="-2"/>
      <point x="420" y="-2" type="curve" smooth="yes"/>
      <point x="354" y="-2"/>
      <point x="341" y="5"/>
      <point x="316" y="35" type="curve" smooth="yes"/>
      <point x="301" y="51"/>
      <point x="278" y="89"/>
      <point x="243" y="154" type="curve" smooth="yes"/>
      <point x="229" y="178"/>
      <point x="219" y="199"/>
      <point x="166" y="293" type="curve"/>
      <point x="259" y="379" type="line"/>
      <point x="306" y="297"/>
      <point x="357" y="209"/>
      <point x="395" y="145" type="curve" smooth="yes"/>
      <point x="426" y="94"/>
      <point x="423" y="111"/>
      <point x="448" y="105" type="curve" smooth="yes"/>
      <point x="467" y="100"/>
      <point x="474" y="84"/>
    </contour>
  </outline>
</glyph>
<glyph name="L" format="2">
  <advance width="500.0"/>
  <unicode hex="004C"/>
  <anchor x="204" y="600" name="top"/>
  <anchor x="248" y="5" name="cedilla"/>
  <anchor x="314" y="5" name="ogonek"/>
  <anchor x="254" y="0" name="bottom"/>
  <outline>
    <contour>
      <point x="115" y="599" type="curve" smooth="yes"/>
      <point x="165" y="601"/>
      <point x="182" y="578"/>
      <point x="185" y="558" type="curve" smooth="yes"/>
      <point x="192" y="507"/>
      <point x="191" y="443"/>
      <point x="188" y="375" type="curve" smooth="yes"/>
      <point x="188" y="264"/>
      <point x="167" y="144"/>
      <point x="185" y="128" type="curve"/>
      <point x="233" y="134"/>
      <point x="236" y="134"/>
      <point x="247" y="134" type="curve" smooth="yes"/>
      <point x="302" y="134"/>
      <point x="346" y="134"/>
      <point x="419" y="126" type="curve" smooth="yes"/>
      <point x="447" y="123"/>
      <point x="465" y="96"/>
      <point x="460" y="50" type="curve" smooth="yes"/>
      <point x="458" y="36"/>
      <point x="454" y="7"/>
      <point x="430" y="2" type="curve" smooth="yes"/>
      <point x="419" y="-1"/>
      <point x="411" y="-2"/>
      <point x="389" y="-1" type="curve" smooth="yes"/>
      <point x="377" y="-1"/>
      <point x="371" y="5"/>
      <point x="248" y="5" type="curve" smooth="yes"/>
      <point x="166" y="5"/>
      <point x="178" y="-4"/>
      <point x="114" y="-4" type="curve" smooth="yes"/>
      <point x="60" y="-4"/>
      <point x="46" y="64"/>
      <point x="46" y="139" type="curve" smooth="yes"/>
      <point x="46" y="221"/>
      <point x="57" y="220"/>
      <point x="57" y="337" type="curve" smooth="yes"/>
      <point x="57" y="405"/>
      <point x="58" y="472"/>
      <point x="53" y="557" type="curve" smooth="yes"/>
      <point x="50" y="587"/>
      <point x="76" y="596"/>
    </contour>
  </outline>
</glyph>
<glyph name="M" format="2">
  <advance width="500.0"/>
  <unicode hex="004D"/>
  <anchor x="250.0" y="600.0" name="top"/>
  <anchor x="104" y="-6" name="cedilla"/>
  <anchor x="397" y="-6" name="ogonek"/>
  <anchor x="250.0" y="0.0" name="bottom"/>
  <outline>
    <contour>
      <point x="408" y="606.8333333333334" type="curve" smooth="yes"/>
      <point x="442" y="605.8333333333334"/>
      <point x="450.6666666666667" y="598.6666666666666"/>
      <point x="450" y="563" type="curve" smooth="yes"/>
      <point x="449.3333333333333" y="544"/>
      <point x="452" y="532"/>
      <point x="450.59986368815106" y="486.0133768717448" type="curve" smooth="yes"/>
      <point x="451" y="457"/>
      <point x="451" y="414.1910909016927"/>
      <point x="451" y="346" type="curve" smooth="yes"/>
      <point x="451" y="311.3119659423828"/>
      <point x="451.15235900878906" y="274.86676534016925"/>
      <point x="451.29584248860675" y="242.20126342773438" type="curve" smooth="yes"/>
      <point x="450" y="171"/>
      <point x="450" y="92.66666666666667"/>
      <point x="452" y="51.66666666666667" type="curve" smooth="yes"/>
      <point x="455" y="10.666666666666668"/>
      <point x="419" y="-3"/>
      <point x="397" y="-6" type="curve" smooth="yes"/>
      <point x="361" y="-11"/>
      <point x="326.3333333333333" y="12.666666666666668"/>
      <point x="328.3333333333333" y="59.66666666666667" type="curve" smooth="yes"/>
      <point x="328.3333333333333" y="69.66666666666667"/>
      <point x="327" y="154"/>
      <point x="327" y="228" type="curve" smooth="yes"/>
      <point x="327" y="256"/>
      <point x="338" y="290"/>
      <point x="341" y="327" type="curve"/>
      <point x="336" y="317"/>
      <point x="325" y="287"/>
      <point x="316" y="277" type="curve" smooth="yes"/>
      <point x="309" y="268"/>
      <point x="310" y="269"/>
      <point x="297" y="254" type="curve" smooth="yes"/>
      <point x="279" y="234"/>
      <point x="278" y="235"/>
      <point x="250" y="234.5" type="curve" smooth="yes"/>
      <point x="225" y="234"/>
      <point x="224" y="233"/>
      <point x="203" y="254" type="curve" smooth="yes"/>
      <point x="189" y="271"/>
      <point x="193" y="266"/>
      <point x="185" y="278" type="curve" smooth="yes"/>
      <point x="182" y="282"/>
      <point x="170" y="311"/>
      <point x="159" y="327" type="curve"/>
      <point x="164" y="287"/>
      <point x="173" y="261"/>
      <point x="173" y="237" type="curve" smooth="yes"/>
      <point x="173" y="183"/>
      <point x="170.66666666666666" y="113.66666666666667"/>
      <point x="172.66666666666666" y="58.66666666666667" type="curve" smooth="yes"/>
      <point x="173.66666666666666" y="11.666666666666668"/>
      <point x="139" y="-12"/>
      <point x="104" y="-6" type="curve" smooth="yes"/>
      <point x="80" y="-3"/>
      <point x="45" y="10.666666666666668"/>
      <point x="48" y="51.66666666666667" type="curve" smooth="yes"/>
      <point x="50" y="79.66666666666667"/>
      <point x="50" y="164"/>
      <point x="48.70416069030762" y="242.20126342773438" type="curve" smooth="yes"/>
      <point x="48.84764734903971" y="274.86676534016925"/>
      <point x="49" y="311"/>
      <point x="49" y="346" type="curve" smooth="yes"/>
      <point x="49" y="414"/>
      <point x="49.23890495300293" y="457.094731648763"/>
      <point x="49.40013631184896" y="486.0133514404297" type="curve" smooth="yes"/>
      <point x="47.83142534891764" y="534.216064453125"/>
      <point x="48" y="544"/>
      <point x="50" y="563" type="curve" smooth="yes"/>
      <point x="52" y="587"/>
      <point x="65.33333333333333" y="607"/>
      <point x="90.33333333333333" y="607" type="curve" smooth="yes"/>
      <point x="117.66666666666667" y="607"/>
      <point x="125" y="607"/>
      <point x="145.33333333333334" y="577.6666666666666" type="curve" smooth="yes"/>
      <point x="159" y="559"/>
      <point x="161" y="559"/>
      <point x="194" y="500" type="curve" smooth="yes"/>
      <point x="215" y="462"/>
      <point x="228" y="428"/>
      <point x="250" y="395.3333333333333" type="curve"/>
      <point x="263" y="416.8333333333333"/>
      <point x="279" y="454"/>
      <point x="306" y="500" type="curve" smooth="yes"/>
      <point x="339" y="556"/>
      <point x="342.5" y="565.6666666666666"/>
      <point x="355.5" y="583" type="curve" smooth="yes"/>
      <point x="366.5" y="597.3333333333334"/>
      <point x="381" y="606.8333333333334"/>
    </contour>
  </outline>
</glyph>
<glyph name="N" format="2">
  <advance width="500.0"/>
  <unicode hex="004E"/>
  <anchor x="250.0" y="600.0" name="top"/>
  <anchor x="104" y="-8" name="cedilla"/>
  <anchor x="375" y="-2" name="ogonek"/>
  <anchor x="250.0" y="0.0" name="bottom"/>
  <outline>
    <contour>
      <point x="391.8333333333333" y="607" type="curve" smooth="yes"/>
      <point x="406.1666666666667" y="607"/>
      <point x="449.1666666666667" y="600"/>
      <point x="449.1666666666667" y="559" type="curve" smooth="yes"/>
      <point x="445.3333333333333" y="408"/>
      <point x="447" y="502"/>
      <point x="447" y="297" type="curve" smooth="yes"/>
      <point x="447" y="256"/>
      <point x="446.1666666666667" y="168"/>
      <point x="451.1666666666667" y="49" type="curve" smooth="yes"/>
      <point x="453" y="11"/>
      <point x="428" y="-2"/>
      <point x="375" y="-2" type="curve" smooth="yes"/>
      <point x="303" y="-2"/>
      <point x="283" y="23"/>
      <point x="271.83333333333337" y="53.666666666666664" type="curve" smooth="yes"/>
      <point x="253" y="105"/>
      <point x="254" y="118"/>
      <point x="241" y="154" type="curve" smooth="yes"/>
      <point x="204" y="259"/>
      <point x="178" y="399"/>
      <point x="160" y="453" type="curve"/>
      <point x="176" y="407"/>
      <point x="189" y="238"/>
      <point x="175.33333333333331" y="71" type="curve" smooth="yes"/>
      <point x="172" y="28"/>
      <point x="170" y="-8"/>
      <point x="104" y="-8" type="curve" smooth="yes"/>
      <point x="60" y="-8"/>
      <point x="45.166666666666664" y="28"/>
      <point x="49" y="65" type="curve" smooth="yes"/>
      <point x="63.333333333333336" y="208"/>
      <point x="52.833333333333336" y="349"/>
      <point x="51.833333333333336" y="483" type="curve" smooth="yes"/>
      <point x="49" y="516"/>
      <point x="33.666666666666664" y="603"/>
      <point x="136" y="603" type="curve" smooth="yes"/>
      <point x="187.66666666666666" y="603"/>
      <point x="201.16666666666666" y="597.5"/>
      <point x="214.5" y="583" type="curve" smooth="yes"/>
      <point x="278.16666666666663" y="517.1666666666666"/>
      <point x="312" y="192"/>
      <point x="333" y="146" type="curve"/>
      <point x="317" y="189"/>
      <point x="321" y="372"/>
      <point x="321" y="395" type="curve" smooth="yes"/>
      <point x="322" y="425"/>
      <point x="320" y="486"/>
      <point x="322" y="554" type="curve" smooth="yes"/>
      <point x="323" y="584"/>
      <point x="333.5" y="607"/>
    </contour>
  </outline>
</glyph>
<glyph name="O" format="2">
  <advance width="500.0"/>
  <unicode hex="004F"/>
  <anchor x="250.0" y="600.0" name="top"/>
  <anchor x="250" y="-13" name="cedilla"/>
  <anchor x="250" y="-13" name="ogonek"/>
  <anchor x="250" y="0" name="bottom"/>
  <anchor x="360" y="524" name="horn"/>
  <outline>
    <contour>
      <point x="250" y="613" type="curve" smooth="yes"/>
      <point x="340" y="613"/>
      <point x="384" y="581"/>
      <point x="416" y="513" type="curve" smooth="yes"/>
      <point x="438" y="466"/>
      <point x="454" y="400"/>
      <point x="454.0" y="301.0" type="curve" smooth="yes"/>
      <point x="454" y="207"/>
      <point x="447" y="138"/>
      <point x="424" y="90" type="curve" smooth="yes"/>
      <point x="388" y="14"/>
      <point x="342" y="-13"/>
      <point x="250" y="-13" type="curve" smooth="yes"/>
      <point x="173" y="-13"/>
      <point x="139" y="9"/>
      <point x="99" y="58" type="curve" smooth="yes"/>
      <point x="59" y="107"/>
      <point x="46" y="190"/>
      <point x="46.0" y="301.0" type="curve" smooth="yes"/>
      <point x="46" y="418"/>
      <point x="73" y="492"/>
      <point x="107" y="546" type="curve" smooth="yes"/>
      <point x="135" y="591"/>
      <point x="177" y="613"/>
    </contour>
    <contour>
      <point x="250" y="486" type="curve" smooth="yes"/>
      <point x="223" y="486"/>
      <point x="209.16666666666666" y="471.83333333333337"/>
      <point x="200.33333333333331" y="440.8333333333333" type="curve" smooth="yes"/>
      <point x="193.33333333333331" y="411.6666666666667"/>
      <point x="184.5" y="369.1666666666667"/>
      <point x="184.5" y="302.8333333333333" type="curve" smooth="yes"/>
      <point x="184.5" y="238.83333333333334"/>
      <point x="189" y="192.16666666666666"/>
      <point x="199.16666666666666" y="163.16666666666666" type="curve" smooth="yes"/>
      <point x="210" y="140.33333333333331"/>
      <point x="219" y="123"/>
      <point x="250" y="123" type="curve" smooth="yes"/>
      <point x="283" y="123"/>
      <point x="293.3333333333333" y="136.16666666666666"/>
      <point x="306.3333333333333" y="177.66666666666666" type="curve" smooth="yes"/>
      <point x="314.33333333333337" y="209.83333333333331"/>
      <point x="315.5" y="246"/>
      <point x="315.5" y="302.8333333333333" type="curve" smooth="yes"/>
      <point x="315.5" y="366.1666666666667"/>
      <point x="308.83333333333337" y="407.6666666666667"/>
      <point x="301" y="437.5" type="curve" smooth="yes"/>
      <point x="292" y="470.83333333333337"/>
      <point x="280" y="486"/>
    </contour>
  </outline>
</glyph>
<glyph name="P" format="2">
  <advance width="500.0"/>
  <unicode hex="0050"/>
  <anchor x="228" y="600" name="top"/>
  <anchor x="118" y="-8" name="cedilla"/>
  <anchor x="118" y="-8" name="ogonek"/>
  <anchor x="210" y="0" name="bottom"/>
  <outline>
    <contour>
      <point x="50" y="561" type="curve" smooth="yes"/>
      <point x="52" y="579"/>
      <point x="72" y="608"/>
      <point x="197" y="614" type="curve" smooth="yes"/>
      <point x="239" y="616"/>
      <point x="274" y="611"/>
      <point x="313" y="601" type="curve" smooth="yes"/>
      <point x="415" y="576"/>
      <point x="454" y="514"/>
      <point x="455" y="429" type="curve" smooth="yes"/>
      <point x="456" y="339"/>
      <point x="417" y="278"/>
      <point x="352" y="252" type="curve" smooth="yes"/>
      <point x="319" y="236"/>
      <point x="272" y="215"/>
      <point x="175" y="231" type="curve" smooth="yes"/>
      <point x="163" y="233"/>
      <point x="168" y="231"/>
      <point x="158" y="234" type="curve"/>
      <point x="179" y="369" type="line"/>
      <point x="182" y="368"/>
      <point x="185" y="367"/>
      <point x="188" y="367" type="curve" smooth="yes"/>
      <point x="254" y="360"/>
      <point x="285" y="369"/>
      <point x="301" y="380" type="curve" smooth="yes"/>
      <point x="319" y="394"/>
      <point x="320" y="412"/>
      <point x="320" y="425" type="curve" smooth="yes"/>
      <point x="319" y="457"/>
      <point x="306" y="467"/>
      <point x="277" y="477" type="curve" smooth="yes"/>
      <point x="262" y="482"/>
      <point x="247" y="483"/>
      <point x="229" y="483" type="curve" smooth="yes"/>
      <point x="213" y="483"/>
      <point x="197" y="480"/>
      <point x="182" y="474" type="curve"/>
      <point x="189" y="398"/>
      <point x="195.008035179922" y="183.44178293559438"/>
      <point x="168" y="43" type="curve" smooth="yes"/>
      <point x="161" y="8"/>
      <point x="164" y="-8"/>
      <point x="118" y="-8" type="curve" smooth="yes"/>
      <point x="56" y="-8"/>
      <point x="47" y="19"/>
      <point x="52" y="56" type="curve" smooth="yes"/>
      <point x="59" y="111"/>
      <point x="57" y="316"/>
      <point x="54" y="440" type="curve" smooth="yes"/>
      <point x="53.28879016838957" y="479.1165407385739"/>
      <point x="45" y="522"/>
    </contour>
  </outline>
</glyph>
<glyph name="Q" format="2">
  <advance width="500.0"/>
  <unicode hex="0051"/>
  <anchor x="241" y="600" name="top"/>
  <anchor x="227" y="-1" name="cedilla"/>
  <anchor x="378" y="-39" name="ogonek"/>
  <anchor x="261" y="0" name="bottom"/>
  <outline>
    <contour>
      <point x="242" y="142" type="curve" smooth="yes"/>
      <point x="301" y="142"/>
      <point x="332" y="248"/>
      <point x="332" y="305" type="curve" smooth="yes"/>
      <point x="332" y="360"/>
      <point x="323" y="493"/>
      <point x="248" y="493" type="curve" smooth="yes"/>
      <point x="190" y="493"/>
      <point x="167" y="372"/>
      <point x="167" y="308" type="curve" smooth="yes"/>
      <point x="167" y="250"/>
      <point x="194" y="142"/>
    </contour>
    <contour>
      <point x="408" y="119" type="curve" smooth="yes"/>
      <point x="378" y="59"/>
      <point x="338" y="-1"/>
      <point x="227" y="-1" type="curve" smooth="yes"/>
      <point x="107" y="-1"/>
      <point x="51" y="143"/>
      <point x="52" y="308" type="curve" smooth="yes"/>
      <point x="52" y="443"/>
      <point x="83" y="612"/>
      <point x="248" y="612" type="curve" smooth="yes"/>
      <point x="326" y="612"/>
      <point x="359" y="584"/>
      <point x="390" y="547" type="curve" smooth="yes"/>
      <point x="429" y="499"/>
      <point x="445" y="420"/>
      <point x="445" y="301" type="curve" smooth="yes"/>
      <point x="445" y="234"/>
      <point x="429" y="166"/>
    </contour>
    <contour>
      <point x="230" y="296" type="curve" smooth="yes"/>
      <point x="276" y="328"/>
      <point x="299" y="310"/>
      <point x="320" y="282" type="curve" smooth="yes"/>
      <point x="333" y="264"/>
      <point x="371" y="198"/>
      <point x="394" y="164" type="curve" smooth="yes"/>
      <point x="415" y="134"/>
      <point x="454" y="73"/>
      <point x="478" y="33" type="curve" smooth="yes"/>
      <point x="493" y="4"/>
      <point x="493" y="-16"/>
      <point x="458" y="-42" type="curve" smooth="yes"/>
      <point x="427" y="-66"/>
      <point x="392" y="-59"/>
      <point x="378" y="-39" type="curve" smooth="yes"/>
      <point x="348" y="7"/>
      <point x="313" y="61"/>
      <point x="285" y="107" type="curve" smooth="yes"/>
      <point x="273" y="125"/>
      <point x="241" y="170"/>
      <point x="212" y="215" type="curve" smooth="yes"/>
      <point x="197" y="238"/>
      <point x="205" y="278"/>
    </contour>
  </outline>
</glyph>
<glyph name="R" format="2">
  <advance width="500.0"/>
  <unicode hex="0052"/>
  <anchor x="220" y="600" name="top"/>
  <anchor x="120" y="-10" name="cedilla"/>
  <anchor x="373" y="-9" name="ogonek"/>
  <anchor x="240" y="0" name="bottom"/>
  <outline>
    <contour>
      <point x="59" y="563" type="curve" smooth="yes"/>
      <point x="65" y="600"/>
      <point x="99" y="605"/>
      <point x="208" y="607" type="curve" smooth="yes"/>
      <point x="389" y="609"/>
      <point x="439" y="515"/>
      <point x="439" y="423" type="curve" smooth="yes"/>
      <point x="439" y="343"/>
      <point x="401" y="275"/>
      <point x="341" y="253" type="curve" smooth="yes"/>
      <point x="301" y="238"/>
      <point x="235" y="218"/>
      <point x="206" y="218" type="curve" smooth="yes"/>
      <point x="194" y="218"/>
      <point x="177" y="217"/>
      <point x="174" y="217" type="curve"/>
      <point x="175" y="342" type="line"/>
      <point x="177" y="342"/>
      <point x="175" y="342"/>
      <point x="177" y="342" type="curve" smooth="yes"/>
      <point x="274" y="344"/>
      <point x="309" y="363"/>
      <point x="309" y="426" type="curve" smooth="yes"/>
      <point x="309" y="454"/>
      <point x="287" y="484"/>
      <point x="229" y="484" type="curve" smooth="yes"/>
      <point x="206" y="484"/>
      <point x="194" y="482"/>
      <point x="184" y="480" type="curve"/>
      <point x="189" y="369"/>
      <point x="183.0303841755526" y="165.5382339669316"/>
      <point x="176" y="41" type="curve" smooth="yes"/>
      <point x="175" y="14"/>
      <point x="166" y="-10"/>
      <point x="120" y="-10" type="curve" smooth="yes"/>
      <point x="69" y="-11"/>
      <point x="49" y="19"/>
      <point x="54" y="54" type="curve" smooth="yes"/>
      <point x="60" y="109"/>
      <point x="63" y="314"/>
      <point x="62" y="438" type="curve" smooth="yes"/>
      <point x="61.354728181710726" y="475.4257654607779"/>
      <point x="51.47198283781029" y="526.8655176214894"/>
    </contour>
    <contour>
      <point x="319" y="267" type="line"/>
      <point x="379" y="257"/>
      <point x="391" y="226"/>
      <point x="399" y="192" type="curve" smooth="yes"/>
      <point x="412" y="138"/>
      <point x="412" y="100"/>
      <point x="452" y="48" type="curve" smooth="yes"/>
      <point x="471" y="23"/>
      <point x="454" y="-2"/>
      <point x="434" y="-5" type="curve" smooth="yes"/>
      <point x="342" y="-19"/>
      <point x="326" y="0"/>
      <point x="310" y="35" type="curve" smooth="yes"/>
      <point x="297" y="62"/>
      <point x="292" y="149"/>
      <point x="265" y="184" type="curve" smooth="yes"/>
      <point x="245" y="210"/>
      <point x="182" y="209"/>
      <point x="148" y="214" type="curve"/>
    </contour>
  </outline>
</glyph>
<glyph name="S" format="2">
  <advance width="500.0"/>
  <unicode hex="0053"/>
  <anchor x="254.5" y="600.0" name="top"/>
  <anchor x="235" y="-9" name="cedilla"/>
  <anchor x="235" y="-9" name="ogonek"/>
  <anchor x="241.66666666666666" y="0.0" name="bottom"/>
  <outline>
    <contour>
      <point x="244" y="612" type="curve" smooth="yes"/>
      <point x="322" y="612"/>
      <point x="366" y="595"/>
      <point x="408" y="554" type="curve" smooth="yes"/>
      <point x="431" y="531"/>
      <point x="435" y="491"/>
      <point x="398" y="461" type="curve" smooth="yes"/>
      <point x="359" y="430"/>
      <point x="316" y="468"/>
      <point x="309" y="473" type="curve" smooth="yes"/>
      <point x="300" y="481"/>
      <point x="285" y="493"/>
      <point x="254" y="493" type="curve" smooth="yes"/>
      <point x="228" y="493"/>
      <point x="195" y="482"/>
      <point x="197" y="446" type="curve" smooth="yes"/>
      <point x="198" y="419"/>
      <point x="187" y="399"/>
      <point x="253" y="390" type="curve" smooth="yes"/>
      <point x="373" y="377"/>
      <point x="386" y="369"/>
      <point x="416" y="336" type="curve" smooth="yes"/>
      <point x="442" y="308"/>
      <point x="450" y="241"/>
      <point x="450" y="189" type="curve" smooth="yes"/>
      <point x="450" y="129"/>
      <point x="435" y="84"/>
      <point x="405" y="51" type="curve" smooth="yes"/>
      <point x="371" y="13"/>
      <point x="312" y="-9"/>
      <point x="235" y="-9" type="curve" smooth="yes"/>
      <point x="168" y="-9"/>
      <point x="109" y="13"/>
      <point x="71" y="46" type="curve" smooth="yes"/>
      <point x="49" y="65"/>
      <point x="35" y="105"/>
      <point x="73" y="139" type="curve" smooth="yes"/>
      <point x="114" y="173"/>
      <point x="146" y="166"/>
      <point x="187" y="135" type="curve" smooth="yes"/>
      <point x="210" y="116"/>
      <point x="231" y="114"/>
      <point x="247" y="114" type="curve" smooth="yes"/>
      <point x="275" y="114"/>
      <point x="298" y="122"/>
      <point x="309" y="134" type="curve" smooth="yes"/>
      <point x="320" y="145"/>
      <point x="326" y="167"/>
      <point x="326" y="182" type="curve" smooth="yes"/>
      <point x="326" y="193"/>
      <point x="322" y="220"/>
      <point x="315" y="230" type="curve" smooth="yes"/>
      <point x="296" y="257"/>
      <point x="243" y="257"/>
      <point x="218" y="263" type="curve" smooth="yes"/>
      <point x="112" y="279"/>
      <point x="72" y="316"/>
      <point x="74" y="439" type="curve" smooth="yes"/>
      <point x="75" y="583"/>
      <point x="157" y="612"/>
    </contour>
  </outline>
</glyph>
<glyph name="T" format="2">
  <advance width="500.0"/>
  <unicode hex="0054"/>
  <anchor x="250.0" y="600.0" name="top"/>
  <anchor x="250" y="-8" name="cedilla"/>
  <anchor x="250" y="-8" name="ogonek"/>
  <anchor x="250" y="0" name="bottom"/>
  <outline>
    <contour>
      <point x="315" y="486" type="line"/>
      <point x="316" y="454"/>
      <point x="315" y="431"/>
      <point x="314.8333333333333" y="343" type="curve" smooth="yes"/>
      <point x="315" y="213"/>
      <point x="315.8333333333333" y="88"/>
      <point x="315.8333333333333" y="72" type="curve" smooth="yes"/>
      <point x="315.8333333333333" y="17"/>
      <point x="316" y="-8"/>
      <point x="250" y="-8" type="curve" smooth="yes"/>
      <point x="187" y="-8"/>
      <point x="179.33333333333334" y="27"/>
      <point x="182.16666666666669" y="73" type="curve" smooth="yes"/>
      <point x="182.16666666666669" y="79"/>
      <point x="182.16666666666669" y="262"/>
      <point x="183.16666666666669" y="301" type="curve" smooth="yes"/>
      <point x="183.16666666666669" y="278"/>
      <point x="183" y="447"/>
      <point x="183" y="481" type="curve"/>
    </contour>
    <contour>
      <point x="22" y="541.6666666666666" type="curve" smooth="yes"/>
      <point x="22" y="568"/>
      <point x="35" y="600"/>
      <point x="62" y="600" type="curve" smooth="yes"/>
      <point x="136" y="600"/>
      <point x="143" y="596"/>
      <point x="176" y="597.1666666666666" type="curve" smooth="yes"/>
      <point x="228" y="599"/>
      <point x="308" y="601"/>
      <point x="346" y="600" type="curve" smooth="yes"/>
      <point x="392" y="599"/>
      <point x="419" y="600"/>
      <point x="435" y="600" type="curve" smooth="yes"/>
      <point x="465" y="600"/>
      <point x="478" y="579"/>
      <point x="478" y="540.6666666666666" type="curve" smooth="yes"/>
      <point x="478" y="503.3333333333333"/>
      <point x="463" y="473.6666666666667"/>
      <point x="436" y="472.6666666666667" type="curve" smooth="yes"/>
      <point x="444" y="473.6666666666667"/>
      <point x="391" y="465"/>
      <point x="309" y="473.6666666666667" type="curve" smooth="yes"/>
      <point x="307" y="473.6666666666667"/>
      <point x="269" y="477.5"/>
      <point x="233" y="473.6666666666667" type="curve" smooth="yes"/>
      <point x="146" y="466"/>
      <point x="87" y="472.6666666666667"/>
      <point x="62" y="477.5" type="curve" smooth="yes"/>
      <point x="32" y="481.3333333333333"/>
      <point x="23" y="507"/>
    </contour>
  </outline>
</glyph>
<glyph name="U" format="2">
  <advance width="500.0"/>
  <unicode hex="0055"/>
  <anchor x="250.0" y="600.0" name="top"/>
  <anchor x="250" y="-16" name="cedilla"/>
  <anchor x="250" y="-16" name="ogonek"/>
  <anchor x="250" y="0" name="bottom"/>
  <anchor x="380" y="524" name="horn"/>
  <outline>
    <contour>
      <point x="182.83333333333331" y="533.8333333333334" type="curve" smooth="yes"/>
      <point x="180.83333333333331" y="503.8333333333333"/>
      <point x="182.0" y="348.8333333333333"/>
      <point x="183.83333333333331" y="302.6666666666667" type="curve" smooth="yes"/>
      <point x="185.66666666666666" y="211.16666666666666"/>
      <point x="190.66666666666666" y="171.83333333333334"/>
      <point x="198.33333333333331" y="152.16666666666666" type="curve" smooth="yes"/>
      <point x="204.83333333333331" y="132.83333333333331"/>
      <point x="219" y="118"/>
      <point x="250" y="118" type="curve" smooth="yes"/>
      <point x="283" y="118"/>
      <point x="296.0" y="134.5"/>
      <point x="307.3333333333333" y="161.83333333333331" type="curve" smooth="yes"/>
      <point x="319.1666666666667" y="183.83333333333334"/>
      <point x="322.83333333333337" y="218.5"/>
      <point x="318.1666666666667" y="302.8333333333333" type="curve" smooth="yes"/>
      <point x="315.33333333333337" y="351.1666666666667"/>
      <point x="318.33333333333337" y="511.8333333333333"/>
      <point x="317.1666666666667" y="540.3333333333334" type="curve" smooth="yes"/>
      <point x="318.0" y="552.5"/>
      <point x="326.5" y="605.8333333333334"/>
      <point x="377.3333333333333" y="607.0" type="curve" smooth="yes"/>
      <point x="418.6666666666667" y="607.1666666666666"/>
      <point x="444.0" y="585.0"/>
      <point x="447.0" y="560.0" type="curve" smooth="yes"/>
      <point x="452.0" y="511.0"/>
      <point x="442.6666666666667" y="400.0"/>
      <point x="450.0" y="301.0" type="curve" smooth="yes"/>
      <point x="457.3333333333333" y="196.0"/>
      <point x="447.0" y="144.0"/>
      <point x="424.0" y="96.0" type="curve" smooth="yes"/>
      <point x="387.0" y="21.0"/>
      <point x="342" y="-16"/>
      <point x="250" y="-16" type="curve" smooth="yes"/>
      <point x="173" y="-16"/>
      <point x="139.0" y="14.0"/>
      <point x="99.0" y="63.0" type="curve" smooth="yes"/>
      <point x="59.0" y="112.0"/>
      <point x="48.0" y="190.0"/>
      <point x="50.0" y="301.0" type="curve" smooth="yes"/>
      <point x="52.0" y="421.0"/>
      <point x="48.0" y="523.0"/>
      <point x="50.0" y="567.0" type="curve" smooth="yes"/>
      <point x="51.0" y="588.0"/>
      <point x="73.33333333333333" y="609.8333333333334"/>
      <point x="120.66666666666666" y="608.0" type="curve" smooth="yes"/>
      <point x="174.33333333333331" y="604.3333333333334"/>
      <point x="183.83333333333331" y="552.3333333333334"/>
    </contour>
  </outline>
</glyph>
<glyph name="V" format="2">
  <advance width="500.0"/>
  <unicode hex="0056"/>
  <anchor x="240" y="600" name="top"/>
  <anchor x="149" y="100" name="cedilla"/>
  <anchor x="151" y="100" name="ogonek"/>
  <anchor x="250" y="0" name="bottom"/>
  <outline>
    <contour>
      <point x="89" y="611" type="curve" smooth="yes"/>
      <point x="139" y="616"/>
      <point x="142" y="604"/>
      <point x="151" y="573" type="curve" smooth="yes"/>
      <point x="181" y="473"/>
      <point x="179" y="490"/>
      <point x="208" y="375" type="curve" smooth="yes"/>
      <point x="223" y="316"/>
      <point x="222" y="317"/>
      <point x="230" y="283" type="curve" smooth="yes"/>
      <point x="246" y="209"/>
      <point x="240" y="203"/>
      <point x="249" y="172" type="curve"/>
      <point x="256" y="238"/>
      <point x="260" y="282"/>
      <point x="272" y="352" type="curve" smooth="yes"/>
      <point x="281" y="416"/>
      <point x="292" y="474"/>
      <point x="340" y="573" type="curve" smooth="yes"/>
      <point x="356" y="604"/>
      <point x="386" y="618"/>
      <point x="421" y="607" type="curve" smooth="yes"/>
      <point x="462" y="594"/>
      <point x="479" y="570"/>
      <point x="468" y="544" type="curve" smooth="yes"/>
      <point x="453" y="508"/>
      <point x="446" y="493"/>
      <point x="438" y="470" type="curve" smooth="yes"/>
      <point x="418" y="413"/>
      <point x="387" y="311"/>
      <point x="385" y="303" type="curve" smooth="yes"/>
      <point x="356" y="204"/>
      <point x="336" y="112"/>
      <point x="316" y="40" type="curve" smooth="yes"/>
      <point x="308" y="11"/>
      <point x="270" y="-12"/>
      <point x="250" y="-12" type="curve" smooth="yes"/>
      <point x="231" y="-12"/>
      <point x="199" y="8"/>
      <point x="187" y="40" type="curve" smooth="yes"/>
      <point x="185" y="46"/>
      <point x="120" y="244"/>
      <point x="105" y="297" type="curve" smooth="yes"/>
      <point x="88" y="359"/>
      <point x="78" y="390"/>
      <point x="54" y="472" type="curve" smooth="yes"/>
      <point x="43" y="509"/>
      <point x="34" y="540"/>
      <point x="31" y="550" type="curve" smooth="yes"/>
      <point x="24" y="570"/>
      <point x="41" y="605"/>
    </contour>
  </outline>
</glyph>
<glyph name="W" format="2">
  <advance width="500.0"/>
  <unicode hex="0057"/>
  <anchor x="250.0" y="600.0" name="top"/>
  <anchor x="156" y="-9" name="cedilla"/>
  <anchor x="345" y="-9" name="ogonek"/>
  <anchor x="250.0" y="0.0" name="bottom"/>
  <outline>
    <contour>
      <point x="87" y="604" type="curve" smooth="yes"/>
      <point x="131" y="613"/>
      <point x="151" y="580"/>
      <point x="153" y="548" type="curve" smooth="yes"/>
      <point x="156" y="510"/>
      <point x="157" y="386"/>
      <point x="156" y="339" type="curve" smooth="yes"/>
      <point x="154" y="291"/>
      <point x="160" y="269"/>
      <point x="176" y="200" type="curve"/>
      <point x="188" y="263"/>
      <point x="188" y="256"/>
      <point x="197" y="316" type="curve" smooth="yes"/>
      <point x="199" y="328"/>
      <point x="191" y="357"/>
      <point x="250" y="357" type="curve" smooth="yes"/>
      <point x="316" y="357"/>
      <point x="309" y="324"/>
      <point x="310" y="316" type="curve" smooth="yes"/>
      <point x="318" y="257"/>
      <point x="317" y="267"/>
      <point x="325" y="200" type="curve"/>
      <point x="340" y="266"/>
      <point x="345" y="282"/>
      <point x="346" y="337" type="curve" smooth="yes"/>
      <point x="347" y="381"/>
      <point x="357" y="531"/>
      <point x="360" y="561" type="curve" smooth="yes"/>
      <point x="362" y="582"/>
      <point x="379" y="614"/>
      <point x="434" y="603" type="curve" smooth="yes"/>
      <point x="467" y="596"/>
      <point x="478" y="576"/>
      <point x="469" y="525" type="curve" smooth="yes"/>
      <point x="463" y="494"/>
      <point x="459" y="330"/>
      <point x="456" y="278" type="curve" smooth="yes"/>
      <point x="451" y="150"/>
      <point x="430" y="96"/>
      <point x="394" y="31.666666666666668" type="curve" smooth="yes"/>
      <point x="377" y="2"/>
      <point x="371" y="-9"/>
      <point x="345" y="-9" type="curve" smooth="yes"/>
      <point x="294" y="-9"/>
      <point x="289" y="-6"/>
      <point x="282" y="24" type="curve" smooth="yes"/>
      <point x="273" y="63"/>
      <point x="272" y="76"/>
      <point x="250" y="124" type="curve"/>
      <point x="228" y="76"/>
      <point x="225" y="64"/>
      <point x="217" y="30" type="curve" smooth="yes"/>
      <point x="208" y="-6"/>
      <point x="205" y="-9"/>
      <point x="156" y="-9" type="curve" smooth="yes"/>
      <point x="131" y="-9"/>
      <point x="119" y="4"/>
      <point x="107" y="34.5" type="curve" smooth="yes"/>
      <point x="56" y="169"/>
      <point x="51" y="188"/>
      <point x="44" y="280" type="curve" smooth="yes"/>
      <point x="42" y="303"/>
      <point x="42" y="501"/>
      <point x="39" y="534" type="curve" smooth="yes"/>
      <point x="28" y="589"/>
      <point x="57" y="603"/>
    </contour>
  </outline>
</glyph>
<glyph name="X" format="2">
  <advance width="500.0"/>
  <unicode hex="0058"/>
  <anchor x="250.0" y="600.0" name="top"/>
  <anchor x="89" y="-12" name="cedilla"/>
  <anchor x="416" y="-7" name="ogonek"/>
  <anchor x="250.0" y="0.0" name="bottom"/>
  <outline>
    <contour>
      <point x="447.0" y="605.0" type="curve" smooth="yes"/>
      <point x="469.1666666666667" y="591.5"/>
      <point x="490.5" y="562.0"/>
      <point x="476.5" y="545.0" type="curve" smooth="yes"/>
      <point x="457.5" y="519.0"/>
      <point x="307.6666666666667" y="270.0"/>
      <point x="318.6666666666667" y="289.0" type="curve" smooth="yes"/>
      <point x="298.6666666666667" y="257.0"/>
      <point x="213.66666666666666" y="115.0"/>
      <point x="165.66666666666666" y="43.0" type="curve" smooth="yes"/>
      <point x="141.66666666666666" y="8.0"/>
      <point x="98.16666666666666" y="-30.666666666666664"/>
      <point x="60" y="-2" type="curve" smooth="yes"/>
      <point x="38.833333333333336" y="15.833333333333334"/>
      <point x="19.5" y="40.0"/>
      <point x="45.5" y="79.0" type="curve" smooth="yes"/>
      <point x="58.5" y="97.0"/>
      <point x="157.33333333333334" y="272.0"/>
      <point x="214.33333333333334" y="358.0" type="curve" smooth="yes"/>
      <point x="309.3333333333333" y="503.0"/>
      <point x="341.3333333333333" y="563.0"/>
      <point x="363.3333333333333" y="586.0" type="curve" smooth="yes"/>
      <point x="385.3333333333333" y="610.0"/>
      <point x="409.8333333333333" y="624.3333333333334"/>
    </contour>
    <contour>
      <point x="55.0" y="599.0" type="curve" smooth="yes"/>
      <point x="97.66666666666666" y="622.0"/>
      <point x="116.66666666666666" y="605.0"/>
      <point x="140.66666666666666" y="584.0" type="curve" smooth="yes"/>
      <point x="164.66666666666666" y="562.0"/>
      <point x="189.5" y="502.0"/>
      <point x="286.5" y="358.0" type="curve" smooth="yes"/>
      <point x="344.5" y="273.0"/>
      <point x="453.5" y="99.0"/>
      <point x="465.5" y="80.0" type="curve" smooth="yes"/>
      <point x="490.5" y="41.0"/>
      <point x="477.5" y="5.833333333333334"/>
      <point x="449.0" y="-1.0" type="curve" smooth="yes"/>
      <point x="393.3333333333333" y="-21.333333333333332"/>
      <point x="367.3333333333333" y="10.0"/>
      <point x="344.3333333333333" y="46.0" type="curve" smooth="yes"/>
      <point x="298.3333333333333" y="119.0"/>
      <point x="221.5" y="257.0"/>
      <point x="201.5" y="289.0" type="curve" smooth="yes"/>
      <point x="212.5" y="270.0"/>
      <point x="52.5" y="514.0"/>
      <point x="30.5" y="539.0" type="curve" smooth="yes"/>
      <point x="15.5" y="555.0"/>
      <point x="33.833333333333336" y="587.1666666666666"/>
    </contour>
  </outline>
</glyph>
<glyph name="Y" format="2">
  <advance width="500.0"/>
  <unicode hex="0059"/>
  <anchor x="250.0" y="600.0" name="top"/>
  <anchor x="250" y="-8" name="cedilla"/>
  <anchor x="250" y="-8" name="ogonek"/>
  <anchor x="250" y="0" name="bottom"/>
  <outline>
    <contour>
      <point x="184" y="311" type="curve"/>
      <point x="183" y="313"/>
      <point x="129.33333333333334" y="383"/>
      <point x="107.33333333333334" y="415" type="curve" smooth="yes"/>
      <point x="118.33333333333334" y="400"/>
      <point x="41" y="509"/>
      <point x="25" y="532" type="curve" smooth="yes"/>
      <point x="4" y="563"/>
      <point x="23" y="587"/>
      <point x="43" y="599" type="curve" smooth="yes"/>
      <point x="87" y="626"/>
      <point x="103" y="617"/>
      <point x="135.5" y="571.5" type="curve" smooth="yes"/>
      <point x="147" y="555"/>
      <point x="169.5" y="523.8333333333334"/>
      <point x="198.16666666666666" y="484.5" type="curve" smooth="yes"/>
      <point x="223.5" y="450.5"/>
      <point x="243" y="426"/>
      <point x="250" y="416" type="curve"/>
      <point x="265.5030292905681" y="439.25454393585215"/>
      <point x="282.2371585746991" y="461.6579582138634"/>
      <point x="299.6666666666667" y="483.5" type="curve" smooth="yes"/>
      <point x="319.8333333333333" y="511"/>
      <point x="359" y="566"/>
      <point x="363.6666666666667" y="573.5" type="curve" smooth="yes"/>
      <point x="395" y="620"/>
      <point x="410" y="628"/>
      <point x="454" y="603" type="curve" smooth="yes"/>
      <point x="479" y="589"/>
      <point x="492" y="560"/>
      <point x="481" y="543" type="curve" smooth="yes"/>
      <point x="474" y="533"/>
      <point x="441.6666666666667" y="487"/>
      <point x="390.6666666666667" y="418" type="curve" smooth="yes"/>
      <point x="371.6666666666667" y="391"/>
      <point x="313" y="313"/>
      <point x="312" y="311" type="curve"/>
      <point x="311.1666666666667" y="223" type="line" smooth="yes"/>
      <point x="310" y="93"/>
      <point x="312.1666666666667" y="88"/>
      <point x="312.1666666666667" y="72" type="curve" smooth="yes"/>
      <point x="312.1666666666667" y="17"/>
      <point x="298" y="-6"/>
      <point x="252" y="-8" type="curve" smooth="yes"/>
      <point x="192" y="-10"/>
      <point x="183" y="27"/>
      <point x="185.83333333333334" y="73" type="curve" smooth="yes"/>
      <point x="185.83333333333334" y="76"/>
      <point x="187" y="146"/>
      <point x="186.83333333333334" y="181" type="curve" smooth="yes"/>
      <point x="187" y="224"/>
      <point x="184" y="277"/>
    </contour>
  </outline>
</glyph>
<glyph name="Z" format="2">
  <advance width="500.0"/>
  <unicode hex="005A"/>
  <anchor x="250.0" y="600.0" name="top"/>
  <anchor x="250" y="3" name="cedilla"/>
  <anchor x="350" y="3" name="ogonek"/>
  <anchor x="258.0" y="0.0" name="bottom"/>
  <outline>
    <contour>
      <point x="435" y="602" type="curve" smooth="yes"/>
      <point x="474" y="604"/>
      <point x="491" y="562"/>
      <point x="483" y="530" type="curve" smooth="yes"/>
      <point x="475" y="505"/>
      <point x="453" y="463"/>
      <point x="409" y="398" type="curve" smooth="yes"/>
      <point x="382" y="357"/>
      <point x="342" y="297"/>
      <point x="321" y="267" type="curve" smooth="yes"/>
      <point x="240" y="148"/>
      <point x="207" y="136"/>
      <point x="178" y="113" type="curve"/>
      <point x="195" y="122"/>
      <point x="236" y="122"/>
      <point x="265" y="122" type="curve" smooth="yes"/>
      <point x="359" y="123"/>
      <point x="407" y="121"/>
      <point x="431" y="118" type="curve" smooth="yes"/>
      <point x="461" y="115"/>
      <point x="479" y="52"/>
      <point x="479" y="46" type="curve" smooth="yes"/>
      <point x="479" y="12"/>
      <point x="470" y="-1"/>
      <point x="442" y="1" type="curve" smooth="yes"/>
      <point x="407" y="3"/>
      <point x="371" y="2"/>
      <point x="350" y="3" type="curve" smooth="yes"/>
      <point x="287" y="5"/>
      <point x="253" y="2"/>
      <point x="159" y="0" type="curve" smooth="yes"/>
      <point x="111" y="-1"/>
      <point x="86" y="-2"/>
      <point x="70" y="-2" type="curve" smooth="yes"/>
      <point x="53" y="-2"/>
      <point x="24" y="7"/>
      <point x="25" y="25" type="curve" smooth="yes"/>
      <point x="26" y="42"/>
      <point x="14" y="62"/>
      <point x="43" y="101" type="curve" smooth="yes"/>
      <point x="56" y="119"/>
      <point x="169" y="267"/>
      <point x="228" y="353" type="curve" smooth="yes"/>
      <point x="276" y="422"/>
      <point x="314" y="452"/>
      <point x="347" y="489" type="curve"/>
      <point x="330" y="478"/>
      <point x="300" y="480"/>
      <point x="277" y="481" type="curve" smooth="yes"/>
      <point x="238" y="481" type="line" smooth="yes"/>
      <point x="222" y="481"/>
      <point x="207" y="481"/>
      <point x="193" y="481" type="curve" smooth="yes"/>
      <point x="142" y="481"/>
      <point x="105" y="481"/>
      <point x="87" y="483" type="curve" smooth="yes"/>
      <point x="57" y="485"/>
      <point x="44" y="513"/>
      <point x="48" y="534" type="curve" smooth="yes"/>
      <point x="52" y="566"/>
      <point x="60" y="600"/>
      <point x="87" y="600" type="curve" smooth="yes"/>
      <point x="161" y="600"/>
      <point x="155" y="599"/>
      <point x="181" y="599" type="curve" smooth="yes"/>
      <point x="202" y="599"/>
      <point x="227" y="599"/>
      <point x="252" y="600" type="curve" smooth="yes"/>
      <point x="290" y="600"/>
      <point x="328" y="601"/>
      <point x="358" y="600" type="curve" smooth="yes"/>
      <point x="393" y="599"/>
      <point x="419" y="601"/>
    </contour>
  </outline>
</glyph>
<glyph name="bracketleft" format="2">
  <advance width="500.0"/>
  <unicode hex="005B"/>
  <outline>
    <contour>
      <point x="112" y="634" type="curve"/>
      <point x="232" y="641" type="line"/>
      <point x="233" y="523"/>
      <point x="235" y="521"/>
      <point x="232" y="311" type="curve" smooth="yes"/>
      <point x="230" y="106"/>
      <point x="232" y="170"/>
      <point x="233" y="10" type="curve"/>
      <point x="112" y="-59" type="line"/>
      <point x="112" y="-54"/>
      <point x="112" y="-49"/>
      <point x="112" y="-44" type="curve" smooth="yes"/>
      <point x="112" y="-38"/>
      <point x="110" y="80"/>
      <point x="113" y="291" type="curve" smooth="yes"/>
      <point x="116" y="530"/>
      <point x="111" y="564"/>
    </contour>
    <contour>
      <point x="112" y="-59" type="curve" smooth="yes"/>
      <point x="111" y="-45"/>
      <point x="120" y="16"/>
      <point x="152" y="18" type="curve" smooth="yes"/>
      <point x="204" y="21"/>
      <point x="228" y="20"/>
      <point x="251" y="20" type="curve" smooth="yes"/>
      <point x="305" y="20"/>
      <point x="297" y="24"/>
      <point x="351" y="23" type="curve" smooth="yes"/>
      <point x="378" y="23"/>
      <point x="390" y="12"/>
      <point x="390" y="-43.66666666666667" type="curve" smooth="yes"/>
      <point x="389.1666666666667" y="-95.33333333333333"/>
      <point x="374" y="-94"/>
      <point x="342" y="-96" type="curve" smooth="yes"/>
      <point x="293" y="-98"/>
      <point x="255" y="-100"/>
      <point x="255" y="-100" type="curve" smooth="yes"/>
      <point x="215" y="-98"/>
      <point x="181" y="-102"/>
      <point x="159" y="-100" type="curve" smooth="yes"/>
      <point x="131" y="-98"/>
      <point x="113" y="-85"/>
    </contour>
    <contour>
      <point x="112" y="634" type="curve" smooth="yes"/>
      <point x="113" y="660"/>
      <point x="131" y="673"/>
      <point x="159" y="675" type="curve" smooth="yes"/>
      <point x="181" y="677"/>
      <point x="215" y="672"/>
      <point x="255" y="674" type="curve" smooth="yes"/>
      <point x="255" y="674"/>
      <point x="294" y="674"/>
      <point x="342" y="671" type="curve" smooth="yes"/>
      <point x="374" y="669"/>
      <point x="391" y="670.3333333333334"/>
      <point x="390" y="618.6666666666666" type="curve" smooth="yes"/>
      <point x="388.1666666666667" y="563"/>
      <point x="378" y="552"/>
      <point x="351" y="552" type="curve" smooth="yes"/>
      <point x="297" y="551"/>
      <point x="305" y="555"/>
      <point x="251" y="555" type="curve" smooth="yes"/>
      <point x="228" y="555"/>
      <point x="204" y="554"/>
      <point x="152" y="557" type="curve" smooth="yes"/>
      <point x="120" y="559"/>
      <point x="111" y="620"/>
    </contour>
  </outline>
</glyph>
<glyph name="asciicircum" format="2">
  <advance width="500.0"/>
  <unicode hex="005E"/>
  <outline>
    <contour>
      <point x="67" y="345" type="curve" smooth="yes"/>
      <point x="54" y="355"/>
      <point x="52" y="375"/>
      <point x="71" y="398" type="curve" smooth="yes"/>
      <point x="104" y="437"/>
      <point x="127" y="463"/>
      <point x="133" y="473" type="curve" smooth="yes"/>
      <point x="153" y="500"/>
      <point x="205" y="572"/>
      <point x="229" y="593" type="curve" smooth="yes"/>
      <point x="240" y="604"/>
      <point x="252" y="608"/>
      <point x="262" y="605" type="curve" smooth="yes"/>
      <point x="269" y="604"/>
      <point x="275" y="600"/>
      <point x="282" y="594" type="curve" smooth="yes"/>
      <point x="306" y="573"/>
      <point x="348" y="498"/>
      <point x="371" y="469" type="curve" smooth="yes"/>
      <point x="382" y="454"/>
      <point x="392" y="437"/>
      <point x="431" y="397" type="curve" smooth="yes"/>
      <point x="452" y="375"/>
      <point x="444" y="354"/>
      <point x="431" y="343" type="curve" smooth="yes"/>
      <point x="419" y="334"/>
      <point x="402" y="287.1666666666667"/>
      <point x="382" y="307.1666666666667" type="curve" smooth="yes"/>
      <point x="369" y="319.1666666666667"/>
      <point x="346" y="353.1666666666667"/>
      <point x="327" y="376.1666666666667" type="curve" smooth="yes"/>
      <point x="303" y="406.1666666666667"/>
      <point x="262" y="464.1666666666667"/>
      <point x="254" y="482.1666666666667" type="curve"/>
      <point x="244" y="465.1666666666667"/>
      <point x="199" y="409.1666666666667"/>
      <point x="179" y="380.1666666666667" type="curve" smooth="yes"/>
      <point x="162" y="355.1666666666667"/>
      <point x="130" y="318.1666666666667"/>
      <point x="116" y="306.1666666666667" type="curve" smooth="yes"/>
      <point x="95" y="288.1666666666667"/>
      <point x="78" y="335"/>
    </contour>
  </outline>
</glyph>
<glyph name="underscore" format="2">
  <advance width="500.0"/>
  <unicode hex="005F"/>
  <outline>
    <contour>
      <point x="56.0" y="-49.833333333333336" type="curve" smooth="yes"/>
      <point x="56.0" y="5.833333333333329"/>
      <point x="64.0" y="9.666666666666664"/>
      <point x="96.0" y="10.666666666666664" type="curve" smooth="yes"/>
      <point x="148.0" y="12.666666666666664"/>
      <point x="212.0" y="10.666666666666664"/>
      <point x="235.0" y="10.666666666666664" type="curve" smooth="yes"/>
      <point x="289.0" y="9.666666666666664"/>
      <point x="351.0" y="12.666666666666664"/>
      <point x="405.0" y="10.666666666666664" type="curve" smooth="yes"/>
      <point x="432.0" y="9.666666666666664"/>
      <point x="444.0" y="2.8333333333333286"/>
      <point x="444.0" y="-52.833333333333336" type="curve" smooth="yes"/>
      <point x="444.0" y="-104.5"/>
      <point x="427.0" y="-112.33333333333333"/>
      <point x="395.0" y="-113.33333333333333" type="curve" smooth="yes"/>
      <point x="347.0" y="-114.33333333333333"/>
      <point x="275.0" y="-116.33333333333333"/>
      <point x="238.0" y="-114.33333333333333" type="curve" smooth="yes"/>
      <point x="198.0" y="-112.33333333333333"/>
      <point x="124.0" y="-114.33333333333333"/>
      <point x="102.0" y="-112.33333333333333" type="curve" smooth="yes"/>
      <point x="74.0" y="-109.33333333333333"/>
      <point x="56.0" y="-106.5"/>
    </contour>
  </outline>
</glyph>
<glyph name="grave" format="2">
  <advance width="500"/>
  <unicode hex="0060"/>
  <anchor x="250" y="600" name="top"/>
  <outline>
    <contour>
      <point x="349" y="423" type="curve" smooth="yes"/>
      <point x="307" y="423"/>
      <point x="296.5" y="420"/>
      <point x="272.5" y="438" type="curve" smooth="yes"/>
      <point x="243.5" y="459"/>
      <point x="201.5" y="489"/>
      <point x="154.5" y="536" type="curve" smooth="yes"/>
      <point x="145.5" y="546"/>
      <point x="143.66666666666666" y="557.6666666666666"/>
      <point x="175" y="591" type="curve" smooth="yes"/>
      <point x="211.16666666666666" y="628.3333333333334"/>
      <point x="232.33333333333334" y="610"/>
      <point x="250.33333333333334" y="592" type="curve" smooth="yes"/>
      <point x="290.3333333333333" y="552"/>
      <point x="339.3333333333333" y="506"/>
      <point x="359.3333333333333" y="481" type="curve" smooth="yes"/>
      <point x="375.3333333333333" y="462"/>
      <point x="381" y="423"/>
    </contour>
  </outline>
</glyph>
<glyph name="a" format="2">
  <advance width="500.0"/>
  <unicode hex="0061"/>
  <anchor x="233.0" y="400.0" name="top"/>
  <anchor x="189" y="-8" name="cedilla"/>
  <anchor x="394" y="-8" name="ogonek"/>
  <anchor x="251.0" y="0.0" name="bottom"/>
  <outline>
    <contour>
      <point x="242" y="254" type="curve" smooth="yes"/>
      <point x="299" y="257"/>
      <point x="306" y="250"/>
      <point x="327" y="246" type="curve"/>
      <point x="347" y="145" type="line"/>
      <point x="320" y="144"/>
      <point x="324" y="153"/>
      <point x="298" y="154" type="curve" smooth="yes"/>
      <point x="231" y="156"/>
      <point x="162" y="151"/>
      <point x="160" y="118" type="curve" smooth="yes"/>
      <point x="159" y="97"/>
      <point x="211" y="98"/>
      <point x="232" y="99" type="curve" smooth="yes"/>
      <point x="312" y="103"/>
      <point x="314" y="117"/>
      <point x="318" y="191" type="curve"/>
      <point x="359" y="39" type="line"/>
      <point x="318" y="10"/>
      <point x="293" y="3"/>
      <point x="256" y="-3" type="curve" smooth="yes"/>
      <point x="201" y="-12"/>
      <point x="51" y="-24"/>
      <point x="51" y="101" type="curve" smooth="yes"/>
      <point x="51" y="229"/>
      <point x="171" y="252"/>
    </contour>
    <contour>
      <point x="432" y="238" type="curve" smooth="yes"/>
      <point x="432" y="190"/>
      <point x="428" y="156"/>
      <point x="441" y="82" type="curve" smooth="yes"/>
      <point x="458" y="34"/>
      <point x="472" y="9"/>
      <point x="432" y="-6" type="curve" smooth="yes"/>
      <point x="404" y="-16"/>
      <point x="377" y="-7"/>
      <point x="359" y="14" type="curve" smooth="yes"/>
      <point x="309" y="73"/>
      <point x="318" y="166"/>
      <point x="318" y="226" type="curve" smooth="yes"/>
      <point x="318" y="290"/>
      <point x="242" y="298"/>
      <point x="220" y="298" type="curve" smooth="yes"/>
      <point x="175" y="298"/>
      <point x="169" y="284"/>
      <point x="133" y="278" type="curve" smooth="yes"/>
      <point x="90" y="271"/>
      <point x="75" y="288"/>
      <point x="65" y="307" type="curve" smooth="yes"/>
      <point x="53" y="334"/>
      <point x="78" y="372"/>
      <point x="134" y="394" type="curve" smooth="yes"/>
      <point x="169" y="407"/>
      <point x="187" y="410"/>
      <point x="227" y="410" type="curve" smooth="yes"/>
      <point x="249" y="410"/>
      <point x="432" y="414"/>
    </contour>
  </outline>
</glyph>
<glyph name="b" format="2">
  <advance width="500.0"/>
  <unicode hex="0062"/>
  <anchor x="260.0" y="600.0" name="top"/>
  <anchor x="185" y="-12" name="cedilla"/>
  <anchor x="185" y="-12" name="ogonek"/>
  <anchor x="250.0" y="0.0" name="bottom"/>
  <outline>
    <contour>
      <point x="81" y="11" type="curve" smooth="yes"/>
      <point x="78" y="14"/>
      <point x="55" y="38"/>
      <point x="51" y="73" type="curve" smooth="yes"/>
      <point x="49" y="91"/>
      <point x="40" y="169"/>
      <point x="51" y="301" type="curve" smooth="yes"/>
      <point x="62" y="433"/>
      <point x="52" y="527"/>
      <point x="52" y="561" type="curve" smooth="yes"/>
      <point x="51" y="582"/>
      <point x="31" y="604"/>
      <point x="107" y="613" type="curve" smooth="yes"/>
      <point x="166" y="614"/>
      <point x="172" y="599"/>
      <point x="175" y="566" type="curve" smooth="yes"/>
      <point x="178" y="534"/>
      <point x="183" y="445"/>
      <point x="176" y="343" type="curve" smooth="yes"/>
      <point x="166" y="208"/>
      <point x="151" y="193"/>
      <point x="161" y="145" type="curve" smooth="yes"/>
      <point x="167" y="113"/>
      <point x="197.10283248697047" y="115"/>
      <point x="211" y="115" type="curve" smooth="yes"/>
      <point x="281" y="115"/>
      <point x="340" y="134"/>
      <point x="340" y="224" type="curve" smooth="yes"/>
      <point x="340" y="276"/>
      <point x="325" y="292"/>
      <point x="252" y="281" type="curve" smooth="yes"/>
      <point x="219" y="274"/>
      <point x="172" y="265"/>
      <point x="159" y="206" type="curve"/>
      <point x="153" y="368" type="line"/>
      <point x="188" y="404"/>
      <point x="280" y="416"/>
      <point x="296" y="414" type="curve" smooth="yes"/>
      <point x="390" y="414"/>
      <point x="463" y="388"/>
      <point x="463" y="232" type="curve" smooth="yes"/>
      <point x="463" y="77"/>
      <point x="418" y="-12"/>
      <point x="185" y="-12" type="curve" smooth="yes"/>
      <point x="158" y="-12"/>
      <point x="100" y="-8"/>
    </contour>
  </outline>
</glyph>
<glyph name="c" format="2">
  <advance width="500.0"/>
  <unicode hex="0063"/>
  <anchor x="250.0" y="400.0" name="top"/>
  <anchor x="261" y="-10" name="cedilla"/>
  <anchor x="261" y="-10" name="ogonek"/>
  <anchor x="250" y="0" name="bottom"/>
  <outline>
    <contour>
      <point x="373" y="171" type="curve" smooth="yes"/>
      <point x="383" y="184"/>
      <point x="404" y="167"/>
      <point x="418" y="156" type="curve" smooth="yes"/>
      <point x="436" y="139"/>
      <point x="446" y="119"/>
      <point x="432" y="95" type="curve" smooth="yes"/>
      <point x="392" y="25"/>
      <point x="321" y="-10"/>
      <point x="261" y="-10" type="curve" smooth="yes"/>
      <point x="151" y="-10"/>
      <point x="61" y="53"/>
      <point x="61" y="200" type="curve" smooth="yes"/>
      <point x="61" y="363"/>
      <point x="151" y="410"/>
      <point x="261" y="410" type="curve" smooth="yes"/>
      <point x="333" y="410"/>
      <point x="376" y="389"/>
      <point x="426" y="324" type="curve" smooth="yes"/>
      <point x="437" y="309"/>
      <point x="433" y="283"/>
      <point x="417" y="270" type="curve" smooth="yes"/>
      <point x="397" y="253"/>
      <point x="370" y="245"/>
      <point x="352" y="263" type="curve" smooth="yes"/>
      <point x="324" y="291"/>
      <point x="298" y="292"/>
      <point x="262" y="292" type="curve" smooth="yes"/>
      <point x="191" y="292"/>
      <point x="181" y="266"/>
      <point x="181" y="200" type="curve" smooth="yes"/>
      <point x="181" y="152"/>
      <point x="186" y="109"/>
      <point x="262" y="109" type="curve" smooth="yes"/>
      <point x="293" y="109"/>
      <point x="337" y="129"/>
    </contour>
  </outline>
</glyph>
<glyph name="d" format="2">
  <advance width="500.0"/>
  <unicode hex="0064"/>
  <anchor x="240.0" y="600.0" name="top"/>
  <anchor x="223" y="-10" name="cedilla"/>
  <anchor x="359" y="-3" name="ogonek"/>
  <anchor x="235.5" y="0.0" name="bottom"/>
  <outline>
    <contour>
      <point x="343.5" y="606" type="curve" smooth="yes"/>
      <point x="375.3333333333333" y="606"/>
      <point x="405.3333333333333" y="598"/>
      <point x="408.3333333333333" y="566" type="curve" smooth="yes"/>
      <point x="411.3333333333333" y="534"/>
      <point x="410" y="470"/>
      <point x="409.3333333333333" y="343" type="curve" smooth="yes"/>
      <point x="409" y="221"/>
      <point x="410" y="223"/>
      <point x="409" y="174" type="curve" smooth="yes"/>
      <point x="408" y="127"/>
      <point x="410" y="106"/>
      <point x="436.6666666666667" y="106.66666666666666" type="curve" smooth="yes"/>
      <point x="451" y="107"/>
      <point x="451" y="84"/>
      <point x="451" y="61.666666666666664" type="curve" smooth="yes"/>
      <point x="451" y="-6"/>
      <point x="445" y="-3"/>
      <point x="359" y="-3" type="curve" smooth="yes"/>
      <point x="309" y="-3"/>
      <point x="288" y="38"/>
      <point x="290" y="94" type="curve" smooth="yes"/>
      <point x="292" y="149"/>
      <point x="287" y="203.33333333333334"/>
      <point x="285" y="264.3333333333333" type="curve" smooth="yes"/>
      <point x="281" y="395.3333333333333"/>
      <point x="285" y="527"/>
      <point x="285" y="561" type="curve" smooth="yes"/>
      <point x="284" y="582"/>
      <point x="303.1666666666667" y="606"/>
    </contour>
    <contour>
      <point x="295" y="165.66666666666666" type="curve"/>
      <point x="313" y="56" type="line"/>
      <point x="311" y="48"/>
      <point x="308" y="-10"/>
      <point x="223" y="-10" type="curve" smooth="yes"/>
      <point x="124" y="-10"/>
      <point x="43" y="53"/>
      <point x="43" y="200" type="curve" smooth="yes"/>
      <point x="43" y="363"/>
      <point x="133" y="410"/>
      <point x="243" y="410" type="curve" smooth="yes"/>
      <point x="287" y="410"/>
      <point x="300" y="386"/>
      <point x="307" y="374" type="curve"/>
      <point x="295" y="226.33333333333334" type="line"/>
      <point x="280" y="258.3333333333333"/>
      <point x="307" y="284.83333333333337"/>
      <point x="226" y="284.83333333333337" type="curve" smooth="yes"/>
      <point x="165" y="284.83333333333337"/>
      <point x="166.66666666666666" y="238.66666666666669"/>
      <point x="166.66666666666666" y="200" type="curve" smooth="yes"/>
      <point x="166.66666666666666" y="168.33333333333331"/>
      <point x="196.66666666666666" y="118.16666666666666"/>
      <point x="224" y="118.16666666666666" type="curve" smooth="yes"/>
      <point x="260" y="118.16666666666666"/>
      <point x="259" y="124.66666666666666"/>
    </contour>
  </outline>
</glyph>
<glyph name="e" format="2">
  <advance width="500.0"/>
  <unicode hex="0065"/>
  <anchor x="260.0" y="400.0" name="top"/>
  <anchor x="211" y="-9" name="cedilla"/>
  <anchor x="355" y="0" name="ogonek"/>
  <anchor x="250.0" y="0.0" name="bottom"/>
  <outline>
    <contour>
      <point x="355" y="157" type="curve" smooth="yes"/>
      <point x="307" y="157"/>
      <point x="268" y="152"/>
      <point x="231" y="152" type="curve" smooth="yes"/>
      <point x="189" y="152"/>
      <point x="137" y="154"/>
      <point x="135" y="157" type="curve"/>
      <point x="135" y="251" type="line"/>
      <point x="174" y="249"/>
      <point x="228" y="248"/>
      <point x="250" y="248" type="curve" smooth="yes"/>
      <point x="285" y="248"/>
      <point x="321" y="251"/>
      <point x="354" y="252" type="curve"/>
      <point x="354" y="293"/>
      <point x="334" y="314"/>
      <point x="264" y="314" type="curve" smooth="yes"/>
      <point x="194" y="314"/>
      <point x="152" y="298"/>
      <point x="152" y="197" type="curve" smooth="yes"/>
      <point x="152" y="155"/>
      <point x="163" y="109"/>
      <point x="206" y="102" type="curve" smooth="yes"/>
      <point x="297" y="87"/>
      <point x="354" y="106"/>
      <point x="367" y="108" type="curve" smooth="yes"/>
      <point x="400" y="114"/>
      <point x="439" y="116"/>
      <point x="444" y="66" type="curve" smooth="yes"/>
      <point x="448" y="27"/>
      <point x="430" y="16"/>
      <point x="414" y="9" type="curve" smooth="yes"/>
      <point x="370" y="-9"/>
      <point x="329" y="-9"/>
      <point x="211" y="-9" type="curve" smooth="yes"/>
      <point x="123" y="-9"/>
      <point x="51" y="29"/>
      <point x="51" y="192" type="curve" smooth="yes"/>
      <point x="51" y="373"/>
      <point x="166" y="413"/>
      <point x="261" y="413" type="curve" smooth="yes"/>
      <point x="358" y="413"/>
      <point x="447" y="377"/>
      <point x="447" y="222" type="curve" smooth="yes"/>
      <point x="447" y="152"/>
      <point x="418" y="157"/>
    </contour>
  </outline>
</glyph>
<glyph name="f" format="2">
  <advance width="500.0"/>
  <unicode hex="0066"/>
  <anchor x="271.6666666666667" y="600.0" name="top"/>
  <anchor x="216" y="-10" name="cedilla"/>
  <anchor x="216" y="-10" name="ogonek"/>
  <anchor x="250.0" y="0.0" name="bottom"/>
  <outline>
    <contour>
      <point x="451" y="458" type="curve" smooth="yes"/>
      <point x="432" y="440"/>
      <point x="407" y="418"/>
      <point x="387" y="438" type="curve" smooth="yes"/>
      <point x="337" y="490"/>
      <point x="337" y="492"/>
      <point x="314" y="486" type="curve" smooth="yes"/>
      <point x="292" y="480"/>
      <point x="289" y="428"/>
      <point x="287" y="369" type="curve" smooth="yes"/>
      <point x="280" y="212"/>
      <point x="276" y="183"/>
      <point x="288" y="56" type="curve" smooth="yes"/>
      <point x="294" y="9"/>
      <point x="270" y="-10"/>
      <point x="216" y="-10" type="curve" smooth="yes"/>
      <point x="143" y="-10"/>
      <point x="150" y="17"/>
      <point x="150" y="57" type="curve" smooth="yes"/>
      <point x="150" y="201"/>
      <point x="152" y="365"/>
      <point x="154" y="407" type="curve" smooth="yes"/>
      <point x="156" y="445"/>
      <point x="152" y="611"/>
      <point x="289" y="608" type="curve" smooth="yes"/>
      <point x="334" y="607"/>
      <point x="379" y="607"/>
      <point x="437" y="541" type="curve" smooth="yes"/>
      <point x="449" y="528"/>
      <point x="475" y="482"/>
    </contour>
    <contour>
      <point x="415" y="304" type="curve" smooth="yes"/>
      <point x="414" y="291"/>
      <point x="404" y="255"/>
      <point x="374" y="255" type="curve" smooth="yes"/>
      <point x="322" y="257"/>
      <point x="300" y="258"/>
      <point x="288" y="258" type="curve" smooth="yes"/>
      <point x="254" y="258"/>
      <point x="134" y="252"/>
      <point x="106" y="247" type="curve" smooth="yes"/>
      <point x="83" y="243"/>
      <point x="67" y="281"/>
      <point x="66" y="300" type="curve" smooth="yes"/>
      <point x="66" y="316"/>
      <point x="83" y="359"/>
      <point x="115" y="360" type="curve" smooth="yes"/>
      <point x="163" y="360"/>
      <point x="270" y="370"/>
      <point x="307" y="370" type="curve" smooth="yes"/>
      <point x="339" y="370"/>
      <point x="362" y="368"/>
      <point x="377" y="365" type="curve" smooth="yes"/>
      <point x="410" y="361"/>
      <point x="416" y="322"/>
    </contour>
  </outline>
</glyph>
<glyph name="g" format="2">
  <advance width="500.0"/>
  <unicode hex="0067"/>
  <anchor x="250.0" y="400.0" name="top"/>
  <anchor x="245" y="-115" name="cedilla"/>
  <anchor x="245" y="-115" name="ogonek"/>
  <anchor x="250.0" y="0.0" name="bottom"/>
  <outline>
    <contour>
      <point x="43" y="-5" type="curve" smooth="yes"/>
      <point x="65" y="33"/>
      <point x="82" y="29"/>
      <point x="108" y="16" type="curve" smooth="yes"/>
      <point x="139" y="0"/>
      <point x="199" y="-10"/>
      <point x="246" y="-5" type="curve" smooth="yes"/>
      <point x="273" y="-2"/>
      <point x="313" y="11"/>
      <point x="332" y="46" type="curve" smooth="yes"/>
      <point x="353" y="87"/>
      <point x="329" y="131"/>
      <point x="326" y="195" type="curve" smooth="yes"/>
      <point x="322" y="281"/>
      <point x="328" y="338"/>
      <point x="339" y="367" type="curve" smooth="yes"/>
      <point x="360" y="414"/>
      <point x="392" y="436"/>
      <point x="432" y="407" type="curve" smooth="yes"/>
      <point x="458" y="388"/>
      <point x="455" y="360"/>
      <point x="441" y="314" type="curve" smooth="yes"/>
      <point x="428" y="271"/>
      <point x="437" y="230"/>
      <point x="439" y="203" type="curve" smooth="yes"/>
      <point x="441" y="155"/>
      <point x="452" y="107"/>
      <point x="452" y="84" type="curve" smooth="yes"/>
      <point x="451" y="22"/>
      <point x="422" y="-103"/>
      <point x="245" y="-115" type="curve" smooth="yes"/>
      <point x="179" y="-119"/>
      <point x="147" y="-115"/>
      <point x="97" y="-95" type="curve" smooth="yes"/>
      <point x="19" y="-65"/>
      <point x="28" y="-33"/>
    </contour>
    <contour>
      <point x="356" y="357" type="curve"/>
      <point x="332" y="263" type="line"/>
      <point x="294" y="297"/>
      <point x="287" y="312"/>
      <point x="216" y="315" type="curve" smooth="yes"/>
      <point x="169" y="317"/>
      <point x="151" y="286"/>
      <point x="151" y="224" type="curve" smooth="yes"/>
      <point x="151" y="192"/>
      <point x="188" y="154"/>
      <point x="221" y="153" type="curve" smooth="yes"/>
      <point x="265" y="150"/>
      <point x="297" y="144"/>
      <point x="340" y="266" type="curve"/>
      <point x="347" y="125" type="line"/>
      <point x="314" y="70"/>
      <point x="262" y="52"/>
      <point x="229" y="52" type="curve" smooth="yes"/>
      <point x="195" y="52"/>
      <point x="40" y="58"/>
      <point x="40" y="217" type="curve" smooth="yes"/>
      <point x="40" y="320"/>
      <point x="62" y="416"/>
      <point x="223" y="417" type="curve" smooth="yes"/>
      <point x="327" y="417"/>
      <point x="326" y="386"/>
    </contour>
  </outline>
</glyph>
<glyph name="h" format="2">
  <advance width="500.0"/>
  <unicode hex="0068"/>
  <anchor x="265" y="600" name="top"/>
  <anchor x="102" y="-8" name="cedilla"/>
  <anchor x="403" y="-9" name="ogonek"/>
  <anchor x="250" y="0" name="bottom"/>
  <outline>
    <contour>
      <point x="124" y="611" type="curve" smooth="yes"/>
      <point x="189" y="609"/>
      <point x="186" y="578"/>
      <point x="183" y="557" type="curve" smooth="yes"/>
      <point x="174" y="486"/>
      <point x="179" y="386"/>
      <point x="179" y="275" type="curve" smooth="yes"/>
      <point x="179" y="221"/>
      <point x="172" y="81"/>
      <point x="173" y="75" type="curve" smooth="yes"/>
      <point x="177" y="-3"/>
      <point x="169" y="-10"/>
      <point x="102" y="-8" type="curve" smooth="yes"/>
      <point x="65" y="-8"/>
      <point x="46" y="-8"/>
      <point x="54" y="70" type="curve" smooth="yes"/>
      <point x="58" y="111"/>
      <point x="63" y="229"/>
      <point x="60" y="346" type="curve" smooth="yes"/>
      <point x="56" y="513"/>
      <point x="62" y="532"/>
      <point x="65" y="563" type="curve" smooth="yes"/>
      <point x="70" y="596"/>
      <point x="67" y="609"/>
    </contour>
    <contour>
      <point x="469" y="61" type="curve" smooth="yes"/>
      <point x="476" y="-9"/>
      <point x="448" y="-7"/>
      <point x="403" y="-9" type="curve" smooth="yes"/>
      <point x="372" y="-12"/>
      <point x="351" y="-1"/>
      <point x="348" y="48" type="curve" smooth="yes"/>
      <point x="344" y="112"/>
      <point x="339" y="149"/>
      <point x="343" y="208" type="curve" smooth="yes"/>
      <point x="346" y="257"/>
      <point x="299" y="277"/>
      <point x="265" y="275" type="curve" smooth="yes"/>
      <point x="221" y="273"/>
      <point x="190" y="182"/>
      <point x="174" y="146" type="curve"/>
      <point x="168" y="320" type="line"/>
      <point x="206" y="394"/>
      <point x="240" y="410"/>
      <point x="268" y="410" type="curve" smooth="yes"/>
      <point x="336" y="410"/>
      <point x="473" y="393"/>
      <point x="465" y="234" type="curve" smooth="yes"/>
      <point x="459" y="127"/>
      <point x="462" y="140"/>
    </contour>
  </outline>
</glyph>
<glyph name="i" format="2">
  <advance width="500.0"/>
  <unicode hex="0069"/>
  <anchor x="250.0" y="600.0" name="top"/>
  <anchor x="250.0" y="0.0" name="cedilla"/>
  <anchor x="250.0" y="0.0" name="ogonek"/>
  <anchor x="250.0" y="0.0" name="bottom"/>
  <outline>
    <contour>
      <point x="334" y="526" type="curve" smooth="yes"/>
      <point x="337" y="469"/>
      <point x="307" y="450"/>
      <point x="255" y="449" type="curve" smooth="yes"/>
      <point x="202" y="448"/>
      <point x="177" y="470"/>
      <point x="177" y="526" type="curve" smooth="yes"/>
      <point x="177" y="585"/>
      <point x="203" y="604"/>
      <point x="255" y="604" type="curve" smooth="yes"/>
      <point x="308" y="604"/>
      <point x="332" y="584"/>
    </contour>
    <component base="idotless"/>
  </outline>
</glyph>
<glyph name="j" format="2">
  <advance width="500.0"/>
  <unicode hex="006A"/>
  <anchor x="280.0" y="600.0" name="top"/>
  <anchor x="233" y="-118" name="cedilla"/>
  <anchor x="233" y="-118" name="ogonek"/>
  <anchor x="233" y="-118" name="bottom"/>
  <outline>
    <contour>
      <point x="437" y="526" type="curve" smooth="yes"/>
      <point x="440" y="469"/>
      <point x="410" y="450"/>
      <point x="357" y="449" type="curve" smooth="yes"/>
      <point x="304" y="448"/>
      <point x="279" y="470"/>
      <point x="279" y="526" type="curve" smooth="yes"/>
      <point x="279" y="585"/>
      <point x="305" y="604"/>
      <point x="357" y="604" type="curve" smooth="yes"/>
      <point x="411" y="604"/>
      <point x="435" y="584"/>
    </contour>
    <component base="jdotless"/>
  </outline>
</glyph>
<glyph name="k" format="2">
  <advance width="500.0"/>
  <unicode hex="006B"/>
  <anchor x="250" y="600" name="top"/>
  <anchor x="112" y="-8" name="cedilla"/>
  <anchor x="410" y="-3" name="ogonek"/>
  <anchor x="262" y="0" name="bottom"/>
  <outline>
    <contour>
      <point x="120" y="604" type="curve" smooth="yes"/>
      <point x="174" y="600"/>
      <point x="178" y="579"/>
      <point x="177" y="558" type="curve" smooth="yes"/>
      <point x="174" y="412"/>
      <point x="173" y="316"/>
      <point x="173" y="253" type="curve" smooth="yes"/>
      <point x="174" y="198"/>
      <point x="175" y="75"/>
      <point x="175" y="65" type="curve" smooth="yes"/>
      <point x="175" y="17"/>
      <point x="169" y="-12"/>
      <point x="112" y="-8" type="curve" smooth="yes"/>
      <point x="69" y="-4"/>
      <point x="49" y="18"/>
      <point x="53" y="59" type="curve" smooth="yes"/>
      <point x="56" y="100"/>
      <point x="51" y="229"/>
      <point x="55" y="345" type="curve" smooth="yes"/>
      <point x="59" y="513"/>
      <point x="54" y="531"/>
      <point x="56" y="563" type="curve" smooth="yes"/>
      <point x="61" y="596"/>
      <point x="78" y="604"/>
    </contour>
    <contour>
      <point x="419" y="399" type="curve" smooth="yes"/>
      <point x="445" y="365"/>
      <point x="448" y="343"/>
      <point x="418" y="312" type="curve" smooth="yes"/>
      <point x="386" y="279"/>
      <point x="325" y="232"/>
      <point x="293" y="201" type="curve" smooth="yes"/>
      <point x="228" y="141"/>
      <point x="165" y="74"/>
      <point x="143" y="58" type="curve"/>
      <point x="140" y="206" type="line"/>
      <point x="171" y="237"/>
      <point x="211" y="279"/>
      <point x="253" y="315" type="curve" smooth="yes"/>
      <point x="287" y="345"/>
      <point x="315" y="368"/>
      <point x="353" y="396" type="curve" smooth="yes"/>
      <point x="376" y="413"/>
      <point x="401" y="422"/>
    </contour>
    <contour>
      <point x="311" y="259" type="line"/>
      <point x="336" y="213"/>
      <point x="351" y="178"/>
      <point x="356" y="167" type="curve" smooth="yes"/>
      <point x="373" y="134"/>
      <point x="378" y="130"/>
      <point x="401" y="117" type="curve" smooth="yes"/>
      <point x="413" y="109"/>
      <point x="427" y="109"/>
      <point x="448" y="106" type="curve" smooth="yes"/>
      <point x="474" y="103"/>
      <point x="473" y="86"/>
      <point x="471" y="57" type="curve" smooth="yes"/>
      <point x="465" y="1"/>
      <point x="433" y="-4"/>
      <point x="410" y="-3" type="curve" smooth="yes"/>
      <point x="340" y="0"/>
      <point x="323" y="20"/>
      <point x="302" y="41" type="curve" smooth="yes"/>
      <point x="278" y="67"/>
      <point x="270" y="81"/>
      <point x="257" y="108" type="curve" smooth="yes"/>
      <point x="244" y="134"/>
      <point x="249" y="124"/>
      <point x="221" y="182" type="curve"/>
    </contour>
  </outline>
</glyph>
<glyph name="l" format="2">
  <advance width="500.0"/>
  <unicode hex="006C"/>
  <anchor x="238" y="600" name="top"/>
  <anchor x="309" y="-12" name="cedilla"/>
  <anchor x="309" y="-12" name="ogonek"/>
  <anchor x="307" y="0" name="bottom"/>
  <outline>
    <contour>
      <point x="26" y="549" type="curve" smooth="yes"/>
      <point x="27" y="577"/>
      <point x="37" y="603"/>
      <point x="69" y="602" type="curve" smooth="yes"/>
      <point x="72" y="602"/>
      <point x="112" y="599"/>
      <point x="137" y="599" type="curve" smooth="yes"/>
      <point x="167" y="599"/>
      <point x="258" y="601"/>
      <point x="272" y="602" type="curve" smooth="yes"/>
      <point x="285" y="602"/>
      <point x="304" y="582"/>
      <point x="304" y="548" type="curve" smooth="yes"/>
      <point x="307" y="382"/>
      <point x="297" y="348"/>
      <point x="291" y="186" type="curve" smooth="yes"/>
      <point x="290" y="155"/>
      <point x="294" y="103"/>
      <point x="315" y="105" type="curve" smooth="yes"/>
      <point x="343" y="108"/>
      <point x="355" y="124"/>
      <point x="368" y="129" type="curve" smooth="yes"/>
      <point x="397" y="144"/>
      <point x="424" y="151"/>
      <point x="446" y="114" type="curve" smooth="yes"/>
      <point x="482" y="50"/>
      <point x="430" y="24"/>
      <point x="401" y="8" type="curve" smooth="yes"/>
      <point x="379" y="-4"/>
      <point x="346" y="-12"/>
      <point x="309" y="-12" type="curve" smooth="yes"/>
      <point x="278" y="-12"/>
      <point x="240" y="-10"/>
      <point x="215" y="13" type="curve" smooth="yes"/>
      <point x="189" y="37"/>
      <point x="167" y="70"/>
      <point x="170" y="132" type="curve" smooth="yes"/>
      <point x="178" y="276"/>
      <point x="184" y="355"/>
      <point x="184" y="492" type="curve"/>
      <point x="166" y="487"/>
      <point x="73" y="488"/>
      <point x="67" y="489" type="curve" smooth="yes"/>
      <point x="46" y="491"/>
      <point x="26" y="528"/>
    </contour>
  </outline>
</glyph>
<glyph name="m" format="2">
  <advance width="500.0"/>
  <unicode hex="006D"/>
  <anchor x="250.0" y="400.0" name="top"/>
  <anchor x="257" y="-8" name="cedilla"/>
  <anchor x="403" y="-8" name="ogonek"/>
  <anchor x="253.0" y="0.0" name="bottom"/>
  <outline>
    <contour>
      <point x="102" y="409" type="curve" smooth="yes"/>
      <point x="143" y="414"/>
      <point x="148" y="404"/>
      <point x="158" y="369" type="curve" smooth="yes"/>
      <point x="168" y="335"/>
      <point x="167" y="194"/>
      <point x="158" y="75" type="curve" smooth="yes"/>
      <point x="155" y="28"/>
      <point x="161" y="-10"/>
      <point x="95" y="-8" type="curve" smooth="yes"/>
      <point x="50" y="-7"/>
      <point x="46.666666666666664" y="29"/>
      <point x="50.666666666666664" y="70" type="curve" smooth="yes"/>
      <point x="63.666666666666664" y="205"/>
      <point x="58.666666666666664" y="229"/>
      <point x="55.666666666666664" y="363" type="curve" smooth="yes"/>
      <point x="56.666666666666664" y="397"/>
      <point x="66" y="404"/>
    </contour>
    <contour>
      <point x="301" y="61" type="curve" smooth="yes"/>
      <point x="302" y="18"/>
      <point x="302" y="-7"/>
      <point x="257" y="-8" type="curve" smooth="yes"/>
      <point x="206" y="-9"/>
      <point x="201" y="23"/>
      <point x="202" y="52" type="curve" smooth="yes"/>
      <point x="203" y="116"/>
      <point x="205" y="148"/>
      <point x="207" y="225" type="curve" smooth="yes"/>
      <point x="208" y="259"/>
      <point x="217" y="294"/>
      <point x="195" y="294" type="curve" smooth="yes"/>
      <point x="178" y="294"/>
      <point x="165" y="223"/>
      <point x="162" y="179" type="curve"/>
      <point x="153" y="274" type="line"/>
      <point x="159" y="355"/>
      <point x="183" y="410"/>
      <point x="222" y="410" type="curve" smooth="yes"/>
      <point x="257" y="410"/>
      <point x="311" y="393"/>
      <point x="306" y="234" type="curve" smooth="yes"/>
      <point x="302" y="127"/>
      <point x="300" y="133"/>
    </contour>
    <contour>
      <point x="454.6666666666667" y="62" type="curve" smooth="yes"/>
      <point x="457.6666666666667" y="19"/>
      <point x="441" y="-8"/>
      <point x="403" y="-8" type="curve" smooth="yes"/>
      <point x="339" y="-9"/>
      <point x="346" y="23"/>
      <point x="347" y="52" type="curve" smooth="yes"/>
      <point x="347" y="116"/>
      <point x="342" y="149"/>
      <point x="349" y="225" type="curve" smooth="yes"/>
      <point x="352" y="279"/>
      <point x="356" y="301"/>
      <point x="337" y="301" type="curve" smooth="yes"/>
      <point x="314" y="301"/>
      <point x="307" y="220"/>
      <point x="303" y="206" type="curve"/>
      <point x="293" y="263" type="line"/>
      <point x="297" y="372"/>
      <point x="338.6666666666667" y="411"/>
      <point x="369" y="411" type="curve" smooth="yes"/>
      <point x="417.6666666666667" y="411"/>
      <point x="462.6666666666667" y="380"/>
      <point x="456.6666666666667" y="235" type="curve" smooth="yes"/>
      <point x="452.6666666666667" y="128"/>
      <point x="447.6666666666667" y="142"/>
    </contour>
  </outline>
</glyph>
<glyph name="n" format="2">
  <advance width="500.0"/>
  <unicode hex="006E"/>
  <anchor x="250" y="400" name="top"/>
  <anchor x="93" y="-8" name="cedilla"/>
  <anchor x="417" y="-8" name="ogonek"/>
  <anchor x="257.0" y="0.0" name="bottom"/>
  <outline>
    <contour>
      <point x="100.33333333333333" y="408" type="curve" smooth="yes"/>
      <point x="155.5" y="410.6666666666667"/>
      <point x="166.33333333333334" y="384"/>
      <point x="164.33333333333334" y="363" type="curve" smooth="yes"/>
      <point x="154.33333333333334" y="239"/>
      <point x="160.33333333333334" y="196"/>
      <point x="156.33333333333334" y="75" type="curve" smooth="yes"/>
      <point x="154.33333333333334" y="28"/>
      <point x="146" y="-16"/>
      <point x="93" y="-8" type="curve" smooth="yes"/>
      <point x="44" y="-1"/>
      <point x="40.5" y="29"/>
      <point x="43.5" y="70" type="curve" smooth="yes"/>
      <point x="52.5" y="205"/>
      <point x="45.5" y="232"/>
      <point x="52.5" y="366" type="curve" smooth="yes"/>
      <point x="55.5" y="399"/>
      <point x="62.16666666666667" y="404.1666666666667"/>
    </contour>
    <contour>
      <point x="459.8333333333333" y="61" type="curve" smooth="yes"/>
      <point x="462.8333333333333" y="18"/>
      <point x="442" y="-9"/>
      <point x="417" y="-8" type="curve" smooth="yes"/>
      <point x="364" y="-11"/>
      <point x="347" y="22"/>
      <point x="347" y="51" type="curve" smooth="yes"/>
      <point x="348" y="115"/>
      <point x="353" y="145"/>
      <point x="355" y="222" type="curve" smooth="yes"/>
      <point x="356" y="260"/>
      <point x="328" y="304"/>
      <point x="294" y="304" type="curve" smooth="yes"/>
      <point x="270" y="304"/>
      <point x="180.33333333333334" y="266.3333333333333"/>
      <point x="155.33333333333334" y="164.33333333333334" type="curve"/>
      <point x="151.33333333333334" y="320" type="line"/>
      <point x="189.33333333333334" y="394"/>
      <point x="259.3333333333333" y="414"/>
      <point x="287.3333333333333" y="414" type="curve" smooth="yes"/>
      <point x="335.3333333333333" y="414"/>
      <point x="463.8333333333333" y="393"/>
      <point x="455.8333333333333" y="234" type="curve" smooth="yes"/>
      <point x="449.8333333333333" y="127"/>
      <point x="454.8333333333333" y="140"/>
    </contour>
  </outline>
</glyph>
<glyph name="o" format="2">
  <advance width="500.0"/>
  <unicode hex="006F"/>
  <anchor x="250.0" y="400.0" name="top"/>
  <anchor x="250" y="-10" name="cedilla"/>
  <anchor x="250" y="-10" name="ogonek"/>
  <anchor x="250" y="0" name="bottom"/>
  <anchor x="378" y="332" name="horn"/>
  <outline>
    <contour>
      <point x="250" y="415" type="curve" smooth="yes"/>
      <point x="362" y="415"/>
      <point x="466.3333333333333" y="345.6666666666667"/>
      <point x="466.3333333333333" y="204" type="curve" smooth="yes"/>
      <point x="466.3333333333333" y="70.33333333333333"/>
      <point x="364" y="-10"/>
      <point x="250" y="-10" type="curve" smooth="yes"/>
      <point x="140" y="-10"/>
      <point x="33.66666666666667" y="71.33333333333333"/>
      <point x="33.66666666666667" y="200" type="curve" smooth="yes"/>
      <point x="33.66666666666667" y="344.6666666666667"/>
      <point x="140" y="415"/>
    </contour>
    <contour>
      <point x="250" y="101" type="curve" smooth="yes"/>
      <point x="286" y="101"/>
      <point x="356.5" y="131.66666666666666"/>
      <point x="356.5" y="206" type="curve" smooth="yes"/>
      <point x="356.5" y="272.3333333333333"/>
      <point x="307" y="309"/>
      <point x="250" y="309" type="curve" smooth="yes"/>
      <point x="196" y="309"/>
      <point x="143.5" y="275.3333333333333"/>
      <point x="143.5" y="200" type="curve" smooth="yes"/>
      <point x="143.5" y="131.66666666666666"/>
      <point x="211" y="101"/>
    </contour>
  </outline>
</glyph>
<glyph name="p" format="2">
  <advance width="500.0"/>
  <unicode hex="0070"/>
  <anchor x="270.0" y="400.0" name="top"/>
  <anchor x="93" y="-106" name="cedilla"/>
  <anchor x="93" y="-106" name="ogonek"/>
  <anchor x="233.0" y="-100.0" name="bottom"/>
  <outline>
    <contour>
      <point x="160" y="254" type="curve"/>
      <point x="149" y="350" type="line"/>
      <point x="152" y="380"/>
      <point x="206" y="419.1666666666667"/>
      <point x="258" y="419.1666666666667" type="curve" smooth="yes"/>
      <point x="357" y="419.1666666666667"/>
      <point x="482" y="374"/>
      <point x="460" y="236" type="curve" smooth="yes"/>
      <point x="434" y="76"/>
      <point x="299" y="-10"/>
      <point x="212.33333333333334" y="17.5" type="curve" smooth="yes"/>
      <point x="160" y="34"/>
      <point x="152" y="52"/>
      <point x="137" y="71" type="curve"/>
      <point x="145" y="194" type="line"/>
      <point x="162" y="167"/>
      <point x="216" y="124"/>
      <point x="246" y="125" type="curve" smooth="yes"/>
      <point x="275" y="126"/>
      <point x="312" y="153"/>
      <point x="342" y="218" type="curve" smooth="yes"/>
      <point x="368" y="274"/>
      <point x="321" y="300"/>
      <point x="257" y="300" type="curve" smooth="yes"/>
      <point x="221" y="300"/>
      <point x="196" y="295"/>
    </contour>
    <contour>
      <point x="82" y="418" type="curve" smooth="yes"/>
      <point x="143.83333333333331" y="435.8333333333333"/>
      <point x="149.33333333333334" y="401"/>
      <point x="158.33333333333334" y="383" type="curve" smooth="yes"/>
      <point x="168.33333333333334" y="365"/>
      <point x="166.33333333333334" y="344"/>
      <point x="166.33333333333334" y="334" type="curve" smooth="yes"/>
      <point x="156.33333333333334" y="216"/>
      <point x="171.33333333333334" y="77"/>
      <point x="159.33333333333334" y="-32" type="curve" smooth="yes"/>
      <point x="154.33333333333334" y="-79"/>
      <point x="148" y="-105"/>
      <point x="93" y="-106" type="curve" smooth="yes"/>
      <point x="53" y="-107"/>
      <point x="43.5" y="-79"/>
      <point x="47.5" y="-38" type="curve" smooth="yes"/>
      <point x="58.5" y="84"/>
      <point x="46" y="204"/>
      <point x="52" y="326" type="curve" smooth="yes"/>
      <point x="54" y="339"/>
      <point x="49" y="353"/>
      <point x="45" y="366" type="curve" smooth="yes"/>
      <point x="37" y="391"/>
      <point x="59.833333333333336" y="411.6666666666667"/>
    </contour>
  </outline>
</glyph>
<glyph name="q" format="2">
  <advance width="500.0"/>
  <unicode hex="0071"/>
  <anchor x="243" y="400" name="top"/>
  <anchor x="347" y="-111" name="cedilla"/>
  <anchor x="347" y="-111" name="ogonek"/>
  <anchor x="241" y="-100" name="bottom"/>
  <outline>
    <contour>
      <point x="327" y="355" type="curve"/>
      <point x="307" y="219" type="line"/>
      <point x="297" y="262"/>
      <point x="272" y="307"/>
      <point x="223" y="306" type="curve" smooth="yes"/>
      <point x="147" y="304"/>
      <point x="146" y="262"/>
      <point x="147" y="207" type="curve" smooth="yes"/>
      <point x="149" y="112"/>
      <point x="165" y="102"/>
      <point x="195" y="101" type="curve" smooth="yes"/>
      <point x="228" y="100"/>
      <point x="236" y="107"/>
      <point x="314" y="216" type="curve"/>
      <point x="345" y="106" type="line"/>
      <point x="289" y="7"/>
      <point x="233" y="-12"/>
      <point x="200" y="-12" type="curve" smooth="yes"/>
      <point x="71" y="-11"/>
      <point x="39" y="39"/>
      <point x="35" y="198" type="curve" smooth="yes"/>
      <point x="33" y="301"/>
      <point x="73" y="411"/>
      <point x="230" y="412" type="curve" smooth="yes"/>
      <point x="288" y="412"/>
      <point x="296" y="384"/>
    </contour>
    <contour>
      <point x="396" y="402" type="curve" smooth="yes"/>
      <point x="402" y="398"/>
      <point x="424" y="393"/>
      <point x="419" y="366" type="curve" smooth="yes"/>
      <point x="409" y="306"/>
      <point x="406" y="216"/>
      <point x="406" y="159" type="curve" smooth="yes"/>
      <point x="406" y="83"/>
      <point x="396" y="7"/>
      <point x="403" y="0" type="curve"/>
      <point x="403" y="31"/>
      <point x="432" y="81"/>
      <point x="476" y="60" type="curve" smooth="yes"/>
      <point x="508" y="45"/>
      <point x="503" y="29"/>
      <point x="497" y="16" type="curve" smooth="yes"/>
      <point x="492" y="3"/>
      <point x="475" y="-36"/>
      <point x="472" y="-67" type="curve" smooth="yes"/>
      <point x="462" y="-109"/>
      <point x="423" y="-115"/>
      <point x="347" y="-111" type="curve" smooth="yes"/>
      <point x="284" y="-106"/>
      <point x="302" y="-17"/>
      <point x="303" y="18" type="curve" smooth="yes"/>
      <point x="305" y="129"/>
      <point x="307" y="220"/>
      <point x="300" y="332" type="curve" smooth="yes"/>
      <point x="300" y="342"/>
      <point x="297" y="339"/>
      <point x="303" y="359" type="curve" smooth="yes"/>
      <point x="323" y="419"/>
      <point x="322" y="426"/>
    </contour>
  </outline>
</glyph>
<glyph name="r" format="2">
  <advance width="500.0"/>
  <unicode hex="0072"/>
  <anchor x="278" y="400" name="top"/>
  <anchor x="90" y="-7" name="cedilla"/>
  <anchor x="90" y="-7" name="ogonek"/>
  <anchor x="260.0" y="0.0" name="bottom"/>
  <outline>
    <contour>
      <point x="70.16666666666667" y="410" type="curve" smooth="yes"/>
      <point x="139.16666666666666" y="420"/>
      <point x="167.16666666666666" y="388"/>
      <point x="166.16666666666666" y="364" type="curve" smooth="yes"/>
      <point x="166.16666666666666" y="238"/>
      <point x="167.16666666666666" y="194"/>
      <point x="165.16666666666666" y="77" type="curve" smooth="yes"/>
      <point x="164.16666666666666" y="30"/>
      <point x="159" y="-12"/>
      <point x="90" y="-7" type="curve" smooth="yes"/>
      <point x="38" y="-3"/>
      <point x="41.16666666666667" y="29"/>
      <point x="44.16666666666667" y="99" type="curve" smooth="yes"/>
      <point x="48.16666666666667" y="203"/>
      <point x="50.16666666666667" y="235"/>
      <point x="45.16666666666667" y="368" type="curve" smooth="yes"/>
      <point x="44.16666666666667" y="401"/>
      <point x="63.16666666666667" y="409.8333333333333"/>
    </contour>
    <contour>
      <point x="459.5" y="295" type="curve" smooth="yes"/>
      <point x="458.5" y="249"/>
      <point x="454" y="189"/>
      <point x="429" y="190" type="curve" smooth="yes"/>
      <point x="398" y="193"/>
      <point x="340" y="191.66666666666669"/>
      <point x="343" y="220.66666666666669" type="curve" smooth="yes"/>
      <point x="345" y="244.66666666666669"/>
      <point x="343" y="261.6666666666667"/>
      <point x="335" y="269.6666666666667" type="curve" smooth="yes"/>
      <point x="324" y="279.6666666666667"/>
      <point x="303" y="281.1666666666667"/>
      <point x="280" y="272.6666666666667" type="curve" smooth="yes"/>
      <point x="239.5" y="260.5"/>
      <point x="225.5" y="234.33333333333334"/>
      <point x="163.16666666666666" y="167.5" type="curve"/>
      <point x="162.16666666666666" y="320" type="line"/>
      <point x="216.16666666666666" y="389"/>
      <point x="280.1666666666667" y="412.5"/>
      <point x="308.1666666666667" y="415.5" type="curve" smooth="yes"/>
      <point x="348.1666666666667" y="419.5"/>
      <point x="396.6666666666667" y="405.5"/>
      <point x="417.1666666666667" y="395" type="curve" smooth="yes"/>
      <point x="448.1666666666667" y="375.8333333333333"/>
      <point x="461.5" y="359"/>
    </contour>
  </outline>
</glyph>
<glyph name="s" format="2">
  <advance width="500.0"/>
  <unicode hex="0073"/>
  <anchor x="250.0" y="400.0" name="top"/>
  <anchor x="242" y="-8" name="cedilla"/>
  <anchor x="242" y="-8" name="ogonek"/>
  <anchor x="250" y="0" name="bottom"/>
  <outline>
    <contour>
      <point x="251" y="410" type="curve" smooth="yes"/>
      <point x="314" y="410"/>
      <point x="349" y="406"/>
      <point x="389" y="393" type="curve" smooth="yes"/>
      <point x="415" y="383"/>
      <point x="449" y="366"/>
      <point x="431" y="331" type="curve" smooth="yes"/>
      <point x="414" y="303"/>
      <point x="395" y="282"/>
      <point x="371" y="290" type="curve" smooth="yes"/>
      <point x="347" y="299"/>
      <point x="329" y="308"/>
      <point x="270" y="309" type="curve" smooth="yes"/>
      <point x="184" y="311"/>
      <point x="162" y="305"/>
      <point x="162" y="280" type="curve" smooth="yes"/>
      <point x="162" y="264"/>
      <point x="178" y="260"/>
      <point x="270" y="260" type="curve" smooth="yes"/>
      <point x="312" y="260"/>
      <point x="380" y="250"/>
      <point x="415" y="226" type="curve" smooth="yes"/>
      <point x="448" y="204"/>
      <point x="463" y="160"/>
      <point x="463" y="125" type="curve" smooth="yes"/>
      <point x="463" y="84"/>
      <point x="438" y="56"/>
      <point x="410" y="36" type="curve" smooth="yes"/>
      <point x="360" y="0"/>
      <point x="291" y="-8"/>
      <point x="242" y="-8" type="curve" smooth="yes"/>
      <point x="175" y="-8"/>
      <point x="134" y="-9"/>
      <point x="94" y="2" type="curve" smooth="yes"/>
      <point x="70" y="9"/>
      <point x="34" y="33"/>
      <point x="58" y="83" type="curve" smooth="yes"/>
      <point x="86" y="136"/>
      <point x="124" y="109"/>
      <point x="148" y="107" type="curve" smooth="yes"/>
      <point x="170" y="105"/>
      <point x="217" y="98"/>
      <point x="242" y="98" type="curve" smooth="yes"/>
      <point x="303" y="99"/>
      <point x="325" y="109"/>
      <point x="330" y="112" type="curve" smooth="yes"/>
      <point x="341" y="118"/>
      <point x="342" y="130"/>
      <point x="342" y="132" type="curve" smooth="yes"/>
      <point x="342" y="137"/>
      <point x="341" y="144"/>
      <point x="336" y="148" type="curve" smooth="yes"/>
      <point x="332" y="151"/>
      <point x="310" y="162"/>
      <point x="239" y="161" type="curve" smooth="yes"/>
      <point x="116" y="160"/>
      <point x="57" y="164"/>
      <point x="57" y="287" type="curve" smooth="yes"/>
      <point x="57" y="398"/>
      <point x="163" y="410"/>
    </contour>
  </outline>
</glyph>
<glyph name="t" format="2">
  <advance width="500.0"/>
  <unicode hex="0074"/>
  <anchor x="243" y="600" name="top"/>
  <anchor x="273" y="-17" name="cedilla"/>
  <anchor x="273" y="-17" name="ogonek"/>
  <anchor x="255" y="0" name="bottom"/>
  <outline>
    <contour>
      <point x="455" y="103" type="curve" smooth="yes"/>
      <point x="476" y="33"/>
      <point x="438" y="9"/>
      <point x="419" y="3" type="curve" smooth="yes"/>
      <point x="374" y="-12"/>
      <point x="327" y="-20"/>
      <point x="273" y="-17" type="curve" smooth="yes"/>
      <point x="238" y="-15"/>
      <point x="194" y="-1"/>
      <point x="173" y="31" type="curve" smooth="yes"/>
      <point x="141" y="81"/>
      <point x="146" y="172"/>
      <point x="145" y="195" type="curve" smooth="yes"/>
      <point x="144" y="237"/>
      <point x="146" y="397"/>
      <point x="150" y="541" type="curve" smooth="yes"/>
      <point x="151" y="581"/>
      <point x="157" y="606"/>
      <point x="208" y="607" type="curve" smooth="yes"/>
      <point x="288" y="610"/>
      <point x="273" y="587"/>
      <point x="273" y="540" type="curve" smooth="yes"/>
      <point x="273" y="497"/>
      <point x="272" y="397"/>
      <point x="270" y="257" type="curve" smooth="yes"/>
      <point x="268" y="174"/>
      <point x="267" y="148"/>
      <point x="278" y="124" type="curve" smooth="yes"/>
      <point x="285" y="108"/>
      <point x="300" y="104"/>
      <point x="327" y="104" type="curve" smooth="yes"/>
      <point x="349" y="104"/>
      <point x="365" y="113"/>
      <point x="399" y="123" type="curve" smooth="yes"/>
      <point x="427" y="131"/>
      <point x="446" y="130"/>
    </contour>
    <contour>
      <point x="38" y="374" type="curve" smooth="yes"/>
      <point x="39" y="407"/>
      <point x="49" y="433"/>
      <point x="79" y="433" type="curve" smooth="yes"/>
      <point x="131" y="431"/>
      <point x="257" y="430"/>
      <point x="269" y="430" type="curve" smooth="yes"/>
      <point x="303" y="430"/>
      <point x="344" y="427"/>
      <point x="388" y="430" type="curve" smooth="yes"/>
      <point x="414" y="431"/>
      <point x="425" y="404"/>
      <point x="425" y="365" type="curve" smooth="yes"/>
      <point x="425" y="319"/>
      <point x="405" y="308"/>
      <point x="373" y="308" type="curve" smooth="yes"/>
      <point x="325" y="308"/>
      <point x="308" y="305"/>
      <point x="271" y="307" type="curve" smooth="yes"/>
      <point x="239" y="309"/>
      <point x="91" y="309"/>
      <point x="76" y="312" type="curve" smooth="yes"/>
      <point x="43" y="316"/>
      <point x="37" y="336"/>
    </contour>
  </outline>
</glyph>
<glyph name="u" format="2">
  <advance width="500.0"/>
  <unicode hex="0075"/>
  <anchor x="255" y="400" name="top"/>
  <anchor x="232" y="-9" name="cedilla"/>
  <anchor x="383" y="-4" name="ogonek"/>
  <anchor x="254" y="0" name="bottom"/>
  <anchor x="368" y="351" name="horn"/>
  <outline>
    <contour>
      <point x="468" y="41" type="curve" smooth="yes"/>
      <point x="466" y="-7"/>
      <point x="459" y="-6"/>
      <point x="383" y="-4" type="curve" smooth="yes"/>
      <point x="337" y="-2"/>
      <point x="328" y="57"/>
      <point x="328" y="68" type="curve" smooth="yes"/>
      <point x="330" y="165"/>
      <point x="321" y="214"/>
      <point x="327" y="322" type="curve" smooth="yes"/>
      <point x="329" y="369"/>
      <point x="319" y="404"/>
      <point x="375" y="408" type="curve" smooth="yes"/>
      <point x="452" y="412"/>
      <point x="445" y="381"/>
      <point x="442" y="327" type="curve" smooth="yes"/>
      <point x="435" y="205"/>
      <point x="437" y="230"/>
      <point x="437" y="124" type="curve" smooth="yes"/>
      <point x="437" y="113"/>
      <point x="435" y="93"/>
      <point x="449" y="92" type="curve" smooth="yes"/>
      <point x="467" y="90"/>
      <point x="469" y="65"/>
    </contour>
    <contour>
      <point x="49" y="348" type="curve" smooth="yes"/>
      <point x="49" y="377"/>
      <point x="41" y="403"/>
      <point x="98" y="409" type="curve" smooth="yes"/>
      <point x="184" y="414"/>
      <point x="164" y="376"/>
      <point x="163" y="333" type="curve" smooth="yes"/>
      <point x="160" y="279"/>
      <point x="157" y="270"/>
      <point x="158" y="215" type="curve" smooth="yes"/>
      <point x="159" y="122"/>
      <point x="197" y="108"/>
      <point x="231" y="107" type="curve" smooth="yes"/>
      <point x="289" y="105"/>
      <point x="318" y="118"/>
      <point x="326" y="257" type="curve"/>
      <point x="339" y="54" type="line"/>
      <point x="324" y="13"/>
      <point x="260" y="-8"/>
      <point x="232" y="-9" type="curve" smooth="yes"/>
      <point x="184" y="-13"/>
      <point x="50" y="-3"/>
      <point x="45" y="156" type="curve" smooth="yes"/>
      <point x="43" y="218"/>
      <point x="49" y="286"/>
    </contour>
  </outline>
</glyph>
